<?xml version="1.0" encoding="utf-8"?>
<!-- Generator: Adobe Illustrator 27.4.1, SVG Export Plug-In . SVG Version: 6.00 Build 0)  -->
<svg version="1.1" id="Layer_1" xmlns="http://www.w3.org/2000/svg" xmlns:xlink="http://www.w3.org/1999/xlink" x="0px" y="0px"
	 viewBox="0 0 360 360" style="enable-background:new 0 0 360 360;" xml:space="preserve">
<g>
	<g>
		<path d="M247.78,218.81c1.2,0,2.2,0,3.45,0c0.05,0.67,0.09,1.35,0.14,2.06c-1.86,0.95-3.37,2.82-5.58,1.02
			c-2.15,1.34-4.53,0.45-6.79,0.64c-0.52,0.04-1.07-0.37-1.67-0.59c-0.14,0.13-0.4,0.36-0.66,0.6c-0.29-0.29-0.55-0.55-1.01-1.01
			c0.48-0.77,0.82-1.81,1.54-2.36c0.78-0.6,1.91-0.74,2.99-1.12c-0.42-2.4,0.59-4.66-0.83-6.69c-0.12-0.17-0.01-0.49-0.02-0.74
			c-0.25-5.28-0.45-10.56-0.78-15.84c-0.09-1.51-0.56-2.99-0.9-4.72c-1.77,4.27-3.46,8.27-5.08,12.29c-1.3,3.22-2.51,6.47-3.78,9.7
			c-0.13,0.32-0.52,0.61-0.51,0.9c0.06,2.29-1.53,3.01-3.46,3.64c-1.33-1.1-2.57-2.3-2.82-4.27c-0.1-0.78-0.49-1.55-0.83-2.27
			c-2.11-4.39-4.28-8.74-6.34-13.15c-0.78-1.67-1.34-3.45-2.05-5.31c-1.31,3.15-1.22,6.25-1.3,9.37
			c-0.13,5.16-1.12,10.28-0.73,15.46c0.05,0.72,0.01,1.45,0.01,2.31c1.52,0,2.86,0,4.12,0c0.88,1.33,0.38,2.41-0.66,2.91
			c-1.42,0.67-2.99,1.86-4.34,0.44c-2.91,1-5.77,0.19-8.62,0.54c-0.45-1.4-0.58-2.65,0.86-3.79c0.92,0,2.01,0,3.05,0
			c1.43-3.13,1.09-6.33,1.07-9.47c-0.03-5.05,1.16-10.01,0.84-15.09c-0.08-1.2,0.85-2.43,0.7-3.82c-0.13-1.22-0.03-2.47-0.03-3.63
			c-1.46-1.03-1.46-1.03-3.59-1.15c0-0.82,0-1.65,0-2.79c3.59-1.87,7.68-0.48,11.68-0.99c1.08,1.96,2.41,3.7,3.05,5.66
			c1.23,3.77,3.12,7.23,4.65,10.85c0.76,1.81,1.48,3.65,2.28,5.44c0.24,0.54,0.7,0.97,1.03,1.43c3-7.68,5.99-15.33,9.05-23.17
			c3.36,0,6.95,0,10.68,0c0.74,0.47,1.65,1.03,2.5,1.57c0,0.63,0,1.13,0,1.89c-1.13,0.09-2.31,0.18-3.74,0.29
			c0,3.58-0.48,7.27,0.15,10.75c0.52,2.82,0.1,5.65,0.68,8.34c0.8,3.66,0.55,7.31,0.71,10.97
			C246.91,216.8,247.41,217.67,247.78,218.81z"/>
		<path d="M186.85,288.06c-2.8-0.38-5.54,0.45-8.01-0.47c-0.76,0.05-1.45,0.09-2.14,0.14c-0.01-0.12-0.02-0.24-0.03-0.36
			c-0.48,0.24-0.97,0.47-1.48,0.73c-0.43-0.4-0.78-0.73-1.2-1.12c0.5-0.87,1-1.74,1.53-2.66c0.91-0.05,1.75-0.1,2.74-0.15
			c0-11.45,0-22.9,0-34.44c-0.89-0.05-1.73-0.09-2.44-0.12c-1.51-0.83-1.14-2.15-1.14-3.45c3.09-0.38,6.19-0.77,9.22-1.14
			c0.58,0.91,1.08,1.68,1.62,2.52c0.45-0.18,0.86-0.23,1.08-0.46c1.34-1.35,2.99-1.67,4.81-2.07c1.68-0.38,3.12-1.21,4.67,0.12
			c2.62-0.33,4.21,1.3,5.96,2.88c1.69,1.53,2.5,3.43,3.13,5.48c0.21,0.68,0.29,1.41,0.3,2.12c0.04,1.75-0.17,3.53,0.05,5.25
			c0.35,2.76-0.54,5.38-1.68,7.57c-1.72,3.31-4.13,6.22-8.46,6.88c-2.51,0.39-4.82,1.07-7.3-0.06c-0.72-0.33-1.71-0.05-2.89-0.05
			c0.33,3.02-0.82,6.07,0.77,9.02c1.3,0,2.39,0,3.61,0c0,0.72,0,1.31,0,2.11C188.84,286.8,187.94,287.37,186.85,288.06z
			 M193.1,271.42c2.78-1.76,4.29-3.12,4.68-4.73c0.45-1.84,0.75-3.73,0.9-5.62c0.13-1.67-0.15-3.28-0.63-4.96
			c-1-3.55-1.54-4.78-4.05-6.36c-3.43-0.54-6.33,0.26-8.71,2.38c0,5.47,0,10.81,0,15.91C187.34,270.86,190.02,271.62,193.1,271.42z"
			/>
		<path d="M168.96,185.11c-0.51-1.15-0.83-1.89-1.15-2.6c1.32-1.17,2.8-1.34,4.4-1.31c1.55,0.02,3.08,0.22,4.62-0.64
			c0.82-0.45,2.25-0.41,3.08,1.22c0,8.03,0,16.4,0,24.77c0,2.76,0.05,5.51-0.02,8.27c-0.03,1.16-0.33,2.31-0.55,3.75
			c0.09,0.1,0.42,0.46,0.98,1.07c0.96,0,2.14,0,3.42,0c-0.23,2.38-2.29,2.58-3.51,3.67c-3.59-0.01-4.93-0.53-7.92-3.19
			c-2,2.54-5.27,2.06-7.94,3.19c-2.46-0.7-5.22-0.58-7.14-2.73c-0.67-0.75-1.52-1.34-2.1-2.15c-1.23-1.73-2.42-3.48-2.33-5.8
			c0.11-2.63,0.01-5.26,0.03-7.89c0.04-5.09,3.73-10.65,8.54-12.04c3.15-0.91,6.51-1.89,9.83-0.22c0.2,0.1,0.49,0.01,1.05,0.01
			c0.04-1.16,0.11-2.35,0.13-3.54c0.02-1.24,0.01-2.47,0.01-3.84C171.21,185.11,170.12,185.11,168.96,185.11z M172.38,198.11
			c-3.51-2-6.99-2.84-10.31,0.02c-1.85,3.18-2.79,6.54-2.47,10.24c0.33,3.76,1.12,7.25,4.13,9.64c1.94,0,3.67,0,5.4,0
			c1.15-0.86,2.28-1.71,3.25-2.43C172.38,209.54,172.38,203.81,172.38,198.11z"/>
		<path d="M110.75,242.59c0,1.82,0.18,3.84-0.04,5.8c-0.41,3.7-1.97,6.82-5.33,8.75c-2.37,1.36-4.9,2.04-7.67,2.42
			c-2.11,0.29-4.25,0.52-6.44,0.62c0,3.55,0,6.89,0,10.33c1.71,0.41,3.41,0.82,5.29,1.27c-0.36,0.85-0.71,1.67-1.06,2.48
			c-1.15,0.32-2.27,0.87-3.4,0.9c-3.98,0.11-7.96,0.04-12,0.04c-0.92-3.84,2.9-3.22,4.25-4.7c0-10.47,0-20.82,0-31.09
			c-0.34-0.34-0.61-0.61-1-1c-0.96,0-2.05,0-3.28,0c0-0.71,0-1.29,0-2.09c0.46-0.42,1.11-1,1.91-1.72c4.64,0,9.52-0.17,14.37,0.07
			c2.69,0.13,5.5,0.54,7.96,1.54C107.12,237.35,109.2,239.7,110.75,242.59z M91.33,238.41c0,6.17,0,12.03,0,17.86
			c2.32,0.33,4.44,0.11,6.54-0.61c3.37-1.14,5.34-3.73,5.36-7.22c0.01-1.75,0-3.5,0-4.91c-0.73-1.41-1.31-2.55-1.64-3.17
			c-1.17-0.87-1.92-1.43-2.61-1.95C96.45,238.41,93.96,238.41,91.33,238.41z"/>
		<path d="M90.38,183.47c0,3.61,0,6.96,0,10.41c-0.91,0-1.75,0-2.66,0c-0.39-2.11-0.81-4.32-1.23-6.58c-3.87,0-7.72,0-11.69,0
			c0,4.64,0,9.24,0,14.06c3.34,0.84,6.74-1.57,10.3-0.37c0,1.55,0,3.15,0,5.07c-1.67-0.09-3.5,0.21-4.99-0.37
			c-1.75-0.68-3.41-0.1-5.26-0.53c0,4.8,0,9.49,0,14.31c1.56,0,3.15,0,4.73,0c0.3,2.34,0.3,2.34-0.69,3.78c-5.05,0-10.15,0-15.23,0
			c-0.99-1.93,0.72-2.63,1.71-3.81c0.73,0,1.57,0,2.44,0c-0.25-0.63-0.67-1.16-0.62-1.64c0.32-3.15-0.61-6.31,0.61-9.5
			c0.62-1.64,0.22-3.72,0.08-5.59c-0.14-1.78,0.45-3.56-0.61-5.39c-0.6-1.03-0.11-2.69-0.11-4.07c0-1.88,0-3.76,0-5.89
			c-1.17-0.07-2.35-0.14-3.5-0.21c-0.98-1.97,0.76-2.62,1.64-3.67C73.55,183.47,81.81,183.47,90.38,183.47z"/>
		<path d="M253.37,233.23c0.33-1.51,0.65-3,0.97-4.5c1.25-0.4,2.34-0.74,3.65-1.16c0,1.2,0,2.04,0,3.16
			c0.94,0.05,1.77,0.1,2.71,0.15c1.96-1.9,3.62-4.01,4.21-6.82c0.14-0.67,0.39-1.39,0.81-1.91c0.99-1.23,0.73-2.27,0.1-3.62
			c-2.49-5.35-4.83-10.77-7.2-16.17c-0.74-1.69-1.42-3.42-2.17-5.23c-1.14-0.4-2.35-0.81-3.56-1.23c0-0.36,0-0.73,0-1.43
			c0.61-0.53,1.41-1.23,2.3-2.01c0.2,0.11,0.5,0.27,0.97,0.52c1.48-0.94,3.28-0.42,5.02-0.49c1.87-0.07,3.75-0.02,5.87-0.02
			c0.04,0.59,0.09,1.17,0.15,1.95c-0.94,0.75-1.96,1.56-3,2.39c0,0.36-0.16,0.92,0.02,1.34c1.84,4.18,3.74,8.34,5.97,13.27
			c1.94-5.48,4.01-10.03,5.48-15.08c-0.97,0-1.56,0-2.39,0c-0.05-0.69-0.1-1.28-0.15-2.01c0.61-0.5,1.28-1.06,2.14-1.78
			c2.51,0,5.36,0,8.31,0c0,0.92,0,1.76,0,2.7c-0.76,1.16-2.77,1.06-3.16,3.02c-0.26,1.3-1.62,2.37-1.93,3.68
			c-0.68,2.86-2.1,5.4-3.09,8.12c-0.96,2.6-2.05,5.16-3.13,7.72c-1.44,3.41-2.85,6.83-4.4,10.2c-0.68,1.48-1.6,2.86-2.51,4.22
			c-1.26,1.88-3.27,2.85-5.23,3.67c-1.9,0.79-3.68-0.27-5.32-1.25C254.38,234.39,254.08,233.95,253.37,233.23z"/>
		<path d="M162.84,245.12c1.9,1.18,3.51,2.34,4.96,3.88c2.24,2.39,2.76,5.18,3.07,8.13c0.18,1.73,0.06,3.49,0.03,5.24
			c-0.06,3.86-1.43,7.17-4.2,9.87c-1.85,1.8-3.94,3.08-6.65,2.95c-1.32,1.46-3.2,1-4.52,0.61c-1.54-0.45-3.16-0.64-4.71-1.25
			c-3.47-1.37-5.08-3.97-6.26-7.18c-0.55-1.5-0.85-2.98-0.74-4.57c0.2-2.77-0.02-5.51,0.65-8.33c1.16-4.88,4.79-8.49,9.45-9.42
			c2.24-0.45,4.29-1.21,6.54,0C161.13,245.43,162.17,245.12,162.84,245.12z M155.33,248.88c-1.13,1.29-2.69,2.34-3.12,3.73
			c-0.87,2.81-1.96,5.75-1.54,8.72c0.41,2.86,1.41,5.63,2,7.86c1.35,1,2.19,1.62,3.03,2.23c2.06,0.02,4.17,0.27,5.78-1.47
			c0.59-1.14,1.17-2.28,1.9-3.7c0-0.66-0.17-1.69,0.03-2.64c0.85-4.07,0.41-4.03,0.11-7.66c-0.26-3.13-2.05-4.8-3.91-6.69
			c-0.16-0.16-0.39-0.26-0.59-0.38C157.9,248.88,156.77,248.88,155.33,248.88z"/>
		<path d="M253.7,269.93c-1.58,3.42-4.28,4.49-7.57,5.39c-4.26,1.17-7.92,0.4-11.59-1.53c-1.62-0.86-3.43-3.54-4.3-5.21
			c-1.83-3.55-1.89-7.38-1.31-11.01c0.5-3.13,1.21-6.55,4.06-8.8c0.78-0.61,1.38-1.45,2.15-2.09c0.63-0.52,1.32-1.11,2.07-1.3
			c1.83-0.46,3.71-0.9,5.59-0.96c1.64-0.05,3.34,0.28,4.93,0.73c2.53,0.7,5.75,5.33,5.85,8.23c0.07,2.12,0.01,4.25,0.01,6.64
			c-5.66,0.33-11.36,0-17.16,0.2c0,1.89,0,3.74,0,5.54c0.51,1.02,1.03,2.05,1.49,2.95c2.78,2.42,6.09,2.04,9.33,1.94
			c1.61-0.98,3.21-1.95,5.03-3.06C252.71,268.28,253.16,269.03,253.7,269.93z M247.65,256.35c-0.32-1.33-0.65-2.32-0.8-3.35
			c-0.31-2.08-1.64-3.44-3.42-4.04c-1.66-0.56-3.25,0.24-4.54,1.47c-1.69,1.61-1.82,3.81-2.67,5.92
			C240.17,256.35,243.74,256.35,247.65,256.35z"/>
		<path d="M139.16,260.16c-5.75,0-11.26,0-17,0c-0.33,3-0.44,5.93,1.86,8.89c0.63,0.33,1.77,0.91,3.12,1.61
			c3.78,0.3,7.65-0.08,10.95-3.45c0.81,2.17,0.61,3.82-0.57,5.51c-1.72,0.95-3.6,1.98-5.79,2.64c-1.98,0.59-3.87,0.68-5.74,0.51
			c-1.8-0.17-3.61-0.9-5.29-1.66c-3.16-1.42-4.58-4.14-5.51-7.4c-0.91-3.17-0.99-6.38-0.58-9.46c0.65-4.89,2.53-9.32,7.57-11.48
			c0.32-0.14,0.6-0.4,1.03-0.69c2.34-0.25,4.92-1.02,7.34-0.66c2.19,0.33,4.18,1.9,5.99,2.79
			C139.25,251.31,139.73,255.51,139.16,260.16z M121.86,256.27c3.7,0.48,7.21-0.43,10.64,0.61c0-1.56,0-3.14,0-4.65
			c-2.74-4.56-5.39-4.49-9.57,0.04C122.55,253.67,122.23,254.88,121.86,256.27z"/>
		<path d="M140.86,218.05c2.33-1.18,4.29-2.17,6.59-3.33c0.07,1.38,0.13,2.45,0.2,3.8c-1.58,1.29-3.26,2.66-4.93,4.02
			c-1.68,0.11-3.44-0.35-4.95,0.77c-4.91,0-9.21-1.44-12.44-5.35c-0.23-2.24-1.85-4.07-1.8-6.4c0.05-2.13-0.03-4.26,0.02-6.39
			c0.11-5.12,3.2-10.87,9.5-12.78c3.09-0.94,5.93-0.72,8.79,0.14c3.22,0.97,6.37,5.61,6.5,9.17c0.07,1.86,0.01,3.72,0.01,5.71
			c-5.73,0-11.33,0-16.8,0c-0.49,0.49-1.08,0.8-1.15,1.2c-0.39,2.08,0.7,3.9,1.2,5.83c0.43,1.67,1.72,2.4,3.12,3.19
			c1.35,0.77,2.66,0.2,3.98,0.39C139.41,218.14,140.17,218.05,140.86,218.05z M141.72,203.71c-0.16-1.41-0.12-2.54-0.44-3.56
			c-0.34-1.09-1.01-2.07-1.54-3.1c-5.41-2.52-8.6,1.14-8.43,6.66C134.65,203.71,137.98,203.71,141.72,203.71z"/>
		<path d="M118.16,214.3c0,2.24,0,3.58,0,4.71c-1.18,0.96-2.29,1.86-3.33,2.69c-1.65,0.42-3.24,0.82-4.82,1.24
			c-0.1,0.03-0.18,0.25-0.27,0.25c-1.34,0.01-2.77,0.3-4-0.07c-2.65-0.79-5.57-0.9-7.73-3.08c-1.47-1.49-2.39-3.26-3.01-5.14
			c-1.19-3.59-1.16-9.81,0.31-14.21c1.23-3.67,3.26-6.16,6.87-7.55c3.78-1.46,7.47-2.26,11.19,0.08c0.28,0.18,0.77,0.08,0.99,0.29
			c1.27,1.2,2.49,2.46,4.02,3.99c0.27,3.04,0.56,6.39,0.87,9.9c-5.94,0-11.53,0-17.14,0c-0.39,0.43-1.06,0.87-1,1.16
			c0.6,2.94,0.17,6.28,2.95,8.43c0.54,0.42,1.23,0.65,1.83,0.95C110.23,218.65,114.21,217.72,118.16,214.3z M101.86,203.65
			c3.43,0,6.85,0,10.64,0c-0.42-2.12-0.8-4.05-1.16-5.91c-2.2-1.22-4.1-2.36-6.45-0.76C103.5,197.92,102.02,200.83,101.86,203.65z"
			/>
		<path d="M160.37,176.36c-1.94,1.49-1.95,1.51-3.81-0.07c0.59-3.41-1.28-6.69-0.71-10.15c-1.37-1.89-0.52-4.05-0.75-6.07
			c-1.41-12.52-0.57-25.08-0.71-37.62c-0.04-3.9,1.12-7.76,0.71-11.71c1.07-1.79,0.48-3.81,0.79-5.69c0.89-5.36,1.01-10.89,3-16.02
			c0.97-2.5,1.87-5.12,4.09-7.01c0.33,0.31,0.67,0.62,1.14,1.06c0,1.87,0,3.85,0,5.84c-1.72,1.47-0.14,3.68-1.31,5.5
			c-0.87,1.35-0.32,3.44-0.85,5.24c-1.29,4.45-2.13,9.03-2.35,13.69c-1.5,2.16-0.47,4.7-1.06,7.05c-0.59,2.34,0.06,4.99-0.53,7.32
			c-1.02,4.04-0.54,8.07-0.64,12.11c-0.1,4-0.1,8.01,0.01,12.02c0.06,2.03,0.56,4.04,0.69,6.08c0.13,2-0.39,4.12,0.11,5.98
			c0.98,3.67,0.79,7.54,2.15,11.12C160.51,175.43,160.37,175.97,160.37,176.36z"/>
		<path d="M172.44,61.35c0.44,0.42,0.8,0.76,1.32,1.26c0.55-0.44,1.32-0.77,1.61-1.34c1.1-2.16,1.99-4.44,3.06-6.61
			c0.98-1.99,2.11-3.9,3.55-6.54c0.1,1.46,0.36,2.22,0.16,2.82c-1.16,3.55-1.52,7.29-2.91,10.81c-1.43,3.62-2.99,7.06-5.35,10.2
			c-1.41,1.88-2.97,3.55-4.58,5.22c-1.24,1.29-2.7,1.97-4.83,1.76c-0.51-0.51-1.26-1.16-1.88-1.91c-0.52-0.63-0.88-1.38-1.28-2.03
			c-0.84-6.03,0.08-11.74,2.57-17.24c2.23-4.93,5.65-8.94,9.59-12.54c0.18-0.17,0.65-0.02,1.13-0.02c-2.1,4.02-4.08,7.91-6.16,11.75
			c-0.8,1.47-0.92,2.72,0.7,4.06c2.87-4.86,5.39-9.91,9.25-15.13c0.09,3.77-2.02,5.8-2.75,8.32
			C174.91,56.69,173.53,58.99,172.44,61.35z"/>
		<path d="M214.37,237.58c-1.22,0-2.31,0-3.69,0c-0.3-0.89-0.59-1.75-0.84-2.47c1.9-1.6,3.91-1.14,5.81-1.29
			c1.77-0.15,3.52-0.52,5.46-0.82c0,12.52,0,24.89,0,36.5c0.82,2.54,2.5,1.68,3.8,2.08c0,0.86,0,1.69,0,2.64
			c-4.67,1.86-9.66,0.58-14.72,1.09c-0.31-1.39-0.59-2.64,0.85-3.76c0.91-0.45,2.44,0.51,3.32-1.29
			C214.37,259.71,214.37,248.85,214.37,237.58z"/>
		<path d="M135.56,109.74c0-2.46-0.1-5.1,0.04-7.72c0.08-1.53-0.49-3.07,0.58-4.65c0.81-1.2-0.04-2.92,0.72-4.57
			c0.76-1.66,0.17-3.93,0.17-5.94c0.35-0.35,0.71-0.7,1.07-1.05c0.08,0.04,0.25,0.08,0.25,0.12c0.01,2.48,0.01,4.96,0.01,7.41
			c0.85,1.15,1.5,2.31,2.41,3.22c2.91,2.9,5.86,5.74,6.88,9.93c2.88,1.36,2.22,4.44,2.72,6.66c0.52,2.31,0.85,5.05-0.47,7.58
			c-0.51,0.98-0.08,2.46-0.08,3.72c-0.35,0.35-0.71,0.7-1.23,1.22C141.81,122.66,138.63,116.54,135.56,109.74z"/>
		<path d="M153.5,75.69c-0.27,0.27-0.45,0.45-0.71,0.71c0.48,0.16,0.9,0.3,1.26,0.42c1.53,4.3,0.96,8.73,1.07,13.04
			c-1.62,1.55-1.58,3.5-1.94,5.57c-0.17-0.41-0.34-0.82-0.52-1.25c-0.33,0.91-0.28,1.9,0.18,3.24c-3.11-0.09-3.72-3.43-6.01-4.59
			c0-0.49,0-0.99,0-1.49c-1.18-0.57-2.44-0.92-2.34-2.77c0.04-0.73-2.06-0.8-1.41-2.31c-1.74-4.03-1.55-8.29-1.5-12.53
			c1.67-3.16,1.13-6.91,2.82-10.11c0.76-1.44,0.77-3.29,1.29-5.81c1.01,9.05,0.39,7.35,5.53,13.11c-0.24,0.65-0.45,1.23-0.91,2.5
			c0.87-0.73,1.12-0.95,1.41-1.19C152.29,73.34,152.86,74.45,153.5,75.69z"/>
		<path d="M137.99,126.2c1.07,1.04,1.96,1.9,2.98,2.89c0,0.49,0,1.08,0,1.97c0.74-0.34,1.24-0.58,1.83-0.85
			c0.23,0.22,0.58,0.55,0.88,0.84c-0.23,0.6-0.46,1.18-0.96,2.48c0.89-0.67,1.13-0.85,1.37-1.03c0.51,0.55,1.05,1.13,1.96,2.11
			c0.01,0.24,0.06,1.08,0.1,2.02c0.3,0.09,0.64,0.19,1.06,0.31c1.07,2.9,2.32,5.85,1.93,9.19c-0.07,0.62,0.4,1.31,0.68,2.12
			c-1.24,1.31-0.57,3.09-0.75,5.01c-4.24,0.78-6.42-2.88-9.64-4.79c-0.48-0.98-0.64-2.54-2.38-2.95c0.32-0.32,0.49-0.49,0.84-0.84
			c-0.47-0.16-0.84-0.29-1.31-0.46c-0.4-1.34-0.82-2.78-1.29-4.34c-0.28,0.22-0.53,0.42-0.9,0.71c-0.37-1.44-0.77-2.85-1.07-4.27
			c-0.31-1.51-0.61-3.03-0.74-4.57c-0.12-1.49-0.03-3-0.03-4.5c0-1.63-0.09-3.26,0.03-4.88c0.11-1.54-0.63-3.22,0.6-4.65
			c-0.25-0.44-0.51-0.92-0.91-1.61c0.64-0.16,1.06-0.27,1.82-0.46c-0.18,3.83-0.12,7.43,2.38,10.54
			C137.01,126.2,137.59,126.2,137.99,126.2z"/>
		<path d="M172.8,121.79c-0.18-0.16-0.35-0.32-0.79-0.72c-0.73,1.2-1.25,2.6-2.82,3.02c-2.12,0.57-3.73,2.57-6.28,2.2
			c-1.22-4.51,0.66-8.75,1.36-13.15c2.21-0.78,1.9-3.87,4.59-5.02c0.05,0,0.64,0,1.41,0c-0.39-0.44-0.61-0.7-0.84-0.96
			c1.27-0.79,2.54-1.59,3.83-2.38c0.6-0.36,1.25-1.02,1.82-0.97c3.36,0.32,4.97-2.18,6.58-3.7c0.86-2.05,1.53-3.65,2.54-6.09
			c0.1,1.65,0.49,2.68,0.14,3.32c-0.92,1.71-0.94,3.62-1.54,5.38c-0.56,1.64-1.22,3.25-1.84,4.87c-0.08,0.22-0.29,0.42-0.29,0.62
			c0.04,4.81-2.85,8.13-5.77,11.44C174.26,120.41,173.51,121.08,172.8,121.79z"/>
		<path d="M175.1,127.9c0.32,0.32,0.5,0.5,0.68,0.68c0.73-1.58,2.6-2.31,2.74-4.46c0.12-1.78,1.13-3.5,1.83-5.47
			c1.04,2.72-0.21,5.11-0.72,7.44c-0.2,0.92-0.51,1.88-0.42,2.79c0.45,4.77-1.33,8.99-3.4,13.94c-0.38,0.08-0.72,0.15-1.09,0.23
			c0,0.59,0,1.07,0,1.66c-1.56,1.56-3.08,3.23-4.75,4.71c-2.03,1.8-4.42,3.04-6.99,4.15c0.18-1.83-0.55-3.38-0.38-5.05
			c0.18-1.74-0.07-3.51,0.06-5.26c0.35-4.49,2.16-8.25,5.92-10.9C170.7,130.85,172.87,129.41,175.1,127.9z"/>
		<path d="M166.15,101.02c0.42-3.59,0.77-6.59,1.14-9.77c1.74-0.71,1.52-2.91,2.58-4.38c1.38-1.91,3.14-3.16,4.84-4.57
			c1.86-1.54,3.92-2.36,6.41-2.74c1.95-0.29,4.27-0.37,5.88-2.04c1.5-1.56,3.26-2.92,3.6-5.88c0.68,1.3,0.75,1.93,0.32,2.73
			c-2.37,4.39-4.14,9.03-5.83,13.73c-0.29,0.8-1.67,1.56-2,2.48c-0.43,1.19-1,1.83-2.17,2.04c-1.61,3.23-5.03,3.93-7.81,5.48
			c-1.6,0.89-3.47,1.27-5.2,1.92C167.48,100.18,167.11,100.47,166.15,101.02z"/>
		<path d="M222.03,104.52c0-1.66,0-2.91,0-4.17c1-1.58,1.84-3.3,3.04-4.72c1.6-1.9,3.06-3.89,5.33-5.25
			c2.21-1.32,4.32-2.77,6.77-3.63c1.7-0.6,3.29-0.35,4.95,0.82c1.16,2.59,1.1,2.78-0.33,5.87c-1.52,3.3-4.01,5.79-6.71,8.04
			c-1.69,1.41-3.69,2.51-5.67,3.49c-1.23,0.61-2.71,1.01-4.06,0.97C224.28,105.91,223.23,105.07,222.03,104.52z"/>
		<path d="M220.55,106.14c-0.21,1.43-0.08,2.34-0.46,2.88c-1.68,2.34-3.52,4.56-5.27,6.85c-3.16,4.13-6.29,8.27-8.63,12.96
			c-1.14,2.28-2.66,4.36-3.63,6.77c-2.21,5.52-4.33,11.05-5.42,16.94c-0.21,1.14-0.79,2.21-0.71,3.46c0.08,1.19-0.99,2.14-0.79,3.46
			c0.06,0.43-0.63,0.97-1.04,1.55c-0.36-0.45-0.67-0.82-1.03-1.26c0.19-1.01,0.39-2.15,0.63-3.28c0.22-1.03,0.46-2.06,0.75-3.07
			c1.33-4.58,2.44-9.2,4.12-13.7c1.51-4.02,3.48-7.83,4.97-11.86c1-2.7,2.61-5.22,4.22-7.64c1.77-2.66,3.45-5.39,5.34-7.99
			C215.42,109.76,217.72,108.32,220.55,106.14z"/>
		<path d="M224.91,295.93c1.34,0.42,2.19,0.69,3.04,0.96c0,5.15,0,9.99,0,14.84c-0.12-0.12-0.23-0.25-0.35-0.37
			c-0.23,0.6-0.47,1.2-0.67,1.73c-4.65-2.79-5.99-7.9-9.99-10.9c-0.36,1.75-0.13,3.47-0.17,5.16c-0.04,1.73-0.01,3.47-0.01,5.32
			c-0.72,0-1.31,0-2,0c-0.25-0.25-0.6-0.6-0.98-0.98c0-4.72,0-9.47,0-14.22c0.36-0.45,0.74-0.91,1.24-1.53
			c4.28,3.16,6.34,7.91,9.88,11.81C224.91,303.81,224.91,300.22,224.91,295.93z"/>
		<path d="M146.22,296.21c4.3,0.23,8.68-0.88,12.62,2.95c0.26,0.5,0.84,1.65,1.53,3c0,1.48,0,3.23,0,4.75
			c-0.32,0.6-0.57,1-0.75,1.43c-1.26,3.13-3.79,4.3-6.94,4.43c-2.11,0.09-4.23,0.02-6.47,0.02
			C146.22,307.33,146.22,301.98,146.22,296.21z M156.5,300.33c-1.02-0.52-2.16-1.1-3.49-1.79c-1.14,0.14-2.77-0.66-3.73,0.87
			c0,3.78,0,7.45,0,11.12c3.29,0,6.49,0.22,8.1-3.58C157.17,304.9,157.9,302.53,156.5,300.33z"/>
		<path d="M186.69,301.89c-0.7,0.7-1.41,1.4-2.28,2.27c0.64,0.46,1.24,0.9,2.28,1.65c0.23,0.81,0.61,2.15,0.98,3.47
			c-0.71,0.67-1.27,1.16-1.79,1.7c-1.24,1.27-2.67,1.93-4.49,1.84c-1.87-0.1-3.74-0.02-5.79-0.02c0-5.43,0-10.86,0-16.55
			c3.83,0.24,7.99-1.01,11.1,2.66C186.69,299.88,186.69,300.88,186.69,301.89z M178.49,310.53c1.55,0,2.8,0,4.07,0
			c0.83-0.99,2.3-1.64,1.87-3.32c-0.64-0.64-1.25-1.25-1.83-1.83c-1.35,0-2.7,0-4.11,0C178.49,307.08,178.49,308.67,178.49,310.53z
			 M178.53,298.3c0,2.18,0,3.76,0,5.3c1.96,0.52,3.6,0.04,5.03-0.89c0-1.17,0-2.25,0-3.55C181.89,298.87,180.3,298.6,178.53,298.3z"
			/>
		<path d="M117.52,301.48c0,2.01,0,4.13,0,6.25c-1.36,1.96-2.8,3.83-5.52,5.21c-1.91-0.21-4.43-0.49-6.35-0.71
			c-3.13-2-4.04-4.69-4.39-8.16c0.76-1.72,0.49-4.77,3.09-6.23c2.31-1.31,4.84-2.1,6.71-1.65
			C114.3,297.23,116.06,298.89,117.52,301.48z M106.04,299.5c-0.73,1.8-1.42,3.5-1.87,4.61c0.33,1.7,0.55,2.83,0.81,4.2
			c0.92,0.64,1.98,1.4,3.04,2.14c3.06,0.46,5.42-0.34,6.48-3.58c0-4.99,0-4.99-1.72-7.45C111.18,299.07,108.06,299.07,106.04,299.5z
			"/>
		<path d="M135.89,311.86c-5.25,2.03-9.42,0.91-12.36-4.22c0-0.85,0.1-1.99-0.02-3.1c-0.46-4.4,3.31-8.8,8.41-8.31
			c0.5,0.05,1,0.01,1.61,0.01c1.68,1.41,4.45,1.48,5.24,4.28c0.44,1.57,1.7,3.08,1.23,4.69
			C139.28,307.7,138.58,310.34,135.89,311.86z M134.53,299.35c-1.33-0.29-2.64-0.92-3.83-0.75c-1.17,0.17-2.22,1.17-3.24,1.75
			c-0.28,0.54-0.55,1.06-0.9,1.75c0.1,3.03-1.03,6.76,3.74,8.39c3.44,0.03,3.48,0.01,5.71-2.54c0.43-1.53,0.74-2.66,1.05-3.78
			c-1.17-0.78-0.64-1.99-0.75-3.04C135.7,300.52,135.08,299.9,134.53,299.35z"/>
		<path d="M217.73,89.5c-0.42,1.45-0.59,2.04-0.78,2.72c1.83,3.66-0.55,7.42-0.28,10.55c-0.54,2.57-2.4,3.76-3.34,6.24
			c-0.9,0.71-1.82,2.39-3.68,3.24c-0.68-2.15-1.36-4.1-1.88-6.1c-0.13-0.49,0.25-1.12,0.4-1.68c0.35-1.35,0.7-2.71,1.07-4.05
			c0.12-0.44,0.27-0.9,0.52-1.28c1.03-1.58,2-3.21,3.19-4.66C214.22,92.94,215.7,91.6,217.73,89.5z"/>
		<path d="M194.01,144.62c-1.57-1.87-3.05-3.42-4.23-5.16c-0.39-0.58-0.59-1.58-0.71-2.28c-0.35-1.93-0.15-3.97-0.09-5.96
			c0.01-0.27,0.46-0.52,0.69-0.77c-0.26-0.29-0.5-0.56-0.84-0.95c1.09-2.5,2.2-5.03,3.5-8c0.53,1.83,0.41,3.46,1.41,4.75
			c0.77,1.01,1.6,2.11,1.93,3.3c0.64,2.31,1.3,4.74,0.76,7.14C195.84,139.28,194.89,141.78,194.01,144.62z"/>
		<path d="M200.9,127.04c-0.85-0.38-1.37-0.62-2.11-0.96c0.45-2-1.78-3.31-1.61-5.48c0.15-1.98,0.03-3.98,0.03-6.03
			c0.45-0.16,0.88-0.31,1.57-0.55c-0.17-0.5-0.34-1-0.6-1.74c0.67-1.11,1.49-2.47,2.33-3.84c0.29,0.14,0.63,0.31,1.37,0.68
			c-0.26-0.83-0.42-1.34-0.52-1.65c0.52-0.63,1.09-1.32,1.69-2.04c0.11,1.07,0.12,2.29,0.41,3.42c0.25,0.99,1.13,1.87,1.2,2.84
			c0.18,2.48,0.43,5.06-0.05,7.45c-0.42,2.08-1.09,4.29-2.75,5.96C201.41,125.57,201.25,126.33,200.9,127.04z"/>
		<path d="M239.22,304.46c-0.51,1.1-0.78,1.67-1.04,2.25c-0.15-0.11-0.31-0.22-0.46-0.33c0,2.09,0,4.19,0,6.62
			c-1.07-0.31-1.92-0.55-2.8-0.8c0-5.15,0-10,0-15.16c0.66-0.29,1.5-0.67,2.58-1.15c0.68,2.48,0.03,4.72,0.42,6.88
			c1.65,0.91,2.75-0.27,3.28-1.36c1.08-2.2,3.1-3.42,4.49-5.18c0.7,0.04,1.28,0.07,1.91,0.11c-0.39,3.74-4.39,4.7-5.06,8.03
			c2.33,2.15,3.83,5.27,6.05,7.79c-0.43,0.43-0.51,0.59-0.6,0.59c-0.74,0.02-1.49,0.01-2.46,0.01
			C243.68,310.31,241.72,307.74,239.22,304.46z"/>
		<path d="M208.07,312.79c-0.99,0-1.36,0.02-1.72-0.01c-0.23-0.02-0.45-0.11-0.83-0.22c-0.76-1.33-1.58-2.75-2.34-4.07
			c-2.37-0.76-4.39,0.2-6.46,0.71c-0.4,1.16-0.81,2.36-1.19,3.47c-0.99,0-1.83,0-3.09,0c2.2-5.58,4.3-10.92,6.43-16.34
			c0.86,0,1.7,0,2.88,0C203.73,301.61,206.26,306.81,208.07,312.79z M197.64,306.64c2.05,0,3.39,0,4.68,0
			c0.8-2.67-1.61-4.28-2.1-6.63C199.39,302.14,198.57,304.26,197.64,306.64z"/>
		<path d="M215.08,131.47c-2.28,0-4.37,0-6.75,0c1.19-3.32,3.23-5.74,5.64-7.96c3.42-0.53,6.91-2.13,10.31,0.22
			C222.67,126.58,221.52,127.54,215.08,131.47z"/>
		<path d="M207.91,136.93c2.94-0.82,5.6-1.96,8.72-1.49c0.03,0.37,0.07,0.8,0.13,1.44c-0.58-0.3-0.92-0.47-1.63-0.84
			c0.22,0.79,0.36,1.29,0.57,2.08c-0.15,0.5-0.39,1.34-0.7,2.39c-1.92,1.78-3.57,4.5-6.94,3.86c-1.24,2.12-1.87,2.34-5.56,2.03
			c-0.21-2.62,1.4-4.46,2.72-6.43c0.18,0.44,0.35,0.87,0.62,1.53c0.55-0.75,1.04-1.42,1.86-2.55
			C207.73,138.7,207.82,137.77,207.91,136.93z"/>
		<path d="M233.3,114.74c-1.17-0.18-2.03-0.31-2.89-0.44c-0.03,0.13-0.06,0.26-0.08,0.39c0.49,0.23,0.97,0.47,1.4,0.67
			c-2.46,2.53-5.81,2.89-9.02,3.38c-1.01,0.15-2.18-0.68-3.51-1.15c0.03-0.02-0.22,0.18-0.54,0.43c-0.31-0.29-0.65-0.6-1.14-1.05
			c1.05-1.39,2.1-2.79,3.13-4.16c0.8,0,1.41,0,2.03,0c0.48,0,0.95,0,1.43,0c0.04-0.15,0.08-0.3,0.13-0.44
			c-0.43-0.18-0.85-0.35-1.28-0.53c1.33-0.45,1.33-0.45,2.59,0.21c0.16-0.45,0.31-0.88,0.53-1.48c2.72-0.17,5.18,1.2,7.79,1.63
			C234.54,113.49,233.82,114.3,233.3,114.74z"/>
		<path d="M86.06,296.32c3.18,0,6.27,0,9.5,0c0,0.58,0,1.16,0,2c-1.96,0.55-4.19-0.11-6.48,0.3c0,1.65,0,3.32,0,5.12
			c1.92,0,3.76,0,5.74,0c0,0.71,0,1.29,0,2.14c-1.77,0-3.7,0-5.75,0c0,2.33,0,4.42,0,6.77c-1.04,0.06-1.96,0.11-3.01,0.17
			C86.06,307.24,86.06,301.82,86.06,296.32z"/>
	</g>
</g>
</svg>
