<?xml version="1.0" encoding="utf-8"?>
<!-- Generator: Adobe Illustrator 27.4.1, SVG Export Plug-In . SVG Version: 6.00 Build 0)  -->
<svg version="1.1" id="Layer_1" xmlns="http://www.w3.org/2000/svg" xmlns:xlink="http://www.w3.org/1999/xlink" x="0px" y="0px"
	 viewBox="0 0 360 360" style="enable-background:new 0 0 360 360;" xml:space="preserve">
<style type="text/css">
	.st0{fill:#FDBA16;}
	.st1{fill:#FD8E02;}
	.st2{fill:#FFFFFF;}
</style>
<g>
	<ellipse class="st0" cx="139.69" cy="179.44" rx="46.51" ry="43.78"/>
	<g>
		<g>
			<path class="st1" d="M142.95,135.99c20.2,0,44.12-2.58,68.04-2.58c26.93,0,35.38,7.16,35.38,18.91c0,8.88-8.02,14.04-15.76,15.18
				c-3.72,0.57-6.16,1.72-6.16,3.87c0,2.44,2.43,3.58,6.16,3.58c14.61,0,22.92,8.45,22.92,21.77c0,16.04-14.9,26.64-38.25,26.64
				c-20.34,0-31.23-1.43-42.69-1.43c-11.03,0-21.49,0.29-29.65,1.43C147.1,191.71,147.1,159.48,142.95,135.99z M196.23,197.44
				c3.87,0,6.73-4.15,6.73-9.02c0-6.16-2.86-10.89-6.73-10.89c-4.15,0-6.45,4.73-6.45,10.89
				C189.79,193.28,192.08,197.44,196.23,197.44z M196.23,166.21c4.44,0,6.3-3.44,6.3-8.02c0-5.16-1.86-9.6-6.3-9.6
				c-4.58,0-6.02,4.44-6.02,9.6C190.22,162.77,191.65,166.21,196.23,166.21z"/>
		</g>
	</g>
	<path class="st0" d="M88.01,178.79l0.07-2.48l-38.99-8.92c-1.79-0.41-3.6,0.62-3.6,2.05v13.95c0,1.37,1.66,2.39,3.41,2.09
		L88.01,178.79z"/>
	<path class="st0" d="M135.66,226.71l-2.48-0.07l-8.92,38.99c-0.41,1.79,0.62,3.6,2.05,3.6h13.95c1.37,0,2.39-1.66,2.09-3.41
		L135.66,226.71z"/>
	<path class="st0" d="M131.62,132.33l2.48,0.07l8.92-38.99c0.41-1.79-0.62-3.6-2.05-3.6h-13.95c-1.37,0-2.39,1.66-2.09,3.41
		L131.62,132.33z"/>
	<path class="st0" d="M102.34,213.49l-1.6-1.89l-34.99,19.38c-1.61,0.89-2.27,2.86-1.31,3.93l9.31,10.39
		c0.91,1.02,2.83,0.67,3.93-0.72L102.34,213.49z"/>
	<path class="st0" d="M97.89,149.58l1.97-1.5L82.39,112.1c-0.8-1.66-2.74-2.42-3.85-1.52l-10.87,8.74
		c-1.07,0.86-0.82,2.79,0.51,3.96L97.89,149.58z"/>
	<g>
		<path class="st2" d="M102.85,189.63c0-1.39,1.16-2.01,2.82-2.01c1.95,0,4.38,0.15,5.48,0l-0.07,3.24
			c-1.07-0.71-2.31-1.01-2.97-1.01c-0.6,0-0.91,0.07-0.91,0.32c0,0.86,4.1-0.12,4.1,2.72c0,1.51-0.94,2.67-3.09,2.67
			c-1.75,0-3.76-0.2-5.47-0.05l0.07-4.09c0.98,0.57,2.31,0.91,3.06,0.91c0.65,0,1.02-0.11,1.02-0.41
			C106.89,191.09,102.85,192.17,102.85,189.63z"/>
		<path class="st2" d="M113.11,187.86h4.87c-0.17,1.07-0.26,2.07-0.26,2.52c0,0.73,0.24,1.12,0.6,1.12c0.37,0,0.61-0.38,0.61-1.12
			c0-0.45-0.09-1.45-0.26-2.52h4.15c-0.37,1.74-0.21,3.43-0.21,4.42c0,2.26-1.76,3.28-4.74,3.28c-3.13,0-4.53-0.84-4.53-3.11
			C113.33,191.47,113.49,189.6,113.11,187.86z"/>
		<path class="st2" d="M124.86,187.86h2.52c1.45,0,2.76,1.1,2.88,2.83c0.04,0.52,0.11,1.3,0.62,1.3c0.88,0-0.17-2.89-0.43-4.14h4.11
			c-0.37,2.11-0.37,4.59,0,7.45h-4.78c-0.1-1.75,0.04-3.85-0.63-3.85c-0.78,0-0.52,2.16-0.05,3.85h-4.53
			C125.11,193.21,125.19,189.95,124.86,187.86z"/>
		<path class="st2" d="M136.58,189.63c0-1.39,1.16-2.01,2.82-2.01c1.95,0,4.38,0.15,5.48,0l-0.07,3.24
			c-1.07-0.71-2.31-1.01-2.97-1.01c-0.6,0-0.91,0.07-0.91,0.32c0,0.86,4.1-0.12,4.1,2.72c0,1.51-0.94,2.67-3.09,2.67
			c-1.75,0-3.76-0.2-5.47-0.05l0.07-4.09c0.98,0.57,2.31,0.91,3.06,0.91c0.65,0,1.02-0.11,1.02-0.41
			C140.61,191.09,136.58,192.17,136.58,189.63z"/>
		<path class="st2" d="M146.93,187.86h4.41c-0.17,0.82-0.26,1.45-0.26,1.78c0,0.61,0.24,0.99,0.6,0.99c0.37,0,0.61-0.38,0.61-0.99
			c0-0.32-0.09-0.96-0.26-1.78h4.41c-0.37,2.11-0.37,4.59,0,7.45h-4.41c0.19-1.18,0.27-2.05,0.27-2.48c0-0.61-0.25-0.99-0.62-0.99
			c-0.37,0-0.61,0.38-0.61,0.99c0,0.43,0.11,1.3,0.27,2.48h-4.41C147.3,192.46,147.3,189.98,146.93,187.86z"/>
		<path class="st2" d="M162.92,195.32h-4.66c0.37-2.86,0.37-5.34,0-7.45h4.66C162.55,189.98,162.55,192.46,162.92,195.32z"/>
		<path class="st2" d="M165.05,187.86h2.52c1.45,0,2.76,1.1,2.88,2.83c0.04,0.52,0.11,1.3,0.62,1.3c0.88,0-0.17-2.89-0.43-4.14h4.11
			c-0.37,2.11-0.37,4.59,0,7.45h-4.78c-0.1-1.75,0.04-3.85-0.63-3.85c-0.78,0-0.52,2.16-0.05,3.85h-4.53
			C165.3,193.21,165.39,189.95,165.05,187.86z"/>
		<path class="st2" d="M176.59,187.86h8.59l-0.17,2.22c-0.87-0.29-2.26-0.43-3.25-0.43c-0.78,0-1.03,0.16-1.03,0.48
			c0,0.25,0.2,0.38,0.51,0.38c0.5,0,2.09-0.22,3.14-0.22v1.73c-1.19,0-2.7-0.17-3.22-0.17c-0.26,0-0.42,0.15-0.42,0.39
			c0,0.31,0.22,0.46,1.14,0.46c0.87,0,2.31-0.15,3.3-0.4l0.27,3.02h-8.87C176.96,192.46,176.96,189.98,176.59,187.86z"/>
	</g>
	<g>
		<g>
			<path class="st1" d="M260.99,212.83l-0.05-0.52c-0.52,0.45-1.19,0.7-1.94,0.7c-1.62,0-2.87-1.2-2.87-2.77s1.24-2.77,2.9-2.77
				c0.72,0,1.32,0.26,1.8,0.64v-0.4c0-0.93-0.43-1.41-1.67-1.41c-0.65,0-1.25,0.14-1.86,0.34l0.24-1.39
				c0.64-0.19,1.24-0.28,1.86-0.28c2.01,0,3.08,0.91,3.08,2.61v3.78l0.07,1.44H260.99z M260.92,210.24c0-0.84-0.7-1.5-1.58-1.5
				c-0.88,0-1.56,0.65-1.56,1.5s0.69,1.48,1.56,1.48C260.23,211.71,260.92,211.06,260.92,210.24z"/>
			<path class="st1" d="M269.65,212.83l-2.87-3.75v3.75h-1.74v-12.2l1.74-0.26v8.23l2.73-3.45h2.13l-3.08,3.68l3.23,4H269.65z"/>
			<path class="st1" d="M280.91,210.27l0.57,1.39c-0.95,0.86-2.15,1.36-3.44,1.36c-2.41,0-4.16-1.75-4.16-4.02
				c0-2.27,1.77-4.04,4.09-4.04c1.94,0,3.49,1.27,3.73,3.4l-5.95,1.92c0.41,0.79,1.22,1.32,2.3,1.32
				C279.05,211.61,280.02,211.2,280.91,210.27z M275.46,208.93l4.42-1.44c-0.33-0.7-1.05-1.13-1.91-1.13
				C276.58,206.35,275.52,207.47,275.46,208.93z"/>
			<path class="st1" d="M288.04,205.01v1.63c-1.62,0-2.47,0.77-2.47,2.41v3.78h-1.74v-7.56l1.63-0.24v1.27
				C285.97,205.46,286.81,205.01,288.04,205.01z"/>
			<path class="st1" d="M298.34,205.15l-5.36,11.55h-1.87l2.32-4.64l-3.16-6.91h1.87l2.17,5.09l2.17-5.09H298.34z"/>
		</g>
	</g>
</g>
</svg>
