<?xml version="1.0" encoding="utf-8"?>
<!-- Generator: Adobe Illustrator 27.4.1, SVG Export Plug-In . SVG Version: 6.00 Build 0)  -->
<svg version="1.1" id="Layer_1" xmlns="http://www.w3.org/2000/svg" xmlns:xlink="http://www.w3.org/1999/xlink" x="0px" y="0px"
	 viewBox="0 0 360 360" style="enable-background:new 0 0 360 360;" xml:space="preserve">
<style type="text/css">
	.st0{fill:#F26355;}
	.st1{fill:#36B3C5;}
	.st2{fill:#3197A6;}
	.st3{fill:#CA5146;}
	.st4{fill:#D09D2A;}
	.st5{fill:#D19D2A;}
	.st6{fill:#E2AB1F;}
	.st7{fill:#C087BC;}
	.st8{fill:#BDD237;}
	.st9{fill:#9BAE3A;}
	.st10{fill:#FDBE0F;}
	.st11{fill:#A0739E;}
	.st12{fill:#BDD238;}
	.st13{fill:#636466;}
	.st14{fill:#DA594D;}
	.st15{fill:#3398A9;}
	.st16{fill:#D19D2B;}
	.st17{fill:#646467;}
	.st18{fill:#A27A9E;}
	.st19{fill:#795D5B;}
	.st20{fill:#986C96;}
	.st21{fill:#F9FCF1;}
	.st22{fill:#349BAB;}
	.st23{fill:#626466;}
	.st24{fill:#8F7D43;}
</style>
<g>
	<g>
		<path class="st0" d="M271.86,217.78c-0.02,0.92-0.16,1.81-0.72,2.59c-0.98,1.7-1.41,3.66-2.59,5.26
			c-0.51-0.31-1.07-0.37-1.65-0.34c-4.57-7.46-8.95-15.04-13.84-22.29c-0.68-1.01-1.08-2.4-2.45-2.87
			c-0.49-2.17-1.93-3.84-3.22-5.52c-0.94-1.24-1.36-2.97-3-3.65c-0.12-0.53-0.37-0.99-0.7-1.43c-1.24-1.67-2.45-3.36-3.68-5.04
			c0.7-0.02,1.53,0.08,1.79-0.76c0.16-0.53-0.21-1.12-0.64-1.41c-1.27-0.87-2.57-1.71-3.94-2.41c-0.62-0.32-0.3,0.44-0.44,0.69
			c-2.48-2.43-5.12-4.72-7.19-7.55c0-0.4,0.2-0.71,0.48-0.99c0.36-0.36,0.67-0.78,0.4-1.28c-0.33-0.61-0.95-0.36-1.45-0.31
			c-0.42,0.04-0.83,0.24-1.08,0.64c-1.81-2.04-3.09-4.41-3.82-6.98c-0.89-3.14-0.81-6.21,2.2-8.42c-0.2,0.88-0.23,1.77,0.58,2.33
			c0.8,0.55,1.47-0.16,2-0.57c1.21-0.95,2.58-1.51,3.95-2.13c0.78-0.35,1.45-0.92,1.65-1.85c0.46-0.03,0.96-0.24,1.32,0.26
			c-0.02,0.22,0.04,0.48-0.06,0.64c-0.83,1.27-0.11,1.64,1,1.97c1.25,0.37,2.45,0.88,3.66,1.35c1.91,0.73,3.75,0.36,4.89-1.01
			c0.65,0.32,1.3,0.65,1.95,0.97c0.26,1.51,1.44,2.31,2.57,3.05c0.73,0.48,1,0.96,1.05,1.81c0.14,2.23,0.47,4.39,3.35,4.75
			c0.27,0.03,0.55,0.35,0.75,0.59c0.87,1.06,1.54,2.32,3.14,2.54c0.32,0.04,0.74,0.58,0.82,0.94c0.36,1.77,1.61,2.69,3.04,3.52
			c0.8,0.47,1.58,1,1.64,2.07c0.03,0.45,0.35,0.62,0.66,0.85c1.19,0.88,1.64,2.13,1.51,3.53c-0.05,0.56-0.01,0.9,0.39,1.27
			c1.35,1.25,2.04,2.82,2.01,4.66c-0.02,1.01,0.28,1.88,0.65,2.81c0.77,1.93,2.08,3.65,2.05,5.92c-0.02,1.33,1.06,0.76,1.66,0.43
			c0.38-0.21,0.57-0.76,0.85-1.15c0.67,3.8,1.04,7.61,0.39,11.46c-0.07,0.42,0.02,0.86,0.04,1.29c0,0.33,0,0.65,0,0.98
			c-0.17,0.65-0.57,1.26-0.31,1.98C272.96,213.22,272.41,215.5,271.86,217.78z"/>
		<path class="st1" d="M205.76,93.64c2.79-0.58,5.56-1.22,8.37-1.71c1.43-0.25,2.91-0.22,4.37-0.31c1.98,0.21,3.98,0.12,5.97,0.31
			c4.44,0.42,8.78,1.18,12.97,2.71c4.73,1.72,9.22,3.89,13.13,7.13c-0.76,2.37-0.5,3.18,1.58,4.2c0.67,0.33,1.27,0.56,1.35,1.39
			c-0.85-0.7-2.13-0.7-2.78-1.79c-0.19-0.31-0.87-0.29-1.08,0.23c-0.28,0.69-0.84,0.6-1.37,0.58c-0.74-0.03-1.39,0.15-2,0.56
			c-1.25,0.84-2.6,0.97-4.04,0.54c-0.43-0.13-0.95-0.53-1.36-0.04c-1.28,1.51-3.21,1.5-4.87,2.05c-1.44,0.48-2.96,0.75-4.58,0.01
			c-1.8-0.82-4.3-0.05-4.55,1.24c-0.37,1.9-1.42,1.61-2.76,1.29c-1.77-0.43-3.78-0.18-5.19,0.57c-3.01,1.58-6.03,2.84-9.4,3.26
			c-0.39,0.05-0.71,0.26-1.05,0.36c-1.72,0.49-3.19,1.7-4.83,2.12c-1.97,0.51-3.9,0.75-5.32,2.37c-0.17,0.19-0.47,0.35-0.72,0.36
			c-2.63,0.14-4.4,2.14-6.62,3.15c-3.48,1.59-6.86,1.23-10.36,0.73c-0.63-0.09-1.44-0.42-1.31-1.21c0.25-1.45-1.54-3.26,0.74-4.36
			c0.1-0.05,0.18-0.3,0.16-0.44c-0.26-1.78,0.87-3.06,1.62-4.48c0.15-0.29,0.42-0.55,0.17-0.87c-1.06-1.37,0.24-1.32,0.96-1.61
			c0.47-0.19,1.19,0.23,1.45-0.44c1.01-2.58,3.08-4.19,5.17-5.79c0.34-0.26,0.74-0.45,1.14-0.62c2.15-0.92,3.97-2.33,5.79-3.74
			c0.33-0.26,0.54-0.75,0.09-0.94c-1.05-0.45-0.99-1.61-1.65-2.27C198.3,96.09,202.11,95.05,205.76,93.64z"/>
		<path class="st2" d="M261.39,139.04c-0.56,2.93-1.07,5.86-1.82,8.75c-1.04,4.01-2.36,7.92-3.82,11.79
			c-0.73,0.72-0.68,1.83-1.32,2.6c-0.41-0.32-0.82-0.65-1.23-0.97c0.42-0.71,0.36-1.48,0.21-2.22c-1.39-6.7-3.78-13.07-6.92-19.13
			c-5.08-9.78-12.2-17.88-20.81-24.71c0.31-0.34,0.71-0.49,1.13-0.6c2.57-0.66,5.13-1.36,7.71-1.97c6.53-1.55,13.07-3.06,19.61-4.58
			c0.67-0.23,1.35-0.46,2.02-0.69c1.68,0.33,1.84,2.08,2.86,3.02c1.99,4.84,3.11,9.84,2.99,15.11c-0.08,3.56,0.12,7.12-0.28,10.67
			C261.59,137.09,261.12,138.02,261.39,139.04z"/>
		<path class="st3" d="M297.37,226.28c0.02,0.38,0.31,0.54,0.59,0.69c0.97,1.18,1.66,2.53,2.36,3.87c0.51,1.32,1.03,2.63,1.54,3.95
			c-0.06,0.33-0.43,0.58-0.24,0.96c0.35,0.5,0.23,1.09,0.33,1.63c-0.15,0.32-0.52,0.57-0.31,1c-0.22,0.98-0.45,1.95-0.67,2.93
			c-0.68,1.41-1.35,2.81-2.03,4.22c-0.59,0.49-1.26,0.91-1.58,1.67c-0.24,0.43-0.94,0.36-1.04,0.94c-0.79,0.09-1.35,0.62-1.95,1.07
			c-0.92,0.89-2.24,0.92-3.29,1.55c-2.6,0.41-5.2,0.57-7.8,0.02c-0.67-0.53-1.48-0.62-2.3-0.69c-0.37-0.35-0.79-0.58-1.3-0.62
			c-0.13-0.16-0.23-0.39-0.41-0.49c-5.03-2.71-7.57-7.09-8.51-12.57c0.17-1.52-0.15-3.08,0.4-4.56c0.76-1.57,1.26-3.26,2.29-4.7
			c0.53-0.74,1.49-1.14,1.65-2.15c1.87-1.17,3.66-2.41,5.79-3.18c1.32-0.48,2.58-0.3,3.86-0.46c0.9-0.11,1.83-0.03,2.75-0.04
			c3.25,0.65,6.23,1.9,8.8,4.03C296.6,225.73,297.23,225.74,297.37,226.28z"/>
		<path class="st4" d="M114.75,63.9c0-1.09,0-2.18,0-3.27c0.44-1.53,0.88-3.06,1.32-4.59c0.54-1.64,1.72-2.87,2.71-4.22
			c2.43-2.15,5.06-3.87,8.45-3.99c2.31,0.03,4.62,0.03,6.87,0.66c0.09,0.05,0.2,0.09,0.3,0.11c0.99,0.53,1.97,1.06,2.96,1.6
			c0.11,0.11,0.21,0.22,0.32,0.34c3.2,2.4,5.24,5.59,6.29,9.43c0.46,2.62,0.38,5.24,0,7.86c-1.75,5.59-5.38,9.2-11.16,10.51
			c-1.39,0.54-2.85,0.08-4.26,0.31c-0.33-0.11-0.66-0.21-0.99-0.32c-0.32-0.02-0.64-0.05-0.95-0.07c-1.06-0.52-2.1-1.08-3.29-1.25
			c-0.9-0.67-1.79-1.34-2.69-2c-1.21-0.92-2.02-2.19-2.91-3.38C116,69.33,115.4,66.6,114.75,63.9z"/>
		<path class="st2" d="M268.22,77.98c0.87-0.14,1.82,0.24,2.6-0.4c1.42,0.11,2.84,0.21,4.25,0.32c0.11,0,0.22,0,0.34,0
			c4.42,1.21,7.7,3.83,9.8,7.91c0.41,1.5,1.08,2.95,1.04,4.56c0,1.31,0,2.61,0,3.92c-0.45,2.09-1.21,4.05-2.35,5.85
			c-0.1,0.12-0.22,0.22-0.3,0.35c-2.55,3.72-5.95,6.15-10.47,6.91c0.05-0.96-0.39-1.4-1.36-1.35c-0.65,0.03-1.3,0.05-1.95,0
			c-1.19-0.1-1.74,0.38-1.61,1.59c-0.11,0.04-0.22,0.07-0.34,0.11c-0.98-0.33-1.96-0.65-2.93-0.98c-6.54-2.32-9.98-9.48-8.58-16.27
			c0.4-1.92,1.44-3.52,2-5.34c1.72-2.5,3.91-4.49,6.59-5.93C266.03,78.8,267.13,78.39,268.22,77.98z"/>
		<path class="st4" d="M174.99,89.01c0.21,0.13,0.43,0.27,0.64,0.4c0.01,0.08,0.02,0.17,0.03,0.25c-0.2,0.89,0.18,1.75,0.8,2.15
			c0.94,0.61,1.42,1.4,1.91,2.33c0.3,0.56,0.82,1.34,1.54,1.28c0.86-0.07,0.66-1.09,0.97-1.67c0.13-0.23,0.22-0.49,0.33-0.73
			c0.22,0.07,0.45,0.14,0.67,0.22l-0.04,0.11c-0.01,0.64-0.03,1.28-0.02,1.93c0.01,0.65-0.38,1.09-0.91,1.2
			c-1.27,0.25-2.45,0.81-3.81,0.78c-2.11-0.05-4.31-0.74-6.3,0.59c-0.15,0.1-0.43,0.03-0.64,0.03c-2.44-0.02-4.85,0.34-7.26,0.65
			c-0.68,0.07-1.46-0.24-2.02,0.28c-0.6,0.56-1.26,0.79-2.04,0.69c-1.39-0.18-2.51,0.35-3.46,1.31c-1.4,0.34-2.78,0.82-4.25,0.65
			c-1.1,0.52-2.32,0.81-3.27,1.63c-0.55,0.22-1.09,0.44-1.64,0.65c-1.48-0.24-2.55,0.36-3.27,1.63c-0.33,0.22-0.65,0.44-0.98,0.65
			c-2.76,0.93-3.5,0.38-3.29-2.39c0.06-0.76,0.27-1.71-0.96-1.85c0.01-1.14-0.05-2.29,0.05-3.43c0.4-4.74,0.85-9.47,1.27-14.21
			c0.4-1.05,0.84-2.09,0.97-3.22c2.96-0.84,5.97-1.35,9.05-0.87c0.6,0.09,1.17,0.15,1.76,0.09c1.3,0.22,2.56,0.73,3.91,0.66
			c0.8,0.52,1.75,0.43,2.63,0.65c3.27,1.2,6.54,2.4,9.8,3.59c1.85,0.87,3.78,1.59,5.49,2.74c0.21,0.14,0.48,0.19,0.72,0.29
			C173.89,88.41,174.44,88.71,174.99,89.01z"/>
		<path class="st0" d="M253.21,161.21c0.41,0.32,0.82,0.65,1.23,0.97c0.49,0.56,0.96,1.14,1.48,1.67c2.33,2.33,4.66,4.65,6.74,7.23
			c3.74,4.63,6.31,9.88,8.54,15.34c-0.15,0.77,0.86,1.17,0.65,1.96c0.59,2.28,0.85,4.64,1.64,6.87l-0.11-0.02
			c-0.28,0.4-0.47,0.95-0.85,1.15c-0.6,0.33-1.67,0.9-1.66-0.43c0.03-2.26-1.28-3.98-2.05-5.92c-0.37-0.92-0.66-1.79-0.65-2.81
			c0.03-1.83-0.65-3.4-2.01-4.66c-0.4-0.37-0.44-0.71-0.39-1.27c0.13-1.4-0.32-2.66-1.51-3.53c-0.31-0.23-0.63-0.4-0.66-0.85
			c-0.06-1.06-0.84-1.6-1.64-2.07c-1.42-0.83-2.68-1.75-3.04-3.52c-0.07-0.37-0.5-0.9-0.82-0.94c-1.6-0.22-2.26-1.49-3.14-2.54
			c-0.2-0.24-0.48-0.56-0.75-0.59c-2.87-0.36-3.21-2.52-3.35-4.75c-0.05-0.85-0.32-1.33-1.05-1.81c-1.12-0.74-2.31-1.54-2.57-3.05
			c0.62,0.07,1.07,0.48,1.59,0.77C250.39,159.24,251.59,160.55,253.21,161.21z"/>
		<path class="st5" d="M187.74,97.91c0.85,0.66,1.85,1.21,1.7,2.54c0,0-0.1,0.11-0.1,0.11c-3.69-0.29-7.36-0.92-11.08-0.67
			c-1.96,0.73-3.95-0.36-6.1,0.41c-1.87,0.67-4.19,0.74-6.33,0.82c0.54-1.28,0.11-1.73-1.26-1.65c-0.63,0.03-1.78,0.51-1.68-0.94
			c2.41-0.31,4.82-0.68,7.26-0.65c0.22,0,0.49,0.07,0.64-0.03c1.99-1.33,4.19-0.64,6.3-0.59c1.36,0.03,2.54-0.53,3.81-0.78
			c0.53-0.11,0.92-0.55,0.91-1.2c-0.01-0.64,0.01-1.28,0.02-1.93c0.45,0.29,0.89,0.59,1.34,0.88c0.59,0.29,0.84,1.05,1.6,1.09
			C185.86,96.08,186.85,96.93,187.74,97.91z"/>
		<path class="st5" d="M181.2,93.03c-0.11,0.24-0.2,0.5-0.33,0.73c-0.31,0.58-0.11,1.6-0.97,1.67c-0.72,0.06-1.24-0.72-1.54-1.28
			c-0.5-0.93-0.98-1.72-1.91-2.33c-0.62-0.4-1-1.26-0.8-2.15c0.75,0.35,1.51,0.71,2.26,1.06c0.65,0.43,1.31,0.87,1.96,1.3
			C180.13,92.61,180.79,92.66,181.2,93.03z"/>
		<path class="st6" d="M138.68,81.59c0.33-0.23,0.66-0.46,0.99-0.69c0.11,0.01,0.21,0.03,0.32,0.04c-0.13,1.13-0.57,2.17-0.97,3.22
			C138.91,83.31,138.79,82.45,138.68,81.59z"/>
		<path class="st7" d="M126.56,228.93c-2.01-0.69-4.14-0.58-6.2-0.99c-9.06-1.81-17.29-5.35-24.48-11.23
			c-5.6-4.57-9.9-10.14-13.23-16.5c-1.85-3.54-2.99-7.37-4.13-11.18c-0.21-1.42-0.41-2.84-0.62-4.26c0.59,0.04,1.17,0.02,1.75,0.26
			c6.63,2.79,13.25,5.61,19.93,8.28c2.59,1.04,5.14,2.31,7.98,2.61c2.29,1.89,5.18,2.33,7.89,3.2c0.37,0.3,0.81,0.4,1.28,0.39
			c0.46,0.6,1.06,0.46,1.66,0.31c0.55,0.51,1.09,0.91,1.91,1.03c1.16,0.18,2.27,0.62,3.4,0.97c4.27,1.31,8.59,2.32,13.02,2.93
			c4,0.55,7.95,1.46,11.53,3.47c3.37,1.89,5.97,4.29,5.51,8.67c-0.1,0.99-0.53,1.86-0.71,2.81c-2.48,3.86-6.3,5.82-10.44,7.3
			c-0.86,0.38-1.9,0.24-2.65,0.93c-0.59-0.02-1.16,0.05-1.75,0.17c-1.68,0.32-3.38,0.51-5.07,0.74c-1.96-0.44-3.92-0.44-5.89-0.01
			C127.01,228.86,126.79,228.89,126.56,228.93z"/>
		<path class="st8" d="M171.41,275.35c-2.25,0.55-4.55,0.64-6.85,0.58c-0.59-0.59-1.33-0.2-1.99-0.31
			c-1.76-0.29-3.62-0.04-5.26-0.98c0.19-1.23,1.04-1.95,1.97-2.63c0,1.08,1.2,0.98,1.61,1.65c0.68,1.08,1.43,0.29,2.12,0.07
			c0.83-0.27,0.97-0.89,0.7-1.7c-0.42-1.23,0.14-1.76,1.35-1.99c1.44-0.28,3.34-2.08,2.64-3.68c-0.47-1.06,0.07-1.8,0.85-2.36
			c1.47-1.06,2.69-2.34,3.68-3.84c0.59-0.89,1.38-1.63,2.36-1.84c1.9-0.41,2.71-1.78,3.72-3.21c0.69-0.98,0.73-2.37,1.75-2.58
			c-0.2,1.04-0.12,1.53,0.47,1.84c0.6,0.31,1.15,0.12,1.43-0.34c0.86-1.46,1.91-2.7,3.27-3.73c0.5-0.38,0.24-1.1-0.04-1.66
			c-0.22-0.44-0.46-1-0.98-0.95c-0.64,0.06-0.21,0.91-0.59,1.18c-1.26,0.89-0.82,3.45-3.23,3.25c-0.4-0.03-0.38,0.54-0.32,0.41
			c1.05-0.78,1.67-1.26,2.15-2.23c0.48-0.99,0.7-2.29,1.48-2.93c1.11-0.92,1.18-1.92,1.11-3.11c0.55,0.31,1.08,1.53,1.68,0.02
			c0.16-0.42,0.55-0.18,0.85-0.09c0.44,0.12,0.96,0.13,1.19-0.27c0.75-1.3,1.71-2.14,3.32-2.11c0.37,0.01,0.73-0.46,0.73-0.96
			c0-0.33-0.25-0.42-0.53-0.5c-0.89-0.24-3.76,0.87-4.33,1.65c-0.39,0.52-0.69,1.4-1.61,0.63c0.77-0.05,1.14-0.58,1.4-1.2
			c0.31-0.71,0.75-1.07,1.59-1.14c0.9-0.07,1.78-0.43,2.68-0.62c0.46-0.1,0.75-0.45,0.67-0.8c-0.36-1.56,1.28-2.74,0.75-4.39
			c-0.16-0.5,0.17-1.54,1.18-1.69c0.18-0.03,0.46-0.23,0.47-0.36c0.09-1.54,1.02-2.74,1.55-4.08c0.72-1.8,1.65-3.49,2.5-5.19
			c1.29-2.59,3.25-4.75,6.11-5.84c0.44-0.17,0.6-0.5,0.77-0.95c0.47-1.23,2.2-1.72,3.06-0.79c0.81,0.87,2.19,1.47,1.73,3.18
			c-0.21,0.79,0.53,1.34,1.34,1.6c1.19,0.38,1.81,1.17,2.12,2.41c0.37,1.47,0.07,2.92,0.23,4.37c0.16,1.48-0.51,2.51-1.69,3.24
			c-0.91,0.56-1.21,0.92,0.13,1.15c0.3,0.05,0.48,0.2,0.56,0.5c0.32,1.13,0.85,0.34,1.31,0.14c-0.3,1.23-0.56,2.45,1.38,2.44
			c0.09,0,0.18,0.34,0.27,0.52c-0.24,0.98-0.48,1.95-0.72,2.93c-0.25,0.1-0.47,0.19-0.67-0.12c-0.38-0.57-0.97-0.83-1.42-0.23
			c-0.34,0.46-0.31,1.13,0.5,1.36c0.46,0.13,0.64,0.52,0.67,0.98c0,0.52-0.52,1.05,0.04,1.56c-0.11,0.02-0.22,0.04-0.32,0.06
			c-0.91-0.82-1.3,0.36-1.8,0.61c-1.78,0.91-1.7,2.25,0.05,3.27c-0.22,0.44-0.44,0.88-0.65,1.32c-0.54,0.22-1.18-0.68-1.68,0.21
			c-0.44,0.78-0.09,1.29,0.45,1.78c-0.87,1.57-1.62,3.24-3.24,4.24c-1.78,0.01-2.16,0.63-1.65,2.66c0,0.09,0.02,0.19,0.04,0.28
			c-0.26,0.32-0.51,0.63-0.77,0.95c-0.09,0.01-0.17,0.02-0.26,0.03c-0.71-0.18-1.18-0.97-2.21-0.6c0.19-0.4,0.26-0.59,0.36-0.75
			c0.31-0.52,0.05-0.93-0.23-1.33c-0.18-0.25-0.46-0.28-0.72-0.15c-0.53,0.27-0.49,0.78-0.5,1.27c-0.03,1.43,0.98,2.4,2.66,2.54
			c-1.11,1.3-2.21,2.59-3.32,3.89c-1.76,0.91-2.97,2.5-4.57,3.6c-0.76,0.54-1.53,1.08-2.29,1.62c-0.65,0.43-1.31,0.87-1.96,1.3
			c-2.25,1.14-4.43,2.43-6.81,3.32c-0.57-0.13-1.79,0.24-1.07-1c0.4-0.68,0.47-1.04,0.05-1.67c-0.71-1.06-1.33,0.19-2.02,0
			c-0.94-0.25-0.55,0.57-0.59,0.94c-0.12,1.12-0.87,1.18-1.66,0.97c-0.62-0.16-1.17-0.55-1.74-0.87c-0.29-0.16-0.79-0.39-0.77,0.02
			c0.12,2.03-1.72,1.37-2.61,2c-0.46,0.32-0.87,0.12-1.01-0.39c-0.13-0.51,0.24-0.64,0.67-0.67c0.65-0.05,1.29-0.14,1.65-0.83
			c-2.25-1.25-4.63,0.42-6.9-0.4c-0.6-0.22-0.59,0.64-0.6,1.09c-0.02,0.62,0.53,0.54,0.83,0.4c0.83-0.38,1.17,0.07,1.52,0.7
			c0.64,1.15,1.75,1.75,2.96,1.47c1.77-0.42,1.38,0.47,1.1,1.44C173.8,275.05,172.6,275.2,171.41,275.35z M195.27,238.69
			c-0.27-0.04-0.53-0.11-0.61-0.43c-0.12-0.5-0.08-1.18-0.87-1.07c-0.42,0.06-0.86,0.32-0.78,0.86c0.09,0.63,0.15,1.35,1.11,1.21
			c0.69-0.1,0.42,0.43,0.49,0.74c-0.7,1.51-1.35,3.02-2.66,4.2c-1.31,1.19-2.51,2.49-3.45,4.04c-1.34,2.2-2.79,4.33-4.3,6.41
			c-1.16,1.61-2.46,3.11-3.4,4.88c-0.83,1.57-0.47,3.32,1.32,4.6c1.08,0.77,0.37-1.12,1.16-1.12c0.15,0,0.34-0.05,0.46-0.14
			c1.58-1.12,3.49-1.82,4.13-4.02c0.28-0.95,0.91-1.89,2.33-1.94c0.93-0.03,1.78-0.82,2.05-1.78c0.21-0.73,0.76-1.16,1.06-1.74
			c0.77-1.48,2.39-2.42,2.64-4.22c0.37-2.7,2.29-4.41,4.02-6.28c1.11-1.2,2.54-2.29,2.78-4.09c0.27-1.99,0.88-3.89,1.38-5.83
			c0.49-1.91,1.65-3.67,0.8-5.94c-0.52-1.4-1.4-1.48-2.38-1.69c-1.06-0.23-1.5,0.48-1.87,1.39c-0.23,0.56-0.53,1.21-1.17,1.51
			c-1.1-0.05-1.32-0.48-0.45-1.21c0.39-0.32,0.79-0.57,0.77-1.14c-0.03-0.85,0.42-1.38,1.07-1.87c0.51-0.38,1.01-0.86,1.35-1.39
			c0.29-0.46,0.64-1.06,0.01-1.6c-0.63-0.54-1.05-0.14-1.54,0.26c-1.21,0.99-1.4,2.53-2.05,3.81c-0.47,0.93-1.58,1.56-1.61,2.53
			c-0.04,1.21,1.68,1.2,2.12,2.23c-1.24,1.03-1.52,2.62-2.29,3.92c-0.9-0.42-1.79-0.16-2.66,0.08c-0.32,0.09-0.6,0.33-0.46,0.72
			c0.12,0.35,0.44,0.54,0.77,0.34c1.56-0.91,1.39,0.2,1.37,1.14C195.71,236.95,195.49,237.82,195.27,238.69z M199.09,258.99
			c-0.16-0.49-0.37-0.83-0.77-0.87c-0.48-0.04-0.42,0.4-0.43,0.7c-0.01,0.82-0.53,1.38-1.18,1.62c-1.8,0.67-3.26,1.84-4.6,3.1
			c-0.75,0.7-1.12,1.64-2.45,1.06c-0.57-0.25-0.58,0.45-0.61,0.87c-0.1,1.22-0.77,1.31-1.65,0.76c-0.67-0.42-1.38-0.76-1.8,0.1
			c-0.61,1.26,0.96,1.48,1.37,2.31c0.34,0.7,0.73-0.2,1.1-0.39c0.47-0.24,0.77-1.31,1.11-0.95c1.22,1.28,2.07-0.19,2.99-0.36
			c0.7-0.13,1.88-0.59,2.23-1.29c0.64-1.31,1.78-2.16,2.51-3.33C197.61,261.19,198.17,259.97,199.09,258.99z M213.91,225.68
			c-0.07-0.69,0.15-1.51-0.16-2.3c-0.2-0.52-0.56-0.8-1.13-0.64c-0.41,0.11-0.64,0.38-0.53,0.85c0.3,1.24,0.53,2.47,0.32,3.78
			c-0.06,0.37,0.05,1.3,0.7,1.27c0.67-0.03,0.81-0.75,0.8-1.39C213.9,226.76,213.91,226.28,213.91,225.68z M207.85,217.76
			c0.83,0.03,1.22-0.16,1.13-0.72c-0.13-0.75-0.33-1.54-1.33-1.51c-0.53,0.01-1.25,0.17-1.16,0.82
			C206.6,217.21,207.27,217.7,207.85,217.76z M195.59,231.08c0.04,0.57-0.05,1.27,0.72,1.26c0.73-0.01,0.96-0.56,0.93-1.26
			c-0.03-0.66-0.25-1.36-0.89-1.36C195.61,229.73,195.67,230.55,195.59,231.08z"/>
		<path class="st3" d="M267.59,227.27c-0.32,0.54-0.65,1.08-0.97,1.62c-1.13,1.49-2.68,2.56-3.99,3.88
			c-1.35,0.37-2.43,1.25-3.59,1.96c-0.5,0.64-1.36,0.63-1.95,1.1c-0.68-0.13-1.11,0.37-1.64,0.63c-0.87,0.43-1.74,0.86-2.61,1.3
			c-0.44-0.21-0.67,0.19-0.99,0.33c-2.61,0.8-5.31,1.28-7.85,2.29c-1.47-0.15-2.81,0.62-4.25,0.65c-3.99,0.88-8.05,1.08-12.1,1.31
			c-0.91-0.02-1.83-0.02-2.74-0.06c-2.92-0.11-5.89,0.41-8.73-0.69c-0.01-0.55,0.47-0.83,0.71-1.24c3.81-1.89,7.22-4.37,10.52-7.03
			c6.44-5.21,11.76-11.37,16.21-18.33c1.72-2.69,3.06-5.59,4.49-8.43c1.03-2.04,2.16-4.1,2.49-6.43c1.37,0.47,1.77,1.86,2.45,2.87
			c4.9,7.25,9.27,14.84,13.84,22.29C266.96,226.01,266.65,226.86,267.59,227.27z"/>
		<path class="st9" d="M159.29,309.32c-1.1,0.4-2.19,0.81-3.29,1.21c-5.45,0.5-10.1-1.05-13.5-5.49c-2.51-3.28-3.69-6.96-3.23-11.19
			c0.29-2.69,1.36-5.05,2.41-7.45c3.09-4.41,7.08-7.16,12.7-6.93c2.08-0.08,4.01,0.47,5.89,1.31c2.9,1.29,4.93,3.52,6.55,6.15
			c0.37,0.61,0.48,1.38,0.7,2.07c0.29,0.88,0.58,1.75,0.87,2.63c0.29,3.92,0.1,7.75-1.99,11.27c-1.34,2.26-3.22,3.97-5.18,5.64
			C160.47,308.53,159.89,308.95,159.29,309.32z"/>
		<path class="st10" d="M138.68,81.59c0.11,0.86,0.23,1.71,0.34,2.57c-0.43,4.74-0.87,9.47-1.27,14.21
			c-0.1,1.14-0.04,2.28-0.05,3.43c-0.49,2.26-0.45,4.57-0.65,6.86c-2.37,0.01-2.56,0.13-2.96,2.48c-0.24,1.42-0.58,2.47-2.35,1.51
			c-0.41-0.22-0.95-0.07-1.39,0.25c-0.73,0.53-0.82,0.01-0.82-0.56c0-0.55,0.18-0.78,0.86-0.88c0.73-0.1,2.21,0.13,1.94-1.09
			c-0.32-1.46,1.28-1.15,1.39-2.05c0.06-0.51-0.32-0.64-0.64-0.82c-0.37-0.21-1.06-0.5-0.85-0.84c0.85-1.36-0.19-2.6-0.09-3.88
			c0.03-0.37-0.05-0.84,0.48-0.88c0.43-0.03,0.47,0.36,0.5,0.7c0.03,0.39,0.03,0.8,0.59,0.77c0.3-0.02,0.51-0.21,0.61-0.47
			c0.15-0.37,0.18-0.79-0.13-1.07c-0.75-0.67-1.56-1.03-2.43-0.14c-0.27,0.28-0.6,0.56-1,0.31c-0.38-0.24-0.24-0.68-0.23-1.05
			c0.05-1.6,0.13-3.21-1.01-4.53c-0.39-0.45-0.23-0.82,0.15-1.11c0.47-0.35,0.46-1.24,1.21-1.19c0.65,0.05,0.47,0.74,0.67,1.15
			c0.5,0.99-0.24,1.9-0.08,2.87c0.11,0.67,0.44,1.09,1.01,1.37c0.24,0.12,0.54,0.26,0.74-0.01c0.39-0.53,0.29-1.15,0.13-1.72
			c-0.13-0.44-0.82-0.88-0.42-1.3c1.39-1.43,0.59-2.21-0.68-3.01c-0.63-0.39-0.47-1.02-0.17-1.6c0.25-0.5,0.61-0.57,1.08-0.33
			c1.62,0.82,1.67-0.1,1.39-1.28c-0.12-0.5,0.17-0.8,0.33-1.19c0.29-0.72-0.07-1.36-0.75-1.53c-0.65-0.17-1.18,0.24-1.07,1.01
			c0.13,0.87-0.45,1.19-1.03,1.01c-0.67-0.21-1.16-0.79-1.74,0.17c-0.41,0.68-0.71,1.23-0.49,2.09c0.22,0.87,0.34,1.89-1.18,1.89
			c-0.7,0-1.25,0.56-1.3,1.26c-0.05,0.82-0.36,1.28-1.14,1.52c-0.57,0.18-0.69,0.68-0.46,1.2c0.27,0.61,0.74,0.23,1.13,0.16
			c0.35-0.06,0.57-0.3,0.68-0.64c0.13-0.4,0.32-0.79,0.78-0.46c0.41,0.29,0.14,0.7-0.06,1.02c-0.57,0.88-1.47,0.92-2.33,0.7
			c-1.53-0.39-2.65-0.29-3.9,1.03c-1.16,1.22-0.34,2.76-1.25,3.88c-0.15,0.18,0.25,0.56,0.58,0.67c1.68,0.54,1.42,1.28,0.11,2.13
			c0.51,0.12,1.06,0.07,1.05,0.64c-0.01,1.22-1.39,0.96-1.79,1.82c-0.62-1.03-1.15-1.9-1.87-3.09c-0.11,1.44-1.01,2.54-0.13,3.49
			c1.09,1.16,0.15,1.31-0.61,1.58c-0.37,0.13-0.89,0.16-0.84,0.59c0.06,0.62,0.7,0.44,1.07,0.39c1.23-0.16,1.95,0.42,2.63,1.58
			c-1.44-0.48-2.99,0.44-3.96-1.14c-0.2-0.33-1.09-0.02-1.11,0.53c-0.05,1.07-0.67,1.94-0.85,2.91c-0.62,3.26-0.23,6.61-0.82,9.89
			c-0.1,0.56,0.22,1.06,0.67,1.4c0.26,0.2,0.51,0.03,0.73-0.15c0.41-0.35,0.74-0.94,0.41-1.28c-1.22-1.3-0.45-2.3,0.3-3.38
			c1.23-1.77-0.44-3.49-0.15-5.28c0.12-0.73-0.28-1.61,0.82-1.77c1.04-0.15,1.68,0.36,1.72,1.45c0.03,0.68,0.05,1.54,0.93,1.38
			c0.82-0.15,1.84-0.08,2.26-1.3c0.55-1.57,1.03-3.21,2.27-4.48c0.8-0.82,0.45-1.92-0.68-2.49c-0.27-0.14-0.46-0.29-0.46-0.58
			c0-0.43,0.31-0.53,0.66-0.54c0.33-0.01,0.65-0.01,0.98-0.01c0.4-0.01,0.8-0.04,0.87-0.54c0.06-0.43,0.12-0.95-0.47-1.05
			c-0.86-0.14-0.83-0.74-0.79-1.34c0.09-1.31-0.38-2.64,1.15-3.73c0.69-0.49,1.12-0.6,1.74-0.45c0.88,0.21,0.94,1.32,0.64,1.56
			c-1.41,1.15-0.49,2.08,0.01,3.14c0.19,0.4,0.24,1.2-0.19,1.36c-0.85,0.33-0.97,1.27-1.68,1.64c-0.34,0.17-0.84,0.25-0.4,0.75
			c0.32,0.36,0.76,0.4,1.17,0.07c0.28-0.23,0.01-0.8,0.73-0.93c0.79,2.02,0.37,4.11,0.29,6.16c-0.01,0.18-0.35,0.39-0.58,0.5
			c-0.33,0.15-0.71,0.45-0.33,0.66c0.71,0.4,0.9,1.4,1.79,1.49c0.18,0.02,0.28-0.38,0.12-0.53c-1.16-1.07-0.17-1.78,0.39-2.58
			c0.19-0.28,0.12-0.85,0.68-0.68c0.36,0.11,0.36,0.52,0.35,0.84c-0.07,1.35,0.38,1.71,1.71,0.48c-0.46,1.31,0.33,2.09,0.27,3.03
			c-0.06,0.92,0.09,1.87-0.04,2.77c-0.1,0.67,0.89,1.76-0.28,1.93c-1.07,0.15-0.84-1.27-1.29-1.93c-0.05-0.08-0.03-0.21-0.03-0.32
			c-0.02-2.14-1.81-1.02-2.72-1.32c-0.87-0.29-1.28,0.6-1.25,1.59c0.02,0.8,0.44,1.81-0.55,2.38c-1.25,0.73-0.94,1.57-0.13,2.33
			c0.96,0.9,0.51,1.2-0.32,1.92c-0.59,0.51,1.46,0.97,0.78,2.05c-0.1,0.16-0.35,0.24-0.55,0.32c-0.41,0.16-0.54,0.48-0.19,0.71
			c1.33,0.87,0.95,2.2,0.98,3.41c0.02,0.87,0.08,1.59,0.8,2.33c0.75,0.77,0.98,1.82-0.28,2.73c-2.44,1.76-2.42,2.59-0.18,4.67
			c0.12,0.11,0.3,0.16,0.4,0.28c0.45,0.53,0.89,1.11-0.12,1.51c-0.45,0.18-0.75,0.46-0.27,0.78c1.2,0.8,0.94,1.98,0.96,3.09
			c0.01,0.42,0.12,0.99-0.4,1.14c-0.51,0.15-0.5-0.44-0.67-0.74c-0.2-0.35-0.59-0.21-0.86-0.36c-1.34-0.73-3.14-1.04-2.99-3.18
			c0.03-0.47-0.31-0.61-0.73-0.7c-0.64-0.14-1.25-0.34-1.92-0.32c-0.81,0.02-1.2-0.3-0.59-1.07c0.25-0.31,0.85-0.47,0.46-1.01
			c-0.26-0.36-0.76-0.64-1.15-0.47c-1.28,0.57-1.26-0.44-1.52-1.14c-0.18-0.48-0.67-1.01,0.09-1.39c0.62-0.3,1-0.05,1.22,0.62
			c0.15,0.47,0.6,0.62,1.08,0.5c0.48-0.12,0.45-0.55,0.46-0.93c0.01-0.38-0.06-0.78,0.02-1.14c0.15-0.68-0.48-1.88,0.48-1.93
			c0.88-0.04,0.31,1.15,0.49,1.77c0.02,0.05,0.01,0.11,0.02,0.16c0.09,0.5,0.38,0.77,0.88,0.79c0.6,0.02,0.66-0.38,0.72-0.86
			c0.34-2.63-1.43-4.56-3.96-3.87c-1.83,0.5-1.15-1.84-2.42-1.65c0.02-0.93,0.9-1.17,1.44-1.3c0.95-0.23,1.01-0.74,1.03-1.51
			c0.04-1.63-0.3-3.25-0.28-4.86c0.03-2.13,0.18-2.13-1.62-3.33c0,0.3-0.11,0.7,0.02,0.8c1.07,0.88,0.98,1.92,0.6,3.08
			c-0.12,0.38-0.06,0.89,0.08,1.28c0.31,0.88,0.21,1.7-0.09,2.55c-0.12,0.34-0.01,0.84-0.59,0.79c-0.44-0.04-0.37-0.45-0.46-0.75
			c-0.23-0.77-0.43-1.49-1.24-1.99c-1.03-0.62-1.37-0.44-1.35,0.71c0.02,0.98-0.09,1.97,0.02,2.94c0.16,1.37,0.02,2.81,0.79,4.07
			c0.32,0.52,0.31,4.11-0.06,4.58c-0.13,0.16-0.33,0.34-0.52,0.36c-1.16,0.14-1.51,1.04-1.87,1.94c-0.22-0.01-0.43-0.02-0.65-0.04
			c-0.02-0.33-0.03-0.65-0.05-0.98c0.79-1.04-0.37-1.93-0.21-2.92c1.25-1.48,1.13,0.68,1.82,0.7c0.41-2.44-0.48-3.74-2.25-3.29
			c-0.33-0.11-0.26-0.43-0.34-0.67c0-0.22,0-0.44,0-0.65c-0.43-4.9-0.45-9.8,0-14.69c0.02-0.65,0.05-1.29,0.07-1.94
			c0.7-2.03,1.37-4.07,1.57-6.23c0.04-0.1,0.06-0.21,0.07-0.32c0.44-0.59,0.61-1.26,0.66-1.97c0.8-1.08,1.07-2.39,1.55-3.61
			c0.07-0.2,0.11-0.41,0.2-0.6c2.76-5.87,6.45-11.1,11.02-15.71c0.21-0.21,0.42-0.42,0.63-0.63c2.41-1.86,4.81-3.71,7.22-5.57
			c0.48,0.03,0.76-0.23,0.96-0.63C136.07,82.68,137.38,82.13,138.68,81.59z M120.68,118.27c-0.58,0.02-0.96,0.03-1.16,0.58
			c-0.17,0.48-0.09,1.08,0.35,1.07c1.36-0.03,2.09,0.83,2.93,1.65c0.29,0.29,0.82,0.24,1.23,0.02c0.23-0.12,0.28-0.44,0.14-0.55
			C123.03,120.09,121.85,119.19,120.68,118.27z M124.24,131.83c-0.14-0.88-0.88-0.6-1.32-0.77c-0.51-0.2-1.23-0.04-1.38,0.47
			c-0.18,0.58,0.56,0.83,0.97,0.83C123.11,132.36,123.79,132.34,124.24,131.83z M122.86,133.58c-0.5,0.09-1.23,0-1.33,0.61
			c-0.1,0.56,0.65,0.85,1.03,0.79c0.56-0.09,1.53,0.14,1.61-0.68C124.24,133.57,123.27,133.96,122.86,133.58z M122.09,123.36
			c-0.69,0.03-1.2,0.37-1.33,1.09c-0.07,0.4,0.2,0.85,0.62,0.73c0.65-0.19,1.27-0.64,1.51-1.28
			C123.06,123.41,122.5,123.39,122.09,123.36z"/>
		<path class="st11" d="M68.02,176.65c0.11,0.11,0.22,0.21,0.33,0.32c1.68,1.77,3.1,3.73,4.26,5.88c0.97,3.58,1.11,7.15-0.59,10.55
			c-3.09,6.15-8.18,8.91-15.02,9.07c-6.16,0.14-12.6-4.74-14.23-10.3c-0.57-1.93-0.6-3.82-0.5-5.76c1.52,0.07,3.1-1.2,4.57,0.25
			c0.18,0.18,0.49-0.1,0.63-0.36c0.19-0.34,0.38-0.68,0.14-1.07c-0.33-0.54-0.79-0.44-1.29-0.25c-0.56,0.21-0.97,0-1.13-0.58
			c-0.17-0.61,0.11-1.1,0.63-1.37c0.63-0.33,0.7,0.32,0.88,0.65c0.26,0.47,0.61,0.91,1.13,0.72c0.72-0.26,1.46-0.63,2.03-1.13
			c1.14-0.99,2.22-2.05,3.23-3.17c1.09-1.22,2.34-1.35,3.8-0.91c0.38,0.11,0.87-0.01,1.27-0.15c0.37-0.13,0.93-0.22,0.8-0.83
			c-0.09-0.44-0.34-0.82-0.83-0.91c-0.32-0.06-0.65-0.03-0.98-0.06c-0.49-0.05-0.85-0.29-0.85-0.81c0.01-0.52,0.38-0.76,0.87-0.79
			c1.07-0.07,2.1-0.07,2.61,1.15c0.39,0.93,1.23,1.46,2.09,1.68c0.8,0.21,1.11,0.68,1.54,1.26c0.84,1.1,1.36,2.52,3.24,2.54
			c1.42,0.01,1.7,1.1,0.79,2.27c-0.21,0.27-0.74,0.47-0.44,0.91c0.16,0.23,0.54,0.42,0.83,0.43c0.41,0.01,0.83-0.43,0.72-0.72
			c-0.41-1.04,0.47-1,0.96-1.29c1.09-0.64,1.13-1.52,0.04-2.22c-0.43-0.28-0.79-0.55-1-1.02c-0.59-1.34-1.4-2.43-3.06-2.49
			c-0.48-0.02-0.65-0.49-0.66-0.81c-0.01-1.06-0.71-1.35-1.53-1.59c-0.89-0.27-1.5-0.71-0.83-1.74c0.1,0.01,0.21,0.01,0.31,0.02
			C64.7,174.56,66.29,175.76,68.02,176.65z"/>
		<path class="st9" d="M126.56,228.93c0.23-0.03,0.45-0.07,0.68-0.1c0.31,0.12,0.62,0.24,0.92,0.36c0.36,0.41,0.68,0.85,1.08,1.21
			c7.45,6.89,16,12.01,25.53,15.43c7.27,2.61,14.79,4.03,22.51,4.31c-2.31,3.51-5.14,6.6-7.86,9.77c-0.85-0.76-2.19-0.39-3-1.25
			c1.89-0.83,1.95-0.82,1.98-1.24c0.05-0.76,0.17-1.49,0.31-2.24c0.16-0.82-0.38-1.32-1.18-1.45c-0.77-0.13-1.08,0.25-1.07,1.01
			c0.01,0.49-0.28,0.91-0.77,0.87c-0.83-0.06-1.41,0.51-2.12,0.72c-1.29,0.39-1.56,1.69-0.49,2.5c0.72,0.54,0.89,0.83-0.11,1.07
			c-0.41,0.1-0.73,0.21-0.69,0.71c0.05,0.62,0.52,0.57,0.96,0.61c1.28,0.12,3.97-0.37,5.22-0.92c0.19-0.08,0.43-0.04,0.64-0.06
			c-2.23,2.97-4.65,5.78-7.2,8.49c-0.75-1.04-1.15-1.92,0.1-3.06c0.67-0.6,0.29-1.77-0.39-2.52c-0.37-0.41-0.87-0.37-1.34-0.06
			c-0.33,0.22-0.45,0.92-0.99,0.63c-0.58-0.31-0.1-0.87-0.15-1.3c-0.13-1.02,0.45-2.84-1.82-1.92c-0.47,0.19-0.71-0.26-0.96-0.66
			c-0.86-1.38-1.74-2.77-3.72-2.53c-0.54,0.06-0.91-0.25-1.3-0.57c-1.27-1.06-2.74-0.95-4.16-0.48c-1.42,0.47-4.66-0.86-5.18-2.28
			c-0.71-1.91-0.7-1.9-2.47-0.72c-0.3,0.2-0.63,0.51-1.04,0.29c-0.16-0.08-0.33-0.33-0.33-0.49c0.01-0.48,0.43-0.53,0.8-0.65
			c0.76-0.26,1.6-2.97,1.12-3.56c-0.11-0.14-0.45-0.28-0.54-0.22c-1.49,1.1-1.57-0.38-1.97-1.11c-0.51-0.95-0.91-1.97-1.34-2.97
			c-0.23-0.54-0.31-1.11,0.27-1.45c0.65-0.38,0.87,0.22,1.28,0.58c1.04,0.91,1.65,2.63,3.58,2.07c0.35-0.1,0.69,0.46,0.51,0.62
			c-1.12,0.97-0.86,1.72,0.2,2.49c0.23,0.17,0.09,0.5-0.1,0.73c-0.35,0.43-0.51,0.9-0.01,1.28c0.5,0.37,0.94-0.06,1.31-0.33
			c0.39-0.29,0.84-0.62,1.02-1.04c0.39-0.93,0.95-1.23,1.89-0.86c0.93,0.36,1.1-0.23,0.96-0.9c-0.14-0.65-0.13-1.7-0.92-1.73
			c-0.94-0.03-2.06,0.09-2.62,1.15c-0.12,0.23-0.12,0.58-0.47,0.52c-0.17-0.03-0.45-0.37-0.43-0.41c1.02-1.6,0.3-2.39-1.27-2.86
			c-0.15-0.05-0.18-0.49-0.29-0.74c-0.15-0.36-0.34-0.73-0.74-0.82c-1.69-0.38-2.8-1.5-3.82-2.79c-0.25-0.31-0.61-0.48-1.02-0.27
			c-0.42,0.22-0.44,0.54-0.29,0.96c0.19,0.54,0.25,1.32-0.42,1.32c-0.77,0-0.4-0.86-0.41-1.33c-0.04-1.27-0.71-2.03-1.91-1.86
			c-1.07,0.15-2.24,0.4-2.96,1.43C128.42,236.56,127.06,232.86,126.56,228.93z M158.13,252.25c-0.66-0.1-1.51-0.05-1.65,0.58
			c-0.22,0.96,0.75,0.73,1.32,0.95c0.86,0.33,1.5,1.84,2.62,0.36c0.02-0.03,0.36,0.16,0.53,0.27c1.23,0.76,2.37,0.75,3.57-0.15
			c0.59-0.44,1.31-0.83,1.16-1.58c-0.18-0.92-1.06-0.93-1.85-0.91C161.92,251.8,159.99,251.52,158.13,252.25z"/>
		<path class="st9" d="M129.58,240.31c0.72-1.02,1.89-1.28,2.96-1.43c1.2-0.17,1.86,0.59,1.91,1.86c0.02,0.47-0.36,1.33,0.41,1.33
			c0.67,0,0.61-0.78,0.42-1.32c-0.15-0.42-0.13-0.75,0.29-0.96c0.41-0.21,0.77-0.05,1.02,0.27c1.02,1.28,2.14,2.41,3.82,2.79
			c0.4,0.09,0.59,0.46,0.74,0.82c0.11,0.25,0.13,0.69,0.29,0.74c1.56,0.47,2.28,1.26,1.27,2.86c-0.02,0.04,0.26,0.38,0.43,0.41
			c0.35,0.06,0.35-0.28,0.47-0.52c0.56-1.06,1.69-1.18,2.62-1.15c0.79,0.03,0.78,1.08,0.92,1.73c0.14,0.67-0.03,1.26-0.96,0.9
			c-0.94-0.37-1.5-0.08-1.89,0.86c-0.18,0.42-0.63,0.75-1.02,1.04c-0.37,0.27-0.81,0.71-1.31,0.33c-0.5-0.37-0.35-0.85,0.01-1.28
			c0.19-0.22,0.33-0.56,0.1-0.73c-1.06-0.77-1.32-1.52-0.2-2.49c0.18-0.16-0.16-0.72-0.51-0.62c-1.93,0.56-2.54-1.15-3.58-2.07
			c-0.41-0.36-0.63-0.97-1.28-0.58c-0.58,0.34-0.5,0.91-0.27,1.45c0.43,1,0.83,2.01,1.34,2.97c0.39,0.73,0.48,2.2,1.97,1.11
			c0.09-0.06,0.43,0.08,0.54,0.22c0.48,0.59-0.36,3.29-1.12,3.56c-0.37,0.13-0.78,0.18-0.8,0.65c0,0.17,0.17,0.41,0.33,0.49
			c0.4,0.22,0.74-0.09,1.04-0.29c1.76-1.18,1.76-1.19,2.47,0.72c0.52,1.41,3.76,2.75,5.18,2.28c1.42-0.47,2.89-0.58,4.16,0.48
			c0.39,0.32,0.76,0.64,1.3,0.57c1.98-0.24,2.86,1.16,3.72,2.53c0.25,0.4,0.49,0.85,0.96,0.66c2.27-0.92,1.7,0.9,1.82,1.92
			c0.05,0.43-0.43,0.99,0.15,1.3c0.55,0.29,0.66-0.41,0.99-0.63c0.46-0.3,0.96-0.35,1.34,0.06c0.68,0.74,1.06,1.92,0.39,2.52
			c-1.26,1.14-0.85,2.02-0.1,3.06c-0.73,1.2-2.12,1.88-2.62,3.26c-0.92,0.68-1.78,1.41-1.97,2.63c-1.43,0.2-2.63-0.53-3.8-1.11
			c-3.34-1.66-6.08-4.08-8.6-6.82c-2.49-2.71-4.7-5.58-6.58-8.73c0.91-0.51,1.81-0.58,2.77-0.11c0.4,0.2,0.83,0.64,1.32,0.2
			c0.26-0.24,0.21-0.62,0.12-0.92c-0.19-0.65-0.78-0.48-1.23-0.47c-1.93,0.04-3.06-0.97-3.63-2.71c-0.18-0.56-0.58-0.8-1.07-0.82
			c-0.65-0.03-0.52,0.55-0.58,0.95c-0.21-0.24-0.42-0.48-0.63-0.73c-0.09-0.11-0.18-0.22-0.27-0.33c-0.38-0.92-0.64-1.89-1.35-2.63
			c-0.12-0.42-0.24-0.83-0.36-1.25c0.67-0.21,1.24-0.76,2.06-0.4c0.35,0.15,0.55-0.24,0.68-0.54c0.09-0.21,0.12-0.4-0.08-0.57
			c-0.57-0.51-2.53,0.05-2.98,0.86c-0.38-0.46-0.55-1.01-0.68-1.57c0.43-0.76,0.52-1.53,0.04-2.29c-0.33-0.53-0.31-1.06,0.07-1.49
			c0.56-0.61,0.28-1.01-0.18-1.48c-0.33-0.34-0.56-0.92-1.1-0.78c-0.67,0.18-0.8,0.8-0.78,1.43
			C130.19,241.65,129.89,240.98,129.58,240.31z"/>
		<path class="st11" d="M111.81,141.95c0.02,0.33,0.03,0.65,0.05,0.98c-0.67,1.04-0.56,2.45-1.61,3.3c-0.26-0.24-0.21-0.75-0.9-0.59
			c-1.3,0.31-2.3,0.88-2.84,2.14c-0.24,0.55-0.62,1.41-1.13,1.27c-2.17-0.62-2.53,1.39-3.64,2.3c-0.29,0.24-0.35,0.56-0.03,0.83
			c0.34,0.29,0.7,0.34,0.94-0.12c0.14-0.29,0.19-0.65,0.53-0.79c0.53-0.21,1.07-0.26,1.53,0.14c0.27,0.24,0.39,0.69,0.12,0.86
			c-0.84,0.55-2.04,0.94-0.26,1.85c0.18,0.09-0.05,0.49-0.22,0.72c-0.67,0.9-1.86,0.98-2.66,1.72c-0.32,0.3-0.61-0.23-0.63-0.66
			c-0.04-0.91-0.46-1.03-1.15-0.53c-0.28,0.2-0.55,0.34-0.91,0.25c-0.29-0.07-0.65-0.36-0.81,0.13c-0.15,0.44,0.23,0.95,0.47,0.91
			c1.41-0.26,1.64,0.68,1.94,1.66c0.07,0.22,0.36,0.44,0.6,0.53c1.48,0.56,1.41,1.68,0.91,2.8c-0.34,0.77-0.39,1.44-0.05,2.17
			c0.39,0.83,0.3,1.7,0.29,2.57c-0.01,0.71,0,1.59-0.91,1.66c-0.85,0.06-1.77-0.19-2.22-1.08c-0.28-0.55-0.18-1.16,0.01-1.75
			c0.21-0.66,0.4-1.34-0.33-1.89c-0.94,1.77-2.44,2.91-3.78,4.18c-0.45,0.42-0.61,1.25-1.45,1.15c-0.73-0.09-1.01-0.79-1.38-1.32
			c-0.5,0.45-0.52,0.96-0.36,1.32c1.02,2.22,0.01,3.84-1.54,5.26c-0.43,0.4-0.5,0.81-0.47,1.3c0.12,2.1-0.75,3.43-2.89,3.82
			c-0.34,0.06-0.36,0.34-0.38,0.62c-0.09,1.29,0.46,3.36-2.07,1.68c-0.09-0.06-0.3,0.07-0.46,0.11c-0.99,0.25-1.8,0-2.47-0.81
			c-0.33-0.4-0.71-0.95-1.35-0.5c-0.79,0.55-1.43,0.15-2.1-0.24c-0.18-0.58,0.48-1.05,0.21-1.64c0.85-2.72,1.83-5.38,3.33-7.82
			c1.52-2.2,3.04-4.4,4.56-6.6c0.14,0.88,0.54,0.61,0.96,0.21c1.89-1.8,3.69-3.72,5.39-5.68c2.45-2.82,5.47-5.03,7.83-7.89
			c0.77-0.93,2.28-1.33,2.19-2.91c0.22-0.23,0.45-0.46,0.67-0.68c2.41-1.77,4.91-3.41,7.51-4.89
			C111.2,141.99,111.5,141.97,111.81,141.95z"/>
		<path class="st11" d="M62.49,173.99c-0.67,1.03-0.06,1.47,0.83,1.74c0.83,0.25,1.52,0.53,1.53,1.59c0,0.32,0.18,0.8,0.66,0.81
			c1.66,0.06,2.47,1.14,3.06,2.49c0.21,0.47,0.57,0.74,1,1.02c1.08,0.7,1.04,1.58-0.04,2.22c-0.49,0.29-1.37,0.25-0.96,1.29
			c0.11,0.29-0.32,0.73-0.72,0.72c-0.29,0-0.67-0.19-0.83-0.43c-0.3-0.44,0.23-0.63,0.44-0.91c0.91-1.17,0.63-2.26-0.79-2.27
			c-1.88-0.02-2.4-1.44-3.24-2.54c-0.44-0.57-0.74-1.04-1.54-1.26c-0.85-0.22-1.7-0.76-2.09-1.68c-0.51-1.21-1.54-1.22-2.61-1.15
			c-0.49,0.03-0.86,0.27-0.87,0.79c-0.01,0.52,0.36,0.76,0.85,0.81c0.32,0.03,0.66,0,0.98,0.06c0.49,0.09,0.74,0.47,0.83,0.91
			c0.13,0.61-0.43,0.71-0.8,0.83c-0.4,0.14-0.89,0.26-1.27,0.15c-1.47-0.43-2.71-0.31-3.8,0.91c-1.01,1.12-2.09,2.18-3.23,3.17
			c-0.57,0.5-1.31,0.86-2.03,1.13c-0.52,0.19-0.87-0.25-1.13-0.72c-0.18-0.33-0.25-0.98-0.88-0.65c-0.52,0.27-0.8,0.76-0.63,1.37
			c0.16,0.58,0.57,0.79,1.13,0.58c0.5-0.19,0.95-0.29,1.29,0.25c0.24,0.38,0.04,0.73-0.14,1.07c-0.14,0.26-0.45,0.54-0.63,0.36
			c-1.47-1.45-3.05-0.18-4.57-0.25c-0.37-1.19,0.95-2.05,0.61-3.23c0.43-0.47,0.55-1.06,0.71-1.64c0.09-0.1,0.18-0.2,0.28-0.3
			c0.21-0.25,0.42-0.5,0.62-0.75c0.63,0.75,1.06,0.15,1.44-0.26c0.71-0.77,1.25-0.78,1.65,0.24c0.27,0.7,0.7,0.67,1.27,0.35
			c0.42-0.24,0.87-0.42,1.32-0.6c0.52-0.22,1.27-0.24,1.12-1.09c-0.17-0.93-0.82-0.75-1.49-0.59c-0.41,0.1-0.89,0.08-1.16-0.36
			c-0.29-0.47,0.04-0.85,0.34-1.13c0.51-0.47,0.78-1.01,0.78-1.7c0,0-0.04-0.11-0.04-0.11c0.38-0.12,0.77-0.24,1.02-0.58
			c0.58-0.12,1.15-0.25,1.63-0.63c0.79-0.15,1.59-0.26,2.3-0.68C57.26,173.56,59.95,172.79,62.49,173.99z"/>
		<path class="st12" d="M185.17,271.71c-0.51,0.94-1.64,0.5-2.33,1.03c-0.44,0.17-0.89,0.34-1.33,0.51
			c-0.97,0.26-1.94,0.51-2.91,0.77c-0.42-1.26-1.47-0.69-2.18-0.6c-0.73,0.09-0.31,0.73-0.13,1.15c-0.32,0.15-0.65,0.3-0.97,0.44
			c-0.11-0.04-0.22-0.07-0.33-0.11c0.28-0.96,0.67-1.85-1.1-1.44c-1.21,0.29-2.32-0.32-2.96-1.47c-0.35-0.63-0.69-1.08-1.52-0.7
			c-0.29,0.13-0.85,0.21-0.83-0.4c0.01-0.45,0-1.31,0.6-1.09c2.27,0.82,4.65-0.84,6.9,0.4c-0.36,0.69-1,0.79-1.65,0.83
			c-0.43,0.03-0.8,0.17-0.67,0.67c0.13,0.52,0.55,0.72,1.01,0.39c0.88-0.63,2.73,0.03,2.61-2c-0.02-0.41,0.48-0.18,0.77-0.02
			c0.57,0.32,1.13,0.71,1.74,0.87c0.78,0.21,1.54,0.15,1.66-0.97c0.04-0.37-0.35-1.19,0.59-0.94c0.69,0.19,1.31-1.06,2.02,0
			c0.42,0.63,0.35,0.99-0.05,1.67C183.38,271.95,184.61,271.58,185.17,271.71z"/>
		<path class="st11" d="M49.73,175.36c0,0.69-0.27,1.23-0.78,1.7c-0.3,0.28-0.63,0.66-0.34,1.13c0.27,0.44,0.75,0.45,1.16,0.36
			c0.67-0.16,1.32-0.34,1.49,0.59c0.16,0.85-0.6,0.87-1.12,1.09c-0.45,0.19-0.9,0.37-1.32,0.6c-0.57,0.32-0.99,0.35-1.27-0.35
			c-0.4-1.02-0.94-1.01-1.65-0.24c-0.38,0.41-0.81,1.01-1.44,0.26c0.6-1.51,1.96-2.38,2.96-3.55
			C48.2,176.42,48.97,175.89,49.73,175.36z"/>
		<path class="st9" d="M138.34,257.97c-0.79-0.43-0.38-1.64-1.28-2c-0.13-0.21-0.26-0.41-0.39-0.62c-0.04-0.5-0.75-0.68-0.62-1.26
			c0.06-0.4-0.07-0.98,0.58-0.95c0.49,0.02,0.89,0.26,1.07,0.82c0.56,1.74,1.7,2.75,3.63,2.71c0.45-0.01,1.03-0.18,1.23,0.47
			c0.09,0.3,0.15,0.68-0.12,0.92c-0.49,0.44-0.92,0-1.32-0.2C140.16,257.39,139.25,257.46,138.34,257.97z"/>
		<path class="st9" d="M130.5,242.31c-0.03-0.64,0.11-1.26,0.78-1.43c0.55-0.14,0.77,0.44,1.1,0.78c0.46,0.48,0.74,0.87,0.18,1.48
			c-0.39,0.43-0.41,0.95-0.07,1.49c0.47,0.76,0.39,1.54-0.04,2.29C131.5,245.51,131.01,243.9,130.5,242.31z"/>
		<path class="st12" d="M204.14,257.98c-1.68-0.14-2.68-1.11-2.66-2.54c0.01-0.49-0.03-1,0.5-1.27c0.26-0.13,0.54-0.1,0.72,0.15
			c0.28,0.4,0.55,0.82,0.23,1.33c-0.1,0.17-0.17,0.35-0.36,0.75c1.03-0.37,1.5,0.42,2.21,0.6
			C204.57,257.33,204.36,257.65,204.14,257.98z"/>
		<path class="st9" d="M133.12,248.49c0.45-0.81,2.41-1.37,2.98-0.86c0.2,0.18,0.17,0.37,0.08,0.57c-0.14,0.3-0.34,0.7-0.68,0.54
			c-0.82-0.36-1.39,0.2-2.06,0.4C133.13,249.03,133.17,248.74,133.12,248.49z"/>
		<path class="st8" d="M176.29,274.57c-0.18-0.43-0.6-1.06,0.13-1.15c0.72-0.09,1.76-0.66,2.18,0.6c-0.33,0.52-0.9,0.18-1.32,0.35
			C176.94,274.38,176.67,274.77,176.29,274.57z"/>
		<path class="st13" d="M250.6,200.13c-0.33,2.34-1.46,4.39-2.49,6.43c-1.44,2.84-2.77,5.73-4.49,8.43
			c-4.45,6.96-9.77,13.12-16.21,18.33c-3.3,2.67-6.71,5.14-10.52,7.03c-0.79,0.19-1.3-0.42-1.94-0.68c0.18-0.54,0.36-1.08,0.54-1.62
			c0.24-0.98,0.48-1.95,0.71-2.93c0.53-1.49,0.85-3.02,0.92-4.6c0.13-0.41,0.26-0.82,0.39-1.24c0.52-0.09,0.95-0.34,1.33-0.71
			c1.69-1.32,3.49-2.52,5.06-3.97c5.17-4.77,9.8-10.02,13.26-16.19c2.8-4.99,5.31-10.12,6.54-15.77c0.45-0.47,0.5-1.1,0.68-1.68
			c1.64,0.68,2.06,2.41,3,3.65C248.67,196.29,250.11,197.96,250.6,200.13z"/>
		<path class="st13" d="M253.21,161.21c-1.62-0.66-2.82-1.97-4.34-2.8c-0.52-0.29-0.97-0.7-1.59-0.77c-0.65-0.32-1.3-0.65-1.95-0.97
			c-0.76-0.45-1.52-0.89-2.27-1.34c-0.57-3.13-1.87-5.99-3.3-8.79c-0.24-0.54-0.49-1.08-0.73-1.62c-1.09-2.18-2.17-4.38-3.8-6.23
			c-0.14-0.21-0.28-0.41-0.43-0.62c-1.1-2.09-2.49-3.96-4.19-5.6c-0.46-0.53-0.91-1.06-1.37-1.59c-1.89-2.21-3.9-4.3-6.17-6.14
			c-0.21-0.15-0.43-0.29-0.64-0.44c-1.04-1.17-2.4-1.93-3.58-2.92c-1.27-1.06-2.91-1.59-3.98-2.9c0.21-0.1,0.3-0.21,0.03-0.36
			c0.54-0.38,1.15-0.54,1.79-0.64c3.08-0.48,5.96-1.69,9-2.33c8.61,6.83,15.73,14.93,20.81,24.71c3.15,6.06,5.53,12.42,6.92,19.13
			C253.58,159.73,253.64,160.51,253.21,161.21z"/>
		<path class="st0" d="M235.83,153.73c2.55-0.11,4.81,1.09,7.22,1.61c0.76,0.45,1.52,0.89,2.27,1.34c-1.14,1.37-2.98,1.74-4.89,1.01
			c-1.22-0.47-2.42-0.98-3.66-1.35c-1.11-0.33-1.83-0.7-1-1.97C235.88,154.21,235.82,153.94,235.83,153.73z"/>
		<path class="st0" d="M233.21,153.36c0.44,0.03,0.87,0.07,1.31,0.1c-0.2,0.93-0.87,1.5-1.65,1.85c-1.37,0.62-2.74,1.19-3.95,2.13
			c-0.52,0.41-1.2,1.12-2,0.57c-0.82-0.56-0.78-1.45-0.58-2.33c1.51-1.92,3.84-1.73,5.89-2.26c0.21-0.05,0.43-0.05,0.64-0.07
			C232.98,153.36,233.1,153.36,233.21,153.36z"/>
		<path class="st0" d="M240.01,184.48c-0.77-1.54-2.48-2.32-3.22-3.89c0.13-0.25-0.19-1.01,0.44-0.69c1.37,0.7,2.67,1.54,3.94,2.41
			c0.42,0.29,0.8,0.88,0.64,1.41C241.54,184.56,240.72,184.46,240.01,184.48z"/>
		<path class="st0" d="M229.61,173.04c-0.84-0.4-1.09-1.3-1.64-1.95c0.25-0.39,0.66-0.6,1.08-0.64c0.5-0.05,1.13-0.3,1.45,0.31
			c0.27,0.5-0.04,0.93-0.4,1.28C229.81,172.33,229.61,172.64,229.61,173.04z"/>
		<path class="st14" d="M267.59,227.27c-0.94-0.41-0.63-1.25-0.69-1.97c0.58-0.03,1.14,0.02,1.65,0.34
			C268.25,226.19,268.11,226.84,267.59,227.27z"/>
		<path class="st1" d="M225.69,115.16c-3.04,0.64-5.92,1.85-9,2.33c-0.64,0.1-1.25,0.27-1.79,0.64c-0.11,0.09-0.22,0.19-0.33,0.28
			c-0.22,0.04-0.44,0.07-0.66,0.11c-0.66,0.32-1.31,0.63-1.97,0.95c-1.16,0.32-2.34,0.4-3.51,0.84c-1.88,0.7-3.52,2.05-5.62,2.13
			c-0.07-0.5-0.29-1.17-0.82-0.87c-1.22,0.7-2.92,0.96-3.11,2.81c-1.13,0.57-2.52,0.84-3.43,1.53c-2.14,1.64-4.62,2.24-7.04,3.07
			c-1.31,0.18-2.62,0.36-3.92,0.54c0.04-1.22-1.1-0.87-1.69-1.15c-0.58-0.27-0.88,0.34-0.95,0.93c-0.96,0.08-1.72-0.51-2.58-0.75
			c-0.86-0.61-1.76-1.07-2.4-2.03c-2.37-3.56-1.54-7.12-0.21-10.71c0.97-2.62,2.83-4.73,4.2-7.12c0.01-0.11,0.03-0.21,0.04-0.32
			c0.76-0.03,1.09-0.67,1.54-1.11c2.15-2.12,4.36-4.17,6.92-5.79c0.9,0.26,1.11,0.91,1.03,1.76c-0.03,0.32-0.01,0.7,0.4,0.78
			c0.43,0.09,0.44-0.34,0.63-0.57c0.6-0.69,0.76-1.79,2.09-1.82c0.64-0.01,0.96-2.34,0.49-3c0.31-0.15,0.63-0.3,0.94-0.45
			c0.67,0.66,0.61,1.82,1.65,2.27c0.45,0.19,0.24,0.69-0.09,0.94c-1.82,1.41-3.65,2.83-5.79,3.74c-0.4,0.17-0.8,0.36-1.14,0.62
			c-2.09,1.6-4.16,3.22-5.17,5.79c-0.26,0.67-0.98,0.25-1.45,0.44c-0.72,0.28-2.02,0.24-0.96,1.61c0.25,0.32-0.02,0.58-0.17,0.87
			c-0.75,1.41-1.88,2.69-1.62,4.48c0.02,0.14-0.05,0.39-0.16,0.44c-2.28,1.1-0.5,2.91-0.74,4.36c-0.13,0.79,0.68,1.12,1.31,1.21
			c3.49,0.51,6.88,0.86,10.36-0.73c2.22-1.01,3.99-3.01,6.62-3.15c0.25-0.01,0.55-0.17,0.72-0.36c1.42-1.62,3.36-1.87,5.32-2.37
			c1.64-0.42,3.11-1.63,4.83-2.12c0.35-0.1,0.66-0.31,1.05-0.36c3.37-0.42,6.39-1.69,9.4-3.26c1.42-0.74,3.42-0.99,5.19-0.57
			c1.34,0.32,2.39,0.62,2.76-1.29c0.25-1.29,2.76-2.06,4.55-1.24c1.63,0.75,3.14,0.47,4.58-0.01c1.66-0.55,3.59-0.54,4.87-2.05
			c0.42-0.49,0.93-0.09,1.36,0.04c1.44,0.43,2.79,0.3,4.04-0.54c0.61-0.41,1.26-0.59,2-0.56c0.53,0.02,1.08,0.12,1.37-0.58
			c0.21-0.52,0.9-0.54,1.08-0.23c0.65,1.09,1.93,1.09,2.78,1.79c0.22,0.22,0.44,0.44,0.65,0.65c-6.54,1.53-13.08,3.04-19.61,4.58
			c-2.58,0.61-5.14,1.31-7.71,1.97C226.39,114.67,225.99,114.82,225.69,115.16z"/>
		<path class="st1" d="M254.14,108c-0.22-0.22-0.44-0.44-0.65-0.65c-0.08-0.83-0.68-1.06-1.35-1.39c-2.08-1.02-2.34-1.83-1.58-4.2
			c1.69,1.26,3.36,2.55,4.84,4.06c0.42,0.43,0.83,0.84,0.77,1.5C255.49,107.55,254.82,107.78,254.14,108z"/>
		<path class="st15" d="M273.13,107.39c-1.62,0.59-3.28,0.19-4.92,0.23c-0.14-1.21,0.42-1.69,1.61-1.59c0.65,0.05,1.3,0.04,1.95,0
			C272.74,105.99,273.18,106.43,273.13,107.39z"/>
		<path class="st5" d="M151.11,101.47c1.48,0.16,2.85-0.31,4.25-0.65c0.16,0.01,0.38-0.05,0.48,0.03c1.46,1.17,2.66,1,3.63-0.63
			c0.13-0.22,0.37-0.24,0.54-0.06c0.26,0.26,0.33,0.63,0.03,0.85c-0.53,0.38-0.85,0.81-0.75,1.48c-2.78,1.05-5.57,2.07-8.33,3.16
			c-3.61,1.42-7,3.27-10.3,5.31c-1.32-0.45-0.24-0.95,0.08-1.13c0.71-0.42,0.98-0.95,0.88-1.72c-0.09-0.72,0.2-1.37,0.33-2.05
			c0.33-0.22,0.65-0.44,0.98-0.65c1.46,0.19,2.63-0.19,3.27-1.63c0.55-0.22,1.09-0.44,1.64-0.65
			C149.38,103.46,150.79,103.55,151.11,101.47z"/>
		<path class="st16" d="M141.95,106.04c-0.13,0.68-0.43,1.33-0.33,2.05c0.1,0.77-0.17,1.31-0.88,1.72c-0.31,0.18-1.4,0.68-0.08,1.13
			c-0.41,0.81-1.51,0.62-1.98,1.34c-0.69-0.15-0.97,0.65-1.59,0.67c-0.02-1.43-0.03-2.87-0.05-4.3c0.2-2.29,0.16-4.6,0.65-6.86
			c1.23,0.14,1.02,1.09,0.96,1.85C138.46,106.42,139.19,106.97,141.95,106.04z"/>
		<path class="st16" d="M159.3,102.48c-0.1-0.67,0.23-1.1,0.75-1.48c0.3-0.22,0.23-0.59-0.03-0.85c-0.18-0.18-0.42-0.16-0.54,0.06
			c-0.97,1.63-2.18,1.8-3.63,0.63c-0.1-0.08-0.32-0.02-0.48-0.03c0.95-0.96,2.07-1.48,3.46-1.31c0.79,0.1,1.44-0.13,2.04-0.69
			c0.56-0.53,1.34-0.22,2.02-0.28c-0.09,1.45,1.06,0.98,1.68,0.94c1.37-0.08,1.8,0.37,1.26,1.65
			C163.65,101.58,161.48,102.03,159.3,102.48z"/>
		<path class="st16" d="M146.21,103.76c-0.64,1.44-1.82,1.82-3.27,1.63C143.66,104.11,144.73,103.52,146.21,103.76z"/>
		<path class="st16" d="M151.11,101.47c-0.32,2.08-1.73,1.99-3.27,1.63C148.79,102.28,150.01,101.99,151.11,101.47z"/>
		<path class="st1" d="M193.98,98.6c0.47,0.66,0.15,2.99-0.49,3c-1.33,0.03-1.49,1.13-2.09,1.82c-0.2,0.23-0.2,0.66-0.63,0.57
			c-0.41-0.08-0.43-0.46-0.4-0.78c0.09-0.85-0.13-1.5-1.03-1.76c0-0.3-0.01-0.6-0.01-0.89c0,0,0.1-0.11,0.1-0.11
			C191.31,100.71,192.45,99.17,193.98,98.6z"/>
		<path class="st13" d="M159.3,102.48c2.18-0.45,4.36-0.91,6.53-1.36c2.15-0.08,4.46-0.15,6.33-0.82c2.15-0.77,4.14,0.32,6.1-0.41
			c0.01,1.3-0.68,2.84,1.29,3.44c0.36,0.11,0.39,0.62,0.3,1.01c-0.16,0.69-0.7,0.73-1.26,0.72c-0.97-0.52-2,0.13-2.84,0.26
			c-1.77,0.28-3.38,0.97-5.33,0.69c-0.84-0.12-1.93,0.36-2.94,0.05c-0.38-0.12-1.03,0.22-1.12-0.34c-0.1-0.6,0.5-0.98,0.97-1.16
			c0.48-0.18,1.07-0.14,1.6-0.14c1.34,0,2.63-0.22,3.98-0.65c-2.4-2.13-7-0.62-8.66,0.79c-0.66,0.56-0.33,1.03,0.34,1.36
			c0.28,0.14,0.67,0.31,0.3,0.7c-0.23,0.24-0.7,0.4-0.87,0.09c-0.79-1.4-1.82-0.86-2.87-0.47c-0.72,0.27-1.3-0.15-1.74-0.62
			c-0.6-0.65-1.27-0.57-1.68-0.03c-0.9,1.19-2.16,1.27-3.43,1.43c-0.38,0.05-0.83,0.01-0.8,0.56c0.03,0.53,0.4,0.72,0.9,0.7
			c1-0.03,2.01,0.12,2.77-0.87c0.47-0.6,1.47-0.7,1.88-0.16c0.41,0.55-0.54,0.9-0.87,1.35c-0.06,0.08-0.19,0.21-0.25,0.19
			c-1.73-0.51-2.95,0.91-4.48,1.13c-0.57,0.08-0.99,0.26-1.45,0.6c-1.52,1.1-3.04,2.17-4.79,2.93c-1.23,0.53-2.46,1.11-3.65,1.76
			c-0.49,0.27-0.72,0.65-0.44,1.21c0.37,0.73,0.96,1.17,1.8,1.16c0.75-0.01,0.7-0.6,0.6-1.06c-0.12-0.5-0.08-0.96,0.39-1.09
			c0.93-0.26,1.76-0.7,2.64-1.05c0.59-0.24,0.97,0.91,1.65,1.15c-2.73,1.64-5.47,3.28-8.2,4.92c-0.01-0.87-0.53-1.7,0.19-2.62
			c0.38-0.49-0.23-0.95-0.87-1.01c-0.42-0.04-0.99,0.08-1.07-0.48c-0.06-0.45,0.49-0.67,0.76-1c0.37-0.47,0.96-0.46,1.44-0.71
			c0.26-0.14,0.75-0.07,0.68-0.53c-0.06-0.46-0.48-0.56-0.88-0.54c-0.43,0.02-0.87,0.04-1.27,0.18c-1.9,0.67-1.89,0.68-2.27-1.47
			c0.47-0.72,1.57-0.53,1.98-1.34c3.3-2.03,6.69-3.89,10.3-5.31C153.73,104.56,156.52,103.54,159.3,102.48z M145.17,113.22
			c0.58-0.66,1.46-1.27,2.47-1.7c0.19-0.08,0.11-0.39-0.04-0.57c-0.26-0.31-0.55-0.25-0.87-0.09c-0.77,0.37-1.3,1.15-2.24,1.23
			c-0.14,0.01-0.37,0.44-0.35,0.66C144.17,113.12,144.53,113.21,145.17,113.22z M150.67,110.01c-0.06-0.54-0.45-0.67-0.9-0.68
			c-0.49-0.01-1.06-0.03-1.13,0.59c-0.07,0.55,0.42,0.67,0.87,0.69C150,110.63,150.49,110.62,150.67,110.01z"/>
		<path class="st17" d="M178.59,105.06c0.56,0.01,1.1-0.04,1.26-0.72c0.09-0.39,0.06-0.9-0.3-1.01c-1.97-0.6-1.27-2.14-1.29-3.44
			c3.72-0.25,7.39,0.38,11.08,0.67c0,0.3,0.01,0.6,0.01,0.89c-2.56,1.63-4.77,3.68-6.92,5.79c-0.45,0.44-0.78,1.08-1.54,1.11
			c-0.16-0.93,0.52-2.34-1.32-2.32c-0.67,0.01-1.36,0.06-1.96-0.33C177.93,105.5,178.26,105.28,178.59,105.06z"/>
		<path class="st11" d="M77.91,184.77c-0.19-1.64-0.04-3.27,0.33-4.87c0.66,0.39,1.3,0.79,2.1,0.24c0.64-0.45,1.02,0.1,1.35,0.5
			c0.67,0.81,1.48,1.06,2.47,0.81c0.16-0.04,0.37-0.17,0.46-0.11c2.53,1.69,1.98-0.38,2.07-1.68c0.02-0.28,0.04-0.56,0.38-0.62
			c2.14-0.39,3.01-1.72,2.89-3.82c-0.03-0.49,0.03-0.9,0.47-1.3c1.55-1.43,2.56-3.04,1.54-5.26c-0.16-0.36-0.15-0.87,0.36-1.32
			c0.37,0.53,0.65,1.23,1.38,1.32c0.84,0.1,1-0.73,1.45-1.15c1.34-1.27,2.84-2.41,3.78-4.18c0.73,0.55,0.54,1.23,0.33,1.89
			c-0.18,0.59-0.28,1.21-0.01,1.75c0.45,0.89,1.37,1.14,2.22,1.08c0.9-0.06,0.9-0.95,0.91-1.66c0.01-0.87,0.1-1.74-0.29-2.57
			c-0.34-0.73-0.3-1.4,0.05-2.17c0.5-1.11,0.57-2.24-0.91-2.8c-0.24-0.09-0.53-0.31-0.6-0.53c-0.3-0.98-0.53-1.92-1.94-1.66
			c-0.24,0.04-0.62-0.47-0.47-0.91c0.16-0.49,0.52-0.2,0.81-0.13c0.35,0.09,0.63-0.05,0.91-0.25c0.69-0.5,1.11-0.38,1.15,0.53
			c0.02,0.43,0.31,0.95,0.63,0.66c0.8-0.74,1.99-0.83,2.66-1.72c0.17-0.22,0.4-0.62,0.22-0.72c-1.79-0.92-0.59-1.3,0.26-1.85
			c0.27-0.18,0.15-0.62-0.12-0.86c-0.47-0.41-1.01-0.35-1.53-0.14c-0.34,0.13-0.38,0.5-0.53,0.79c-0.23,0.47-0.59,0.41-0.94,0.12
			c-0.32-0.27-0.27-0.6,0.03-0.83c1.11-0.91,1.46-2.92,3.64-2.3c0.51,0.14,0.88-0.71,1.13-1.27c0.55-1.26,1.54-1.82,2.84-2.14
			c0.69-0.17,0.64,0.35,0.9,0.59c-0.7,2.04-1.38,4.09-2.1,6.12c-2.04,5.73-3.02,11.7-3.4,17.71c-0.25,3.98-0.32,8.01,0.22,12.03
			c0.63,4.66,1.48,9.26,2.6,13.82c-2.85-0.3-5.39-1.57-7.98-2.61c-6.68-2.67-13.3-5.49-19.93-8.28
			C79.07,184.78,78.5,184.8,77.91,184.77z M95.19,184.9c1.03,0.46,1.62,0.62,2.07,0.96c0.64,0.47,0.93,0.31,1.14-0.38
			c0.1-0.34-0.06-0.86,0.46-0.93c0.65-0.09,0.54,0.56,0.73,0.9c0.26,0.47,0.54,0.93,0.26,1.53c-0.16,0.34-0.19,0.77,0.26,0.99
			c0.31,0.15,0.64,0.1,0.92-0.12c0.35-0.27,0.41-0.62,0.21-1.01c-0.15-0.29-0.61-0.52-0.03-0.91c0.73-0.5,1.25-3.28,0.61-3.88
			c-1.35-1.26-1.05-2.95-0.6-4.09c1.06-2.64-0.47-5.02-0.23-7.53c0.02-0.26-0.11-0.72-0.5-0.71c-0.22,0-0.51,0.24-0.62,0.45
			c-0.47,0.88-0.63,1.9-1.85,2.32c-0.5,0.17-0.14,1.15,0.33,1.35c1.48,0.62,0.89,1.21,0.1,1.88c-0.4,0.33-0.38,0.62,0.07,0.87
			c1.28,0.72,1.52,1.33-0.2,1.7c-0.4,0.09-0.55,0.34-0.5,0.7c0.08,0.58,0.44,0.25,0.72,0.21c1.08-0.16,1.57,0.45,1.08,1.49
			C98.77,182.49,98.31,184.71,95.19,184.9z"/>
		<path class="st13" d="M177.29,250.15c-7.73-0.29-15.25-1.7-22.51-4.31c-9.53-3.43-18.08-8.55-25.53-15.43
			c-0.4-0.37-0.72-0.81-1.08-1.21c1.62-0.64,3.32-0.11,4.96-0.35c1.69-0.24,3.4-0.42,5.07-0.74c0.59-0.11,1.16-0.18,1.75-0.17
			c0.78,0.52,1.56,1.04,2.34,1.56c1.76,1.26,3.5,2.55,5.53,3.37c0.05,0.18,0.15,0.28,0.35,0.23c1.51,1.04,3.14,1.82,4.88,2.38
			c0.05,0.18,0.15,0.29,0.35,0.21c2.52,1.24,5.18,2.08,7.84,2.96c3.86,1.1,7.78,1.9,11.78,2.29c0.54,0.04,1.08,0.07,1.61,0.11
			c2.16,0.64,4.38,0.04,6.56,0.33c0.05,0.26,0.24,0.62,0.14,0.76c-1.46,1.99,0.35,1.34,1.17,1.48
			C181,245.96,179.22,248.12,177.29,250.15z"/>
		<path class="st13" d="M107.57,195.92c-1.13-4.56-1.98-9.16-2.6-13.82c-0.54-4.01-0.47-8.05-0.22-12.03
			c0.38-6.01,1.36-11.98,3.4-17.71c0.72-2.03,1.4-4.08,2.1-6.12c1.05-0.85,0.95-2.26,1.61-3.3c0.22,0.01,0.43,0.02,0.65,0.04
			c0.32,1.63,1.04,3.13,1.56,4.69c0.79,2.35,2.46,4.3,3.09,6.72c-0.92,1.03-1.04,2.35-1.32,3.61c-1.04,3.9-1.87,7.84-2.01,11.9
			c-0.02,0.64,0.08,1.3-0.39,1.84c-1.15-0.28-1.47-1.18-1.6-2.19c-0.16-1.23-1.19-1.16-1.99-1.22c-1.02-0.07-0.55,0.84-0.58,1.31
			c-0.04,0.68-0.45,1.23-0.56,1.83c-0.35,1.96-0.53,3.95-0.72,5.93c-0.05,0.5,0.54,0.63,0.84,0.92c0.44,0.43,0.9,0.88,0.72,1.54
			c-0.59,2.16,0.04,4.41-0.59,6.57c-0.21,0.72-0.16,1.53,0.79,1.89c0.76,0.29,0.88,0.78,0.57,1.56c-0.59,1.46,0.11,2.7,1.72,3.05
			c0.48,0.11,0.79,0.3,1.01,0.69c0.9,1.56,2.13,2.68,4,2.92c0.74,0.97,0.82,2.22,1.35,3.28c-0.6,0.16-1.2,0.29-1.66-0.31
			c0-0.82-0.3-1.63-1.18-1.54c-0.76,0.08,0.05,0.76-0.1,1.15C112.75,198.24,109.86,197.81,107.57,195.92z"/>
		<path class="st18" d="M133.13,228.84c-1.64,0.25-3.35-0.29-4.96,0.35c-0.31-0.12-0.62-0.24-0.93-0.36
			C129.2,228.4,131.17,228.4,133.13,228.84z"/>
		<path class="st13" d="M115.46,199.12c0.14-0.4-0.67-1.08,0.1-1.15c0.88-0.09,1.18,0.72,1.18,1.54
			C116.27,199.52,115.84,199.41,115.46,199.12z"/>
		<path class="st8" d="M184.13,241.37c0.27-0.18,0.58-0.34,0.61-0.72c3.67-4.99,7.12-10.11,9.83-15.69c1.74-3.58,3.89-6.85,6.6-9.76
			c0.95-0.3,1.6-1.01,2.31-1.65c1.89-0.97,3.7-1.85,6.03-1.46c2.63,0.44,4.06,2.13,5.44,4.06c-0.04,0.1-0.05,0.21-0.01,0.31
			c-0.63,0.05-1.56,0.07-1.12,0.95c0.42,0.84,0.82,1.98,2.12,2.02c1.22,1.66,1.14,3.62,1.3,5.53c0.06,1.44-0.39,2.92,0.29,4.32
			c-0.13,0.41-0.26,0.82-0.39,1.24c-1-1.33-1.54-1.26-1.72,0.48c-0.04,0.41-0.55,0.77-0.84,1.15c-0.47,0.2-1,0.99-1.31-0.14
			c-0.08-0.3-0.26-0.45-0.56-0.5c-1.34-0.24-1.04-0.6-0.13-1.15c1.18-0.72,1.85-1.75,1.69-3.24c-0.16-1.45,0.13-2.91-0.23-4.37
			c-0.31-1.24-0.94-2.03-2.12-2.41c-0.8-0.25-1.55-0.81-1.34-1.6c0.46-1.71-0.92-2.31-1.73-3.18c-0.86-0.93-2.59-0.44-3.06,0.79
			c-0.17,0.45-0.33,0.78-0.77,0.95c-2.86,1.08-4.82,3.24-6.11,5.84c-0.84,1.7-1.78,3.39-2.5,5.19c-0.53,1.34-1.46,2.53-1.55,4.08
			c-0.01,0.13-0.29,0.34-0.47,0.36c-1.02,0.15-1.34,1.19-1.18,1.69c0.53,1.66-1.11,2.83-0.75,4.39c0.08,0.34-0.21,0.69-0.67,0.8
			c-0.9,0.2-1.77,0.55-2.68,0.62c-0.84,0.07-1.28,0.43-1.59,1.14c-0.27,0.61-0.63,1.15-1.4,1.2c-1.79,0.05-2.06,0.39-1.31,1.63
			c0.07,1.19,0,2.19-1.11,3.11c-0.78,0.64-0.99,1.94-1.48,2.93c-0.48,0.98-1.1,1.45-1.99,1.8c-1.17,0.65-1.21,2.03-1.9,3.02
			c-1.01,1.43-1.82,2.8-3.72,3.21c-0.98,0.21-1.78,0.95-2.36,1.84c-0.99,1.5-2.22,2.78-3.68,3.84c-0.78,0.56-1.32,1.3-0.85,2.36
			c0.71,1.6-1.2,3.39-2.64,3.68c-1.22,0.24-1.78,0.76-1.35,1.99c0.28,0.8,0.14,1.43-0.7,1.7c-0.69,0.22-1.44,1.01-2.12-0.07
			c-0.41-0.66-1.62-0.57-1.61-1.65c0.5-1.39,1.89-2.06,2.62-3.26c2.54-2.71,4.97-5.51,7.2-8.49c0.11-0.11,0.22-0.22,0.33-0.33
			c2.72-3.18,5.55-6.26,7.86-9.77c1.93-2.04,3.72-4.19,5.23-6.56C183.05,242.85,183.59,242.11,184.13,241.37z"/>
		<path class="st12" d="M196.9,233.79c0.77-1.31,1.05-2.89,2.29-3.92c-0.04-0.57,0.02-1.13,0.33-1.63c0.65-0.3,0.94-0.95,1.17-1.51
			c0.37-0.91,0.81-1.62,1.87-1.39c0.98,0.22,1.86,0.3,2.38,1.69c0.85,2.27-0.31,4.03-0.8,5.94c-0.5,1.94-1.11,3.84-1.38,5.83
			c-0.24,1.8-1.66,2.89-2.78,4.09c-1.74,1.87-3.65,3.58-4.02,6.28c-0.25,1.81-1.87,2.74-2.64,4.22c-0.3,0.58-0.85,1.01-1.06,1.74
			c-0.28,0.96-1.13,1.75-2.05,1.78c-1.42,0.05-2.05,0.98-2.33,1.94c-0.64,2.19-2.55,2.9-4.13,4.02c-0.13,0.09-0.31,0.14-0.46,0.14
			c-0.79,0-0.08,1.9-1.16,1.12c-1.8-1.28-2.15-3.03-1.32-4.6c0.93-1.76,2.23-3.27,3.4-4.88c1.51-2.08,2.97-4.21,4.3-6.41
			c0.94-1.55,2.14-2.86,3.45-4.04c1.3-1.18,1.95-2.69,2.66-4.2c0.22-0.44,0.44-0.87,0.65-1.31c0.22-0.87,0.44-1.74,0.65-2.61
			C196.47,235.41,196.16,234.37,196.9,233.79z"/>
		<path class="st12" d="M199.09,258.99c-0.91,0.98-1.47,2.2-2.18,3.34c-0.73,1.17-1.87,2.02-2.51,3.33
			c-0.34,0.7-1.52,1.17-2.23,1.29c-0.92,0.17-1.77,1.64-2.99,0.36c-0.34-0.36-0.64,0.71-1.11,0.95c-0.37,0.19-0.75,1.09-1.1,0.39
			c-0.4-0.83-1.98-1.06-1.37-2.31c0.42-0.86,1.13-0.52,1.8-0.1c0.87,0.55,1.54,0.47,1.65-0.76c0.04-0.42,0.04-1.12,0.61-0.87
			c1.32,0.58,1.69-0.36,2.45-1.06c1.35-1.26,2.8-2.44,4.6-3.1c0.65-0.24,1.17-0.8,1.18-1.62c0-0.3-0.05-0.74,0.43-0.7
			C198.72,258.16,198.93,258.5,199.09,258.99z"/>
		<path class="st8" d="M199.52,228.24c-0.31,0.5-0.36,1.06-0.33,1.63c-0.44-1.03-2.16-1.02-2.12-2.23c0.03-0.97,1.14-1.61,1.61-2.53
			c0.65-1.28,0.84-2.82,2.05-3.81c0.49-0.4,0.9-0.8,1.54-0.26c0.63,0.54,0.28,1.14-0.01,1.6c-0.34,0.54-0.83,1.01-1.35,1.39
			c-0.65,0.49-1.1,1.02-1.07,1.87c0.02,0.57-0.38,0.81-0.77,1.14C198.2,227.75,198.42,228.18,199.52,228.24z"/>
		<path class="st8" d="M184.8,244.25c-0.76-1.25-0.48-1.58,1.31-1.63c0.91,0.77,1.22-0.11,1.61-0.63c0.57-0.78,3.44-1.89,4.33-1.65
			c0.28,0.08,0.54,0.17,0.53,0.5c0,0.5-0.37,0.97-0.73,0.96c-1.62-0.03-2.57,0.81-3.32,2.11c-0.23,0.4-0.75,0.39-1.19,0.27
			c-0.3-0.09-0.69-0.32-0.85,0.09C185.88,245.78,185.35,244.56,184.8,244.25z"/>
		<path class="st12" d="M179.91,252.96c0.09-0.3,0.07-0.88,0.47-0.85c2.41,0.2,1.97-2.36,3.23-3.25c0.39-0.27-0.05-1.12,0.59-1.18
			c0.52-0.05,0.76,0.51,0.98,0.95c0.28,0.55,0.54,1.27,0.04,1.66c-1.36,1.03-2.41,2.27-3.27,3.73c-0.27,0.47-0.82,0.66-1.43,0.34
			C179.94,254.06,179.86,253.57,179.91,252.96z"/>
		<path class="st8" d="M214.57,232.16c0.29-0.38,0.8-0.74,0.84-1.15c0.19-1.74,0.72-1.82,1.72-0.48c-0.07,1.58-0.39,3.11-0.92,4.6
			c-0.09-0.18-0.18-0.52-0.27-0.52C214,234.6,214.27,233.39,214.57,232.16z"/>
		<path class="st8" d="M213.91,225.68c0,0.6-0.01,1.08,0,1.57c0.02,0.64-0.13,1.36-0.8,1.39c-0.66,0.03-0.76-0.9-0.7-1.27
			c0.21-1.31-0.02-2.54-0.32-3.78c-0.11-0.47,0.12-0.73,0.53-0.85c0.57-0.16,0.93,0.12,1.13,0.64
			C214.06,224.17,213.84,224.99,213.91,225.68z"/>
		<path class="st8" d="M214.3,241.66c-0.33,0.75-0.65,1.51-0.98,2.26c-0.26,0.54-0.51,1.08-0.77,1.62
			c-1.75-1.02-1.84-2.36-0.05-3.27C213,242.02,213.39,240.84,214.3,241.66z"/>
		<path class="st8" d="M207.85,217.76c-0.57-0.06-1.25-0.55-1.36-1.41c-0.09-0.65,0.63-0.81,1.16-0.82c0.99-0.03,1.2,0.77,1.33,1.51
			C209.07,217.6,208.68,217.79,207.85,217.76z"/>
		<path class="st8" d="M195.59,231.08c0.08-0.54,0.02-1.36,0.76-1.35c0.64,0,0.86,0.69,0.89,1.36c0.03,0.7-0.2,1.25-0.93,1.26
			C195.54,232.35,195.63,231.66,195.59,231.08z"/>
		<path class="st8" d="M195.27,238.69c-0.22,0.44-0.44,0.87-0.65,1.31c-0.08-0.3,0.2-0.84-0.49-0.74c-0.96,0.14-1.02-0.58-1.11-1.21
			c-0.08-0.54,0.36-0.8,0.78-0.86c0.79-0.11,0.75,0.57,0.87,1.07C194.74,238.58,195,238.65,195.27,238.69z"/>
		<path class="st8" d="M196.9,233.79c-0.75,0.58-0.44,1.62-0.98,2.29c0.02-0.94,0.19-2.05-1.37-1.14c-0.34,0.2-0.65,0.01-0.77-0.34
			c-0.14-0.39,0.14-0.63,0.46-0.72C195.12,233.63,196.01,233.37,196.9,233.79z"/>
		<path class="st8" d="M215.5,238.05c-0.18,0.54-0.36,1.08-0.54,1.62c-0.12,0.12-0.25,0.24-0.37,0.37
			c-0.03-0.46-0.21-0.84-0.67-0.98c-0.81-0.24-0.84-0.9-0.5-1.36c0.44-0.6,1.03-0.34,1.42,0.23
			C215.03,238.24,215.25,238.15,215.5,238.05z"/>
		<path class="st8" d="M207.42,253.09c-0.08,1.18-0.81,1.96-1.65,2.66C205.26,253.71,205.64,253.1,207.42,253.09z"/>
		<path class="st19" d="M214.58,240.04c0.12-0.12,0.25-0.24,0.37-0.37c0.63,0.26,1.14,0.87,1.94,0.68
			c-0.24,0.41-0.72,0.69-0.71,1.25c-0.52,0-1.04,0-1.56,0.01C214.07,241.09,214.58,240.56,214.58,240.04z"/>
		<path class="st8" d="M211.9,246.86c-0.35,0.7-0.46,1.55-1.24,1.99c-0.54-0.5-0.89-1-0.45-1.78
			C210.71,246.18,211.36,247.08,211.9,246.86z"/>
		<path class="st10" d="M117.16,154.38c-0.63-2.42-2.3-4.36-3.09-6.72c-0.53-1.56-1.24-3.06-1.56-4.69c0.36-0.9,0.71-1.8,1.87-1.94
			c0.19-0.02,0.4-0.2,0.52-0.36c0.37-0.47,0.38-4.06,0.06-4.58c-0.77-1.25-0.63-2.7-0.79-4.07c-0.11-0.97-0.01-1.96-0.02-2.94
			c-0.02-1.15,0.32-1.33,1.35-0.71c0.82,0.49,1.01,1.22,1.24,1.99c0.09,0.3,0.02,0.71,0.46,0.75c0.57,0.05,0.47-0.46,0.59-0.79
			c0.3-0.84,0.4-1.67,0.09-2.55c-0.14-0.39-0.2-0.9-0.08-1.28c0.37-1.16,0.47-2.2-0.6-3.08c-0.13-0.1-0.02-0.5-0.02-0.8
			c1.79,1.2,1.64,1.2,1.62,3.33c-0.02,1.61,0.32,3.22,0.28,4.86c-0.02,0.77-0.07,1.28-1.03,1.51c-0.54,0.13-1.42,0.37-1.44,1.3
			c1.27-0.19,0.59,2.15,2.42,1.65c2.53-0.69,4.3,1.24,3.96,3.87c-0.06,0.48-0.13,0.88-0.72,0.86c-0.51-0.02-0.8-0.29-0.88-0.79
			c-0.01-0.05-0.01-0.11-0.02-0.16c-0.18-0.62,0.38-1.81-0.49-1.77c-0.97,0.05-0.33,1.25-0.48,1.93c-0.08,0.36-0.01,0.76-0.02,1.14
			c-0.01,0.38,0.03,0.81-0.46,0.93c-0.47,0.12-0.92-0.03-1.08-0.5c-0.22-0.66-0.6-0.92-1.22-0.62c-0.76,0.37-0.27,0.91-0.09,1.39
			c0.26,0.7,0.24,1.71,1.52,1.14c0.39-0.17,0.89,0.11,1.15,0.47c0.39,0.54-0.21,0.7-0.46,1.01c-0.61,0.77-0.22,1.09,0.59,1.07
			c0.67-0.02,1.28,0.19,1.92,0.32c0.42,0.09,0.76,0.23,0.73,0.7c-0.14,2.14,1.65,2.45,2.99,3.18c0.27,0.15,0.66,0.01,0.86,0.36
			c0.17,0.3,0.16,0.89,0.67,0.74c0.51-0.15,0.4-0.71,0.4-1.14c-0.02-1.12,0.24-2.3-0.96-3.09c-0.48-0.32-0.18-0.6,0.27-0.78
			c1-0.41,0.56-0.98,0.12-1.51c-0.1-0.12-0.28-0.17-0.4-0.28c-2.24-2.08-2.26-2.91,0.18-4.67c1.25-0.91,1.03-1.96,0.28-2.73
			c-0.72-0.74-0.77-1.46-0.8-2.33c-0.03-1.21,0.35-2.54-0.98-3.41c-0.36-0.23-0.22-0.55,0.19-0.71c0.2-0.08,0.45-0.16,0.55-0.32
			c0.69-1.08-1.37-1.54-0.78-2.05c0.83-0.72,1.28-1.02,0.32-1.92c-0.81-0.76-1.12-1.6,0.13-2.33c0.98-0.57,0.57-1.58,0.55-2.38
			c-0.03-0.99,0.38-1.88,1.25-1.59c0.91,0.3,2.7-0.82,2.72,1.32c0,0.11-0.02,0.24,0.03,0.32c0.44,0.66,0.21,2.08,1.29,1.93
			c1.16-0.17,0.18-1.26,0.28-1.93c0.13-0.91-0.01-1.85,0.04-2.77c0.06-0.94-0.73-1.72-0.27-3.03c-1.33,1.23-1.78,0.88-1.71-0.48
			c0.02-0.33,0.01-0.73-0.35-0.84c-0.56-0.17-0.49,0.4-0.68,0.68c-0.56,0.8-1.56,1.51-0.39,2.58c0.16,0.15,0.06,0.55-0.12,0.53
			c-0.89-0.09-1.07-1.09-1.79-1.49c-0.37-0.21,0-0.5,0.33-0.66c0.23-0.11,0.57-0.32,0.58-0.5c0.08-2.06,0.5-4.14-0.29-6.16
			c-0.72,0.13-0.45,0.7-0.73,0.93c-0.41,0.32-0.85,0.29-1.17-0.07c-0.44-0.5,0.06-0.58,0.4-0.75c0.71-0.37,0.83-1.31,1.68-1.64
			c0.42-0.16,0.37-0.96,0.19-1.36c-0.5-1.07-1.42-1.99-0.01-3.14c0.3-0.24,0.23-1.35-0.64-1.56c-0.62-0.15-1.05-0.04-1.74,0.45
			c-1.53,1.09-1.06,2.42-1.15,3.73c-0.04,0.6-0.07,1.21,0.79,1.34c0.59,0.09,0.53,0.62,0.47,1.05c-0.07,0.49-0.47,0.53-0.87,0.54
			c-0.33,0.01-0.65,0-0.98,0.01c-0.36,0.01-0.66,0.11-0.66,0.54c0,0.3,0.19,0.44,0.46,0.58c1.13,0.57,1.47,1.67,0.68,2.49
			c-1.24,1.27-1.72,2.91-2.27,4.48c-0.43,1.22-1.45,1.15-2.26,1.3c-0.88,0.16-0.9-0.7-0.93-1.38c-0.04-1.09-0.68-1.6-1.72-1.45
			c-1.11,0.16-0.71,1.04-0.82,1.77c-0.29,1.79,1.38,3.51,0.15,5.28c-0.75,1.08-1.52,2.08-0.3,3.38c0.32,0.34,0,0.94-0.41,1.28
			c-0.22,0.18-0.47,0.35-0.73,0.15c-0.45-0.35-0.77-0.85-0.67-1.4c0.59-3.28,0.2-6.63,0.82-9.89c0.18-0.97,0.81-1.84,0.85-2.91
			c0.02-0.55,0.91-0.86,1.11-0.53c0.98,1.58,2.52,0.66,3.96,1.14c-0.68-1.16-1.4-1.75-2.63-1.58c-0.37,0.05-1,0.24-1.07-0.39
			c-0.04-0.43,0.48-0.46,0.84-0.59c0.76-0.27,1.7-0.42,0.61-1.58c-0.89-0.94,0.01-2.05,0.13-3.49c0.72,1.19,1.25,2.06,1.87,3.09
			c0.4-0.87,1.78-0.6,1.79-1.82c0.01-0.57-0.54-0.52-1.05-0.64c1.31-0.85,1.57-1.59-0.11-2.13c-0.34-0.11-0.73-0.49-0.58-0.67
			c0.91-1.13,0.09-2.66,1.25-3.88c1.25-1.32,2.38-1.43,3.9-1.03c0.86,0.22,1.76,0.19,2.33-0.7c0.2-0.31,0.47-0.73,0.06-1.02
			c-0.46-0.33-0.66,0.06-0.78,0.46c-0.11,0.33-0.33,0.58-0.68,0.64c-0.39,0.07-0.86,0.44-1.13-0.16c-0.23-0.52-0.12-1.02,0.46-1.2
			c0.78-0.24,1.09-0.7,1.14-1.52c0.04-0.7,0.6-1.26,1.3-1.26c1.51,0,1.4-1.02,1.18-1.89c-0.22-0.86,0.08-1.42,0.49-2.09
			c0.58-0.96,1.07-0.38,1.74-0.17c0.58,0.18,1.16-0.14,1.03-1.01c-0.12-0.77,0.42-1.18,1.07-1.01c0.68,0.17,1.04,0.81,0.75,1.53
			c-0.16,0.39-0.45,0.69-0.33,1.19c0.28,1.18,0.23,2.11-1.39,1.28c-0.46-0.24-0.83-0.17-1.08,0.33c-0.29,0.58-0.45,1.21,0.17,1.6
			c1.27,0.8,2.07,1.58,0.68,3.01c-0.4,0.42,0.29,0.85,0.42,1.3c0.16,0.57,0.26,1.19-0.13,1.72c-0.2,0.27-0.49,0.14-0.74,0.01
			c-0.56-0.29-0.9-0.7-1.01-1.37c-0.16-0.97,0.58-1.88,0.08-2.87c-0.2-0.41-0.02-1.1-0.67-1.15c-0.75-0.05-0.74,0.84-1.21,1.19
			c-0.38,0.29-0.55,0.65-0.15,1.11c1.14,1.32,1.06,2.93,1.01,4.53c-0.01,0.37-0.14,0.81,0.23,1.05c0.4,0.26,0.73-0.03,1-0.31
			c0.87-0.88,1.68-0.53,2.43,0.14c0.31,0.28,0.28,0.7,0.13,1.07c-0.1,0.26-0.31,0.45-0.61,0.47c-0.56,0.03-0.56-0.39-0.59-0.77
			c-0.03-0.33-0.06-0.73-0.5-0.7c-0.53,0.04-0.45,0.51-0.48,0.88c-0.1,1.29,0.94,2.52,0.09,3.88c-0.21,0.34,0.47,0.63,0.85,0.84
			c0.32,0.19,0.7,0.31,0.64,0.82c-0.1,0.9-1.71,0.58-1.39,2.05c0.27,1.21-1.21,0.98-1.94,1.09c-0.67,0.1-0.85,0.32-0.86,0.88
			c0,0.56,0.08,1.09,0.82,0.56c0.44-0.32,0.97-0.47,1.39-0.25c1.77,0.96,2.11-0.08,2.35-1.51c0.4-2.34,0.59-2.47,2.96-2.48
			c0.02,1.43,0.03,2.87,0.05,4.3c-0.24,1.05-0.55,2.1-0.31,3.2c0,1.86-0.01,3.71-0.01,5.57c-0.7,0.77-0.2,1.54-0.01,2.32
			c-0.65,2.66,0.04,5.33,0.01,8c-0.02,2.95,0.19,5.93,0.66,8.84c0.7,4.33,1.56,8.62,0.94,13.05c-0.56,4.03-1.73,7.62-5.91,9.34
			c-0.33,0.11-0.66,0.21-0.99,0.32c-1.1-0.24-2.22,0.1-3.35-0.26c-2.54-0.83-4.61-2.35-6.64-4.01
			C119.76,157.9,118.95,155.72,117.16,154.38z"/>
		<path class="st10" d="M120.68,118.27c1.17,0.92,2.34,1.82,3.49,2.76c0.14,0.11,0.09,0.43-0.14,0.55
			c-0.41,0.22-0.94,0.27-1.23-0.02c-0.84-0.82-1.57-1.68-2.93-1.65c-0.44,0.01-0.53-0.59-0.35-1.07
			C119.72,118.3,120.1,118.3,120.68,118.27z"/>
		<path class="st10" d="M111.6,139.03c-0.5-0.8-0.33-1.72-0.43-2.59c1.77-0.45,2.66,0.85,2.25,3.29
			C112.73,139.71,112.85,137.55,111.6,139.03z"/>
		<path class="st10" d="M124.24,131.83c-0.45,0.51-1.14,0.54-1.73,0.53c-0.42-0.01-1.15-0.25-0.97-0.83
			c0.15-0.51,0.87-0.66,1.38-0.47C123.36,131.22,124.1,130.95,124.24,131.83z"/>
		<path class="st10" d="M122.86,133.58c0.4,0.38,1.37-0.01,1.31,0.71c-0.07,0.82-1.04,0.59-1.61,0.68
			c-0.38,0.06-1.13-0.23-1.03-0.79C121.64,133.59,122.36,133.67,122.86,133.58z"/>
		<path class="st10" d="M122.09,123.36c0.41,0.03,0.97,0.05,0.79,0.54c-0.24,0.64-0.85,1.1-1.51,1.28
			c-0.42,0.12-0.69-0.34-0.62-0.73C120.88,123.73,121.4,123.39,122.09,123.36z"/>
		<path class="st9" d="M169.43,259.93c-0.11,0.11-0.22,0.22-0.33,0.33c-0.22,0.02-0.46-0.02-0.64,0.06
			c-1.25,0.56-3.94,1.04-5.22,0.92c-0.44-0.04-0.91,0.01-0.96-0.61c-0.04-0.5,0.28-0.61,0.69-0.71c1.01-0.23,0.83-0.52,0.11-1.07
			c-1.07-0.81-0.8-2.11,0.49-2.5c0.71-0.22,1.28-0.79,2.12-0.72c0.49,0.04,0.78-0.39,0.77-0.87c-0.01-0.76,0.3-1.14,1.07-1.01
			c0.8,0.14,1.34,0.64,1.18,1.45c-0.14,0.75-0.26,1.48-0.31,2.24c-0.03,0.42-0.09,0.41-1.98,1.24
			C167.24,259.54,168.57,259.16,169.43,259.93z"/>
		<path class="st9" d="M158.13,252.25c1.86-0.72,3.8-0.44,5.7-0.49c0.79-0.02,1.67-0.01,1.85,0.91c0.15,0.76-0.57,1.14-1.16,1.58
			c-1.2,0.9-2.35,0.9-3.57,0.15c-0.18-0.11-0.51-0.3-0.53-0.27c-1.12,1.48-1.76-0.02-2.62-0.36c-0.56-0.22-1.54,0.01-1.32-0.95
			C156.62,252.2,157.47,252.14,158.13,252.25z"/>
		<path class="st20" d="M86.34,163.84c3.26-4.22,6.81-8.19,10.81-11.73c1.85-1.51,3.71-3.02,5.56-4.54
			c0.09,1.58-1.42,1.98-2.19,2.91c-2.37,2.86-5.38,5.07-7.83,7.89c-1.7,1.95-3.5,3.87-5.39,5.68
			C86.88,164.45,86.48,164.71,86.34,163.84z"/>
		<path class="st21" d="M217.23,224.97c1.15,0.49,0.47,1.48,0.58,2.24c0.1,0.71-0.02,1.44,1.04,1.37c-0.37,0.36-0.8,0.62-1.33,0.71
			C216.84,227.88,217.29,226.41,217.23,224.97z"/>
		<path class="st22" d="M214.87,118.49c-0.1-0.01-0.2-0.04-0.3-0.08c0.11-0.09,0.22-0.19,0.33-0.28
			C215.17,118.27,215.08,118.39,214.87,118.49z"/>
		<path class="st1" d="M202.81,122.43c-1.08,1.1-2.62,1.3-3.93,1.94c0.19-1.86,1.9-2.12,3.11-2.81
			C202.52,121.25,202.74,121.93,202.81,122.43z"/>
		<path class="st13" d="M180.85,108.68c-0.53-0.03-1.07-0.05-1.6-0.08c-0.31-0.9,0.77-1.63,0.33-2.56c1.84-0.02,1.16,1.39,1.32,2.32
			C180.87,108.47,180.86,108.57,180.85,108.68z"/>
		<path class="st1" d="M181.87,129.54c-0.01-0.08-0.02-0.17-0.03-0.25c0.07-0.58,0.37-1.2,0.95-0.93c0.58,0.28,1.73-0.07,1.69,1.15
			C183.61,129.52,182.74,129.53,181.87,129.54z"/>
		<path class="st13" d="M141.97,120.46c-1.72,1.21-3.1,2.93-5.2,3.59c-0.19-0.77-0.68-1.55,0.01-2.32c0.43-1.86,0.45-3.71,0.01-5.57
			c-0.24-1.1,0.07-2.15,0.31-3.2c0.62-0.02,0.9-0.83,1.59-0.67c0.38,2.15,0.37,2.13,2.27,1.47c0.4-0.14,0.84-0.16,1.27-0.18
			c0.39-0.02,0.81,0.08,0.88,0.54c0.06,0.46-0.42,0.39-0.68,0.53c-0.47,0.25-1.07,0.24-1.44,0.71c-0.26,0.33-0.82,0.55-0.76,1
			c0.07,0.56,0.65,0.44,1.07,0.48c0.64,0.06,1.25,0.51,0.87,1.01C141.44,118.76,141.96,119.59,141.97,120.46z"/>
		<path class="st13" d="M176.95,108.93c-8.86,0.29-17.3,2.28-25.28,6.15c-0.46,0.23-1,0.31-1.5,0.45c-0.69-0.24-1.06-1.38-1.65-1.15
			c-0.87,0.35-1.71,0.78-2.64,1.05c-0.46,0.13-0.5,0.6-0.39,1.09c0.11,0.46,0.15,1.05-0.6,1.06c-0.84,0.01-1.42-0.42-1.8-1.16
			c-0.29-0.56-0.05-0.94,0.44-1.21c1.19-0.64,2.43-1.22,3.65-1.76c1.75-0.77,3.27-1.83,4.79-2.93c0.46-0.33,0.89-0.51,1.45-0.6
			c1.52-0.22,2.75-1.64,4.48-1.13c0.06,0.02,0.19-0.11,0.25-0.19c0.33-0.45,1.28-0.8,0.87-1.35c-0.41-0.54-1.41-0.45-1.88,0.16
			c-0.77,0.99-1.77,0.84-2.77,0.87c-0.51,0.01-0.88-0.18-0.9-0.7c-0.03-0.55,0.43-0.51,0.8-0.56c1.27-0.16,2.54-0.24,3.43-1.43
			c0.41-0.54,1.08-0.61,1.68,0.03c0.44,0.47,1.02,0.89,1.74,0.62c1.06-0.39,2.09-0.93,2.87,0.47c0.17,0.31,0.64,0.14,0.87-0.09
			c0.37-0.38-0.02-0.56-0.3-0.7c-0.66-0.33-1-0.8-0.34-1.36c1.67-1.42,6.26-2.92,8.66-0.79c-1.35,0.43-2.64,0.65-3.98,0.65
			c-0.54,0-1.12-0.04-1.6,0.14c-0.47,0.18-1.07,0.56-0.97,1.16c0.09,0.56,0.74,0.23,1.12,0.34c1.01,0.31,2.11-0.16,2.94-0.05
			c1.95,0.28,3.56-0.41,5.33-0.69c0.84-0.13,1.86-0.77,2.84-0.26c-0.33,0.22-0.65,0.44-0.98,0.65c-0.9,0.61-2.04,1.12-0.79,2.44
			C176.97,108.32,176.91,108.67,176.95,108.93z"/>
		<path class="st13" d="M145.17,113.22c-0.64-0.01-1-0.1-1.03-0.47c-0.02-0.22,0.21-0.65,0.35-0.66c0.95-0.08,1.48-0.86,2.24-1.23
			c0.32-0.15,0.62-0.22,0.87,0.09c0.15,0.18,0.23,0.49,0.04,0.57C146.63,111.94,145.74,112.56,145.17,113.22z"/>
		<path class="st13" d="M150.67,110.01c-0.18,0.61-0.67,0.62-1.16,0.6c-0.45-0.02-0.94-0.14-0.87-0.69
			c0.07-0.62,0.65-0.61,1.13-0.59C150.22,109.34,150.61,109.46,150.67,110.01z"/>
		<path class="st13" d="M176.95,108.93c-0.04-0.26,0.02-0.61-0.13-0.77c-1.25-1.32-0.11-1.84,0.79-2.44
			c0.61,0.39,1.29,0.33,1.96,0.33c0.44,0.92-0.63,1.65-0.33,2.56C178.51,108.9,177.76,109.13,176.95,108.93z"/>
		<path class="st13" d="M117.04,196.54c-1.87-0.24-3.1-1.36-4-2.92c-0.22-0.39-0.53-0.58-1.01-0.69c-1.61-0.36-2.31-1.6-1.72-3.05
			c0.31-0.78,0.19-1.27-0.57-1.56c-0.95-0.36-1-1.17-0.79-1.89c0.64-2.16,0-4.42,0.59-6.57c0.18-0.66-0.28-1.11-0.72-1.54
			c-0.3-0.29-0.89-0.42-0.84-0.92c0.19-1.98,0.38-3.97,0.72-5.93c0.11-0.6,0.52-1.15,0.56-1.83c0.03-0.48-0.44-1.38,0.58-1.31
			c0.79,0.05,1.82-0.02,1.99,1.22c0.13,1.01,0.45,1.91,1.6,2.19l0.11-0.04c0,1.97,0,3.93,0,5.9c-0.04,0.11-0.07,0.22-0.11,0.33
			c-1.19,0-1.59,0.68-1.59,1.78c0,0.64,0.3,1.64-0.17,1.86c-1.62,0.76-0.88,1.97-0.79,3.05c0.13,1.49,0.27,2.99,0.55,4.47
			c0.13,0.69,0.64,1.28,1.5,1.24c0.75-0.03,0.96-0.66,1.13-1.21c0.16-0.5,0.09-1.1,0.7-1.37
			C115.26,190.74,116.36,193.58,117.04,196.54z M109.93,177.45c0.74-1.31,0.63-2.54,0.61-3.75c-0.01-0.33,0.14-0.88-0.45-0.82
			c-0.44,0.04-0.57,0.51-0.5,0.89C109.82,174.92,109.95,176.09,109.93,177.45z"/>
		<path class="st13" d="M114.77,187.73c-0.61,0.27-0.53,0.86-0.7,1.37c-0.18,0.55-0.38,1.18-1.13,1.21
			c-0.86,0.04-1.37-0.55-1.5-1.24c-0.28-1.47-0.42-2.97-0.55-4.47c-0.09-1.08-0.83-2.29,0.79-3.05c0.47-0.22,0.17-1.22,0.17-1.86
			c0-1.1,0.4-1.78,1.59-1.78c0.6,2.67,0.41,5.43,0.99,8.11C114.56,186.58,114.85,187.13,114.77,187.73z"/>
		<path class="st8" d="M216.19,219.41c-0.09,0.01-0.17,0.02-0.26,0.02c-1.29-0.05-1.7-1.18-2.12-2.02c-0.44-0.88,0.5-0.9,1.12-0.95
			c0.45,0.35,0.28,1.13,0.93,1.33C215.85,218.36,215.86,218.92,216.19,219.41z"/>
		<path class="st11" d="M95.19,184.9c3.12-0.19,3.58-2.41,4.44-4.22c0.49-1.05,0-1.65-1.08-1.49c-0.28,0.04-0.64,0.37-0.72-0.21
			c-0.05-0.36,0.1-0.62,0.5-0.7c1.72-0.37,1.48-0.98,0.2-1.7c-0.45-0.26-0.47-0.54-0.07-0.87c0.79-0.66,1.38-1.26-0.1-1.88
			c-0.47-0.19-0.83-1.18-0.33-1.35c1.21-0.42,1.38-1.43,1.85-2.32c0.11-0.21,0.41-0.45,0.62-0.45c0.39-0.01,0.52,0.45,0.5,0.71
			c-0.24,2.5,1.29,4.88,0.23,7.53c-0.46,1.14-0.75,2.83,0.6,4.09c0.64,0.6,0.12,3.38-0.61,3.88c-0.58,0.39-0.12,0.62,0.03,0.91
			c0.2,0.4,0.14,0.74-0.21,1.01c-0.28,0.22-0.61,0.26-0.92,0.12c-0.45-0.21-0.41-0.65-0.26-0.99c0.28-0.6,0-1.06-0.26-1.53
			c-0.19-0.34-0.08-0.99-0.73-0.9c-0.53,0.07-0.36,0.59-0.46,0.93c-0.2,0.69-0.49,0.85-1.14,0.38
			C96.81,185.52,96.22,185.36,95.19,184.9z"/>
		<path class="st23" d="M181.21,241.36c0.11-0.04,0.22-0.07,0.33-0.11c0.87,0.04,1.73,0.08,2.6,0.12c-0.54,0.74-1.07,1.48-1.61,2.22
			c-0.82-0.14-2.64,0.51-1.17-1.48C181.45,241.98,181.26,241.62,181.21,241.36z"/>
		<path class="st24" d="M136.79,116.16c0.44,1.86,0.43,3.71-0.01,5.57C136.78,119.88,136.78,118.02,136.79,116.16z"/>
		<path class="st13" d="M109.93,177.45c0.01-1.37-0.12-2.53-0.34-3.68c-0.07-0.38,0.06-0.85,0.5-0.89c0.59-0.05,0.45,0.49,0.45,0.82
			C110.56,174.92,110.67,176.15,109.93,177.45z"/>
	</g>
</g>
</svg>
