<?xml version="1.0" encoding="utf-8"?>
<!-- Generator: Adobe Illustrator 27.4.1, SVG Export Plug-In . SVG Version: 6.00 Build 0)  -->
<svg version="1.1" id="Layer_1" xmlns="http://www.w3.org/2000/svg" xmlns:xlink="http://www.w3.org/1999/xlink" x="0px" y="0px"
	 viewBox="0 0 360 360" style="enable-background:new 0 0 360 360;" xml:space="preserve">
<g>
	<g>
		<path d="M86.62,263.06c0-0.56,0-1.11,0-1.67c0.08-0.08,0.15-0.17,0.24-0.23c0.08-0.05,0.19-0.1,0.29-0.1c6.55,0,13.09,0,19.64,0
			c1.08,0.46,1.38,2.05,2.8,2.03c0.62-0.58,0.52-1.46,0.29-1.89c-1.01-1.87-0.43-3.85-0.63-5.76c-0.12-1.15,0.52-2.44-0.63-3.43
			c-0.16-0.14-0.12-0.68-0.01-0.97c1.45-3.74,0.28-7.63,0.65-11.42c-0.91-1.95-1.05-4.14-0.57-6.05c0.79-3.16,0.88-6.36,0.47-9.42
			c-0.78-5.82-0.47-11.63-0.55-17.45c-0.07-5.79,0.03-11.58-0.05-17.37c-0.02-1.8-0.92-3.53-0.67-5.41c0.08-0.6,0.2-1.06,0.72-1.35
			c-0.26-0.28-0.48-0.52-0.7-0.75c1.14-3.12,0.44-6.69,2.41-9.69c1.01,3.25-0.33,6.29-0.47,9.39c-0.14,3.09,0.87,6.02,0.78,9.07
			c0.49,0.4,0.79,1.11,1.61,0.96c0.79-2.46,1.14-4.97,1.04-7.58c-0.11-2.67,0.06-5.35-0.06-8.02c-0.06-1.36,0.43-2.73-0.52-4.14
			c-0.72-1.07,0.56-2.84-0.78-4c0.44-2.1-1.09-3.97-0.67-6.07c0.44-2.2-1.25-4.18-0.6-6.32c-1.18-1.96-2.27-3.85-3.45-5.69
			c-0.6-0.94-1.72-1.17-2.66-1.61c-0.88-0.41-3.4-1.67-3.74-2.19c-0.21-0.33-0.19-0.82-0.22-0.98c1.06-1.06,1.99-1.99,2.58-2.59
			c0.45-3.84-1.68-6.3-2.64-9.37c0.58-0.98,0.86-2.21,0.75-3.53c-0.04-0.41-0.02-0.92,0.19-1.25c1.3-2.01,1.58-4.6,3.18-6.34
			c1.98-2.14,2.98-4.82,4.61-7.13c0.9-1.28,1.33-2.79,2.03-4.16c0.71-1.39,1.59-2.77,2.66-3.89c1.72-1.79,1.97-4.58,4.39-5.96
			c1.71-0.02,1.71-0.02,2.97,1.1c-1,1.89-2.73,3.47-2.75,5.84c-3.33,3.45-4.47,8.23-7.24,12.04c-1.32,1.81-2.2,3.97-3.31,5.96
			c-0.28,0.5-0.04,1.3-0.04,1.92c-0.72,0.72-1.24,1.6-2.09,1.89c-1.01-0.54-0.74-1.38-0.51-1.82c0.94-1.84,2.4-3.34,2.88-5.51
			c0.22-0.99,1.59-1.63,2.07-2.79c0.23-0.55,0.17-1.05,0.33-1.88c0.55-0.45,1.31-1.08,1.79-1.48c0-1.35,0-2.32,0-3.41
			c-2.09,1.45-2.47,3.8-3.57,5.64c-1,1.67-1.95,3.29-3.34,4.51c-0.48,0.68-0.19,1.36-0.33,2.36c-0.86,0.91-2.17,1.92-2.59,3.46
			c-0.1,0.45,0.16,0.67,0.44,0.95c-0.83,1.78-0.29,3.7-0.48,5.52c1.62,2.02,2.82,4.25,4.09,6.53c1.27-1.01,1.64-1.68,0.79-3.13
			c-0.63-1.06-1.57-1.75-2.06-2.6c0-1.56,0-2.98,0-4.64c1.44,1.38,1.83,3.07,2.42,4.52c0.36,0.88,0.7,1.68,1.2,2.52
			c1.35,2.24,2.68,4.48,4.24,6.59c1.65,2.23,3.56,4.35,5.78,5.85c2.25,1.52,3.42,3.67,4.88,5.7c0.74,1.03,1.24,2.24,2.29,3.07
			c0.58,0.46,0.98,1.04,1.23,1.82c0.4,1.27,1.8,1.9,2.13,3.42c0.27,1.25,1.37,2.3,2.02,3.49c0.69,1.27,1.11,2.7,1.94,3.86
			c1.02,1.43,1.23,2.91,0.95,4.82c-1.51-1.03-2.47-2.24-2.53-4c-0.02-0.7-0.44-1.18-0.63-1.75c-0.71-2.07-2.49-3.62-2.72-5.89
			c-1.81-1.44-2.71-3.67-4.44-5.16c-1.25-1.08-1.53-2.72-2.5-4.01c-1.78-2.35-3.73-4.36-6.12-6.1c-2.26-1.64-3.77-4.08-5.28-6.52
			c-1.17,0.01-1.92,1.13-3.11,1.36c-0.81-0.35-0.5-1.61-1.7-2c-0.21,0.29-0.51,0.69-0.88,1.2c0.5,1.02,1.05,2.13,1.67,3.39
			c0.38,0.03,0.91,0.07,1.65,0.13c-0.05,2.25,2.59,3.16,2.87,5.43c0.77,0.77,1.61,1.61,2.63,2.63c0.7-0.65,1.48-1.37,2.43-2.25
			c2.16,1.81,4.92,3.09,5.6,6.63c1.92,1.53,3.21,3.89,4.71,6.09c0.76,1.11,0.6,2.65,1.66,3.66c1.05,1,1.22,2.34,1.57,3.7
			c0.35,1.36,1.32,2.63,2.44,3.66c0.41,2.15-0.09,4.7,2.76,6.29c0.17,0.44,0.06,1.41,0.92,2.17c0.81,0.72,1.16,1.94,1.79,2.89
			c2.22,3.37,5.74,3.29,7.98-0.15c0.81-1.24,1.62-2.46,2.6-3.94c0-1.09,0-2.51,0-3.8c-0.55-1.08-1.91-0.79-2.53-2.44
			c0.36-2.28-1.05-4.6-2.7-6.9c0-1.95,0-3.94,0-6c0.49-0.92,1.4-1.13,2.39-1.12c0.35-0.77,0.69-1.52,1.07-2.36
			c0.52-0.26,1.16-0.59,1.77-0.9c0.79,0.09,1.05,0.8,1.81,1.36c2.08-0.24,4.46,0.44,6.6-0.45c-0.67-0.67-1.23-1.24-2.21-2.21
			c-1.96,0.08-4.07-1.22-5.66-3.25c-2.77-0.57-5.58,0.73-8.38-1.15c-0.84-1.06-1.16-2.93-2.39-4.21c-0.68-0.71,0.08-1.76-0.89-2.35
			c-0.71-0.43-1.53-0.61-2.14-1.35c-1.07-1.32-2.52-2.35-2.79-4.2c-1.94-0.74-1.36-3.01-2.52-4.26c-0.22-0.24-0.03-0.86-0.03-1.31
			c0.33,0,0.67,0,1.02,0c0.14,1.05,0.96,1.63,1.63,2.33c0,0.66,0,1.32,0,2.02c1.67,1.52,3.09,3.34,5.15,4.86
			c-0.13,1.7,1.76,2.45,2.82,3.84c0,0.59,0,1.25,0,1.8c0.43,1.15,1.69,1.02,2.29,1.79c1.6-0.75,0.92-2.22,1.07-3.41
			c-0.66-1.63-2.11-2.92-2.01-5.08c2.67,0.3,4.18-2,6.25-2.66c0.8-1,0.19-1.85,0.52-2.75c-1.82,0-3.35,0-4.93,0
			c-0.95,0.48-1.96,0.99-3.05,1.54c-0.5,1.04,0.51,2.59-1.16,3.69c-0.51-0.61-1.38-0.99-1.6-1.95c-0.24-1.04-1.58-0.59-1.98-1.98
			c-0.07-0.37-0.19-1.21,0.24-2.02c2.83,0.97,4.1,0.59,6.78-2.07c0.85,0,1.82,0,2.86,0c0-1.09,0-2.06,0-3.28
			c-3.1,0.23-6.06,0.61-8.16,3.28c-1.52,0.15-3.03,0.29-4.35-1.23c0-0.11,0-0.64,0-1.25c1.79-0.41,3.6,0.06,5.4-0.67
			c0.95-0.39,1.48-1.26,2.4-1.44c1.54-0.3,2.98-1.2,5.06-0.35c-0.8-2.26,0.95-3.69,0.29-5.49c-0.7-0.4-1.48-0.13-2.21-0.18
			c-0.75,0.58-1.26,1.25-0.94,2.43c-0.44,0.39-0.95,0.81-1.42,1.28c-1.11,1.11-2.37,1.72-3.99,1.65c-2.1-0.09-4.21-0.02-5.96-0.02
			c-1.43-1.44-2.68-2.68-4.06-4.07c0.36-0.9,1.39-1.45,2.05-2.32c0-0.63,0-1.3,0-1.97c1.96-1.65,2.69-4.07,3.21-6.33
			c0.52-2.27,2.77-3.89,2.09-6.25c1.8-1.81,3.44-3.46,5.15-5.17c1.06,0.08,1.44,1.17,2.33,1.82c-0.44,0.8-0.84,1.64-1.34,2.42
			c-0.74,1.15-3.03,6.88-3.5,8.24c-0.57,1.65-1.28,3.28-2.2,4.75c-0.41,0.66-0.34,1.22-0.45,1.85c-1.63,0.5-2.49,1.81-3.16,3.44
			c0.45,0.48,1.02,1.08,1.65,1.75c1.07-1.2,2.11,0.14,3.14-0.17c1.11-0.34,2.15-0.97,3.28-0.62c2.08-1.76,3.52-4.06,6.04-5.3
			c0.27,0.17,0.59,0.37,0.9,0.57c0.68,0.1,1.28-0.55,1.26-0.83c-0.19-2.13,1.37-3.7,1.69-5.71c0.26-1.63,0.85-3.44,1.72-4.92
			c1.45-2.5,3.07-4.94,5.37-6.79c0.48-0.39,1.06-0.91,1.6-0.91c2.76-0.01,2.81-2.22,3.09-3.97c0.14-0.88,0.53-1.58,0.78-2.43
			c-0.89-0.73-1.81-1.35-3.28-1.12c0,1.45,0,2.95,0,4.37c-0.77,0.32-1.3,0.47-1.4-0.36c-0.07-0.53,0.14-1.12-0.44-1.49
			c-1.15-0.72-0.96-1.86-0.85-2.87c-0.85-0.85-2.15,0.22-2.77-0.8c-0.56-0.92-1.8-0.75-2.58-2.09c-0.14-0.37-0.09-1.2,0.12-2.11
			c2.43,0.2,4.62-1.03,7.05-0.81c0.88,0.08,1.89-0.74,2.76-1.27c2.05-1.25,3.84-2.53,4.93-5.02c0.89-2.03,1.6-4.22,3.02-6.12
			c2.52-3.38,4.88-6.81,8.53-9.08c0.27-0.17,0.29-0.75,0.42-1.11c0.6-0.04,1.12-0.07,1.6-0.11c0.11-0.44,0.19-0.74,0.3-1.17
			c1.22,0.89,2.59,0.51,3.92,0.55c1.44,0.04,2.87,0.01,4.28,0.01c0.35,0.35,0.66,0.66,0.99,0.99c0,0.43,0,0.87,0,1.49
			c-2.41,0.88-4.88,1.74-7.56,1.54c-3.31,2.84-6.11,6.1-8,10.01c-1.03,2.13-2.99,3.82-3.17,6.45c-0.96,0.88-1.75,2.11-3.19,2.54
			c-0.2,1.62-1.85,2.08-2.69,3.6c0.42,2.29-1.04,4.7-0.75,7.36c0.08,0.69-0.51,1.62-1.06,2.18c-0.69,0.7-0.84,1.67-1.45,2.34
			c0.3,0.32,0.61,0.65,1.01,1.08c1.27-0.64,2.55-1.29,4.13-2.08c1.42,0,3.18,0,4.87,0c2.65-1.81,3.98-4.72,6.24-6.75
			c0.76-2.77,0.76-2.77,7.96-9.99c1.07,0,2.24-0.3,3.02,1.1c-0.56,0.39-1.19,0.81-2.22,1.52c-0.02,0-0.68,0-1.46,0
			c-1.6,1.92-3.9,3.3-4.91,5.83c0.56,0.49,0.96,0.21,1.38-0.23c1.16-1.2,2.35-2.37,3.52-3.55c0.56,0,1.11,0,1.67,0
			c-2.57,3.19-4.78,6.58-6.78,10.2c-1.77,3.19-5.19,4.87-8.76,5.83c-0.28,0.07-0.64-0.04-0.92-0.16c-0.19-0.07-0.32-0.3-0.55-0.53
			c-0.33,0.43-0.67,0.86-0.85,1.09c-2.45,0.98-4.38-0.96-6.48-0.33c-0.41-0.89-0.58-1.78-1.52-2.12c-1.02,0.27-1.37,1.2-2.13,1.71
			c0.32,0.32,0.48,0.48,0.62,0.63c-2.86,3.11-2.9,7.47-4.97,11.5c-0.57-2.11-0.1-3.81-0.33-5.19c0.96-1.34,1.77-2.47,2.66-3.71
			c-0.01-0.58,0.22-1.34-0.15-2.07c-1.23-0.35-2.27-0.13-2.44,1.28c-0.13,1.13-0.83,1.9-1.23,2.84c-0.83,1.93-1.37,3.95-1.52,5.91
			c0.49,1.17,1.73,1.05,2.59,2.14c0.21,0.84,0.44,2.08,0.87,2.77c1.41,1.6,3.24,1.32,4.52,2.38c3.22-2.03,6.79-2.27,10.04-2.06
			c1.85,0.73,3.03,2,5.01,0.82c0.98-0.58,2.58-0.1,4.07-0.1c0.92,0.69,1.48,1.93,2.6,2.72c0.99,0.7,2.07,1.53,2.44,2.96
			c0.36,1.41,1.58,2.28,2.55,3.28c0,0.56,0,1.11,0,1.67c-0.55,0-1.1,0-1.65,0c-0.7,0.59-1.32,1.2-1.01,2.23
			c-2.64,2.81-2.64,2.81-2.73,6.86c-0.94,0.94-1.87,1.88-2.81,2.82c-0.78,0.78-2.12,1.5-2.23,2.37c-0.26,2.03-1.89,2.81-2.87,4.13
			c0.19,2.62-2.96,3.08-3.44,5.3c1.13,0.3,1.93,1.47,2.91,1.03c2.9-4.07,4.18-8.94,8.48-11.86c0-0.24,0-0.67,0-1.15
			c1.08-1.14,2.19-2.19,2.75-3.82c0.53-1.53,1.67-2.86,2.59-4.36c0-1.1,0-2.32,0-3.54c0.87-0.14,1.48,0.24,2,1.21
			c0.58,2.77-1.44,4.71-3.02,6.79c-0.54,0.71-1.26,1.25-0.94,2.36c-2.36,1.91-3.6,4.87-6,6.62c-0.48,2.48-0.52,2.54-2.69,4.74
			c0,0.66,0,1.33,0,2.01c1.88,1.87,3.76,3.75,5.67,5.66c0.48-0.05,1.04,0.22,1.72-0.34c-1.26-2.17-2.79-4.16-4.65-5.9
			c0.02-0.6-0.44-1.29,0.55-1.89c1.39,0.9,2.53,2.25,3.69,3.52c1.26,1.36,2.77,2.37,4.32,3.28c3.01,1.76,6.35,2.11,9.73,2.02
			c0.92-2.23,2.01-4.33,1.57-6.71c0.57-1.08,1.31-1.99,1.41-3.13c-0.15-1.05-1.12-1.38-1.63-2.15c-0.23,0.2-0.45,0.4-0.67,0.57
			c-0.94,0.72,0.11,1.96-0.82,2.84c-1.93-0.87-3.24-2.58-4.47-4.15c-1.12-1.44-3.3-2.29-3.06-4.95c0.06-0.43,0.75-0.69,1.22-1.31
			c0.03-2.86,1.12-5.62,1.8-8.46c0.05-0.2,0.27-0.38,0.26-0.55c-0.11-1.48,0.18-2.98,1.42-3.7c1.22-0.72,2.68-1.26,4.22-1.04
			c0.22,0.03,0.44,0,0.51,0c1.6-0.75,1.8-2.52,3.2-3.65c-0.45-1.69,0.61-3.34,0.78-5.46c1.61-2.28,4.28-2.32,6.86-2.24
			c0.5-0.5,0.89-0.89,1.18-1.19c2.87,1.81,5.95,2.61,9.28,2.51c1.06,0.68,2.13,1.33,3.49,1.45c2.71,2.51,6.59,3.88,8.37,8.58
			c0.24,3.33,2.79,7.61-0.01,12.03c0-1.74,0-3.48,0-5.23c-0.01-4.29-2.59-9.01-6.17-11.5c-1.29-0.9-2.24-2.3-4.21-2.73
			c-0.17,0.34-0.42,0.84-0.7,1.4c0.17,0.24,0.78-0.08,1.77,0.09c0.38,0.44,1.01,1.21,1.69,1.93c0.66,0.69,1.27,1.48,2.3,1.65
			c0,0.79,0,1.57,0,2.35c-0.44,0-0.89,0-1.33,0c-2.28-0.55-1.92-4.39-5.31-3.96c-0.5-0.54-1.14-1.25-1.79-1.95
			c-0.14,0.14-0.3,0.3-0.44,0.44c-3-1.49-6.11-2.53-9.45-2.59c-0.63,0.77-0.2,1.57-0.34,2.3c0.44,0.65,1.44,0.45,1.56,0.7
			c0.56,1.06-0.22,1.08-0.22,1.48c0,0.44,0,0.87,0,1.28c-1.73,0.74-3.03,2.01-4.54,2.94c-1.6,0.98-3.06,2.15-4.69,3.1
			c-1.37,0.8-2.81,2.01-2.95,4.06c-0.05,0.72-0.91,1.37-1.34,2.09c-1.02,1.72-1.9,3.5-1.79,5.81c1.43,1.52,3.56,2.44,5.09,3.95
			c1.43,1.42,2.9,3.07,3.62,5.25c-0.47,0.52-0.96,1.07-1.41,1.57c0.02,1.03,0.93,1.28,1.34,1.94c0,0.63,0,1.29,0,1.94
			c0.21,0.33,0.5,0.39,0.85,0.38c2.05-0.11,3.98,0.19,5.9,1.02c1.36,0.59,2.79,0.58,4.28-0.3c2.45-1.44,5.29-1.79,8.32-2.22
			c-0.58-2.91,0.85-5.68,0.61-8.8c1.53-1.34,1.18-4.25,4.21-5.5c-0.66,2.74-2.6,4.27-2.81,6.39c-0.23,2.32-0.05,4.67-0.05,7.02
			c-1.38,1.49-2.72,3.06-4.75,3.8c-0.37-0.26-0.71-0.5-1.09-0.77c-2.1,0.93-4.28,1.78-5.52,4.03c0.22,0.92,1.16,1.26,1.66,1.99
			c0.66,0,1.32,0,2.06,0c0.48,0.55,0.99,1.13,1.62,1.84c0.33,1.68-0.59,3.73,0.69,5.5c0.21,0.67-0.86,0.73-0.67,1.39
			c-0.08,0.55,0.52,0.66,0.66,1.07c-0.64,1.92-0.87,3.73-0.22,5.86c0.59,1.93-0.37,4.4,0.37,6.21c0.81,1.97-0.28,4.16,1.11,5.93
			c-0.17,0.18-0.38,0.42-0.6,0.66c0.03,0.31,0.05,0.59,0.22,0.91c1.08,1.99,2.03,4.06,3.13,6.04c0.49,0.88,0.56,1.78,0.68,2.74
			c0.39,3.31-0.76,6.48-0.74,9.75c0,0.76-0.57,1.53-1.12,2.91c0-5.62,0-10.58,0-15.46c-1.84-1.9-3-3.85-3.56-6.38
			c-1.68-7.57-1.17-15.22-1.27-22.85c-0.01-0.84-0.14-1.6-0.52-2.46c-0.44-0.99-1.09-1.97-1.79-2.18c-2.25-0.66-3.58-2.13-4.37-4.14
			c-1.56,0-2.88,0.08-4.2-0.02c-1.66-0.12-3.22,0.34-4.5,1.19c-1.45,0.96-3.09,0.55-4.54,1.13c-1.57,0.63-3.1,0.72-4.56-0.29
			c-3.11,0.25-5.56-1.52-8.22-2.67c-2.81-0.12-3.26,2.68-5.02,4.5c-0.44-2.62-0.07-4.81-0.29-6.88c-1.22-1.69-2.89-0.67-4.25-1
			c-0.93,1.28-1.15,2.62-1.01,4.05c-0.41-0.09-0.96,0.25-1.22-0.24c-0.83-1.54-1.92-2.97-2.3-5.03c-4.1,0.01-8.32-0.37-12.59,0.91
			c-2.48,0.74-5.23,1.95-7.99,0.38c-0.41-0.23-1.07-0.03-1.54-0.03c-1.83,1.62-1.8,3.66-1.62,5.78c1.4,1.17,2.84,2.2,5,1.08
			c1.24,0.45,1.46,1.97,2.34,3.05c-0.34,0.68-0.7,1.4-1.08,2.17c-0.62-0.89,0.08-2.43-1.77-2.68c-0.88,0.17-1.33,0.9-1.18,2.34
			c0.69,0.62,1.52,1.45,1.83,2.63c0.62,2.44-1.11,4.32-1.66,6.52c-0.75,3-3.06,4.5-5.38,6.07c-1.04,0.7-1.86,0.39-2.97,0.07
			c-2.27-0.66-3.56-2.31-4.4-4.14c-0.58-1.28-1.35-2.37-2.13-3.44c-1.93-2.65-2.68-5.8-3.92-8.73c-0.24-0.56-0.24-1.17-0.7-1.72
			c-0.92-1.11-1.58-2.43-2-3.83c-0.78-2.56-2.43-4.59-3.91-6.73c-0.54-0.78-1.81-1.04-1.36-2.44c-1.03,0-1.77,0-2.43,0
			c-1.14-1.52-1.13-1.51-0.4-3.11c-0.99-1.04-1.32,0.86-2.31,0.5c-0.78-0.29-1.74-0.06-2.62-0.06c-0.32,2.48-0.05,5.15,0.83,8.14
			c0.06,0.2,0.22,0.4,0.2,0.58c-0.43,3.62,1.02,7.11,0.73,10.75c-0.13,1.61-0.99,3.02-0.79,4.74c0.16,1.43,0.29,2.91-0.51,4.43
			c-0.84,1.59,0.36,3.37,0.68,5c1,5.08,0.78,6.54-2.69,10.06c0,18.35,0,36.69,0,55c0.46,0.17,0.84,0.3,1.19,0.43
			c0.31,1.2-0.89,1.42-1.23,2.16c0.95,0.6,0.55,1.57,0.65,2.56c-0.85,0.8-1.6,1.82-1.97,3.17c-1.68-0.29-3.16,0.36-4.59-0.68
			c-0.51-0.37-1.51-0.06-2.29-0.06c-2.77,0-5.55-0.01-8.32,0c-2.78,0.01-5.47-0.31-7.84-1.99
			C87.38,262.92,86.95,263.06,86.62,263.06z M144.78,150.01c4.16,2.44,8.52,4.15,12.82,3.42c4.84,2.3,9.13,1.29,13,0.62
			c2.94-1.62,3.49-5.12,6.5-6.22c0.21-0.71-0.14-1.62,0.9-2.28c-0.59-0.07-0.98-0.24-1.19-0.11c-1.38,0.84-2.9,0.59-4.38,0.66
			c-0.72,0.03-1.42,0.24-2.12,0.44c-3.68,1.03-7.46,1.84-10.68-1.12c-1.74,0-3.41,0.1-5.06-0.03c-1.6-0.12-3.28,0.58-4.79-0.43
			c-1.41,0.8-3.04,0.23-4.51,0.59C145.38,147.11,144.03,148.26,144.78,150.01z M178.12,70.56c-1.27,1.29-2.5,2.74-3.93,3.95
			c-1.52,1.29-2.29,3.16-3.74,4.47c-1.38,1.25-0.99,3.39-2.5,4.7c-0.6,0.52-1.26,1.77-1.33,2.7c-0.15,1.94-1.27,3.13-2.52,4.31
			c-0.24,0.23-0.3,0.33,0.07,0.51c0.46,0,0.98,0,1.46,0c2.31-2.83,3.97-5.97,5.69-9.07c1.74-3.14,3.8-6.06,6.55-8.96
			c0.39-0.18,1.21-0.57,2.01-0.94c-0.13-0.63,0.22-1.24-0.35-1.67C179.1,70.56,178.66,70.56,178.12,70.56z M133.68,124.09
			c0.55-2.13,1.04-3.99,1.57-6.06c-1.45,0.57-1.96,1.72-2.44,2.79c-0.46,1.02-1.17,2.02-0.91,3.26c0.02,0.1,0,0.22,0.04,0.31
			c0.05,0.09,0.15,0.16,0.23,0.24C132.63,124.47,132.86,123.77,133.68,124.09z M114.33,111.48c1.29-2.2,2.52-4.31,3.69-6.31
			c-0.35-0.56-0.68-0.53-1.29-0.52c-0.14,2.37-2.29,3.53-3.49,5.09C113.28,110.66,113.92,110.83,114.33,111.48z M178.15,99.24
			c-0.55,1.2-1.03,2.24-1.48,3.21c0.37,0.37,0.6,0.61,1.35,1.36c-0.79-1.97,1.23-2.09,1.19-3.45
			C178.91,100.04,178.62,99.73,178.15,99.24z M130.97,124.58c-0.48,0.72-1.68,1.06-0.74,2.14
			C130.61,126.14,131.58,125.89,130.97,124.58z"/>
		<path d="M185.75,93.83c1.1-1.56,2.55-2.2,4.06-2.8c0-1.79,0-3.56,0-5.4c-0.4-0.75-1.68-1.11-1.43-1.92
			c2.71-2.72,5.12-5.14,7.53-7.56c0.36-1.19-0.62-2.54,0.6-3.3c0.92-0.57,0.66-2.13,1.89-2.39c0.54-3.39-0.53-6.17-2.37-8.78
			c-0.27-0.39-0.2-1.03-0.29-1.58c-1.07-1.08-2.11-2.25-3.28-3.27c-1.62-1.41-3.4-2.46-5.69-2.34c-1.88,0.09-3.77,0.04-5.66,0.01
			c-1.64-0.02-2.98,0.74-4.41,1.44c-3.04,1.49-5.97,3.31-9.38,3.88c-0.67,0.11-1.08,0.59-1.69,0.78c-1.25,0.41-2.29,1.54-3.55,1.85
			c-1.36,0.34-2.87,0.08-4.28,0.08c-2.77,1.58-5.78,1.91-8.97,2.07c-1.24,1.12-2.31,2.67-4.45,2.69c-0.58,0-1.15,0.92-1.85,1.53
			c0.32,3.14-0.66,6.4,0.84,9.71c-1.63,0.17-2.04-1.06-2.83-1.64c0-1.8,0-3.58,0-5.3c-0.47-1.04-1.72-0.91-2.38-1.75
			c-1.18,2.32-1.09,5.11-2.94,7.09c1.67,1.52,2.94,3.36,5.12,4.31c2.89,0,2.89,0,5.15-1.92c0.67,0,1.41,0,2.13,0
			c0.29,0.59,0.55,1.14,0.84,1.74c-2.12,0.61-3.9,2.89-6.32,2.12c-2.02-0.64-4.43-0.63-5.84-2.49c-1.52-0.45-3.2,0.75-4.24-0.87
			c-1.55,0.69-2.71,1.8-4.53,1.35c-1.55,2.92-4.89,3.47-7.34,5.31c-2.13,1.6-4.24,3.34-6.81,4.41c-2.37,0.98-4.51,2.52-6.8,3.7
			c-0.41,0.21-0.72,0.46-1.02,0.74c-2.96,2.85-5.58,6.11-9.34,8.03c-2.1,2.8-4.4,5.49-6.2,8.47c-0.93,1.53-0.98,3.59-1.41,5.41
			c-0.12,0.53,0.34,0.76,0.64,1.1c-0.44,0.47-0.88,0.93-1.33,1.41c0,1.55,0,3.1,0,4.55c-1.1,1.43-1.44,3.09-1.96,4.65
			c-0.82,2.43-1.8,4.69-4.34,5.94c-1.1-1.91,0.66-3.39,0.39-5.12c-0.27-1.74-0.06-3.56-0.06-5.34c-0.3-0.69-1.35-0.14-1.58-0.97
			c-0.16,0.1-0.34,0.18-0.46,0.31c-1.43,1.46-2.78,2.97-5.06,3.14c-0.33,0.03-1.07,0.29-1.35,0.66c-1.51,1.94-3.8,2.68-5.83,3.69
			c-2.08,1.04-3.1,3.07-4.76,4.18c-0.63,0.91,0.18,1.93-0.58,2.63c-0.7,0.65-0.19,1.47-0.46,2.53c-0.43,0.31-1.11,0.79-1.77,1.27
			c-0.67-2.14,0.66-4.09,1.27-6.12c-0.32-0.15-0.51-0.24-0.72-0.33c-1.55,2.14-4.11,3.81-3.21,7.13c0.68,0.69,0.77,1.94,1.86,2.48
			c0,2.02,0.59,4.28-0.16,5.93c-0.79,1.76-0.21,3.52-1.02,5.27c-0.72,1.56-0.15,3.71-0.15,5.84c-0.4,0.3-0.92,0.71-1.23,0.95
			c-0.36,1.04,0.81,1.24,0.47,2.3c-0.3,0.22-0.84,0.61-1.23,0.9c0,3.04-0.45,5.92,0.1,8.59c1.02,4.94,0.3,9.86,0.56,14.78
			c0.13,2.6-0.97,5.08-0.74,7.75c0.11,1.24,0.58,2.47,0.25,3.84c-0.33,1.36-0.12,2.85-0.17,4.29c-0.17,5.16,0.99,10.25,0.75,15.43
			c-0.12,2.5-1.05,4.85-0.85,7.41c0.08,0.99,1.2,2.04,0.16,3.09c1.06,0.86,0.51,2.05,0.58,3.09c0.08,1.22,0.22,2.49-0.02,3.67
			c-0.72,3.6-0.22,7.44-2.22,10.84c-0.62,0-1.27,0-2.02,0c-1.2-0.65-1.7-1.98-2.39-3.18c0.21-0.79,1.26-1.59,0.64-2.35
			c-1.92-2.3-1.11-4.97-1.29-7.5c-0.02-0.22,0.02-0.44,0.03-0.65c0.39-0.39,0.79-0.79,1.3-1.3c0-6.88-0.04-13.88,0.04-20.88
			c0.01-1.13-0.88-1.91-0.75-3.07c0.1-0.9,0.24-1.84-0.49-2.81c-0.44-0.58,0.03-1.73,0.4-2.7c0.44-1.16,2.34-1.74,1.47-3.4
			c0.59-0.98,0.95-2.16,1.15-3.17c0.38-1.92,0.11-3.97,0.11-6.21c-0.36-0.25-0.9-0.64-1.48-1.05c1.18-2.45,0.85-4.86,0.88-7.23
			c0.01-0.55,0.19-1.29-0.09-1.62c-0.78-0.92-0.75-1.57-0.07-2.59c0.55-0.82,0.07-2.01,0.76-3.03c0.61-0.91-0.46-1.98-0.59-3.02
			c-0.05-0.44-0.01-0.89-0.01-1.4c0.37-0.34,0.78-0.71,1.27-1.16c0.14-1.49,0.12-2.99-0.27-4.49c1.29-1.53-0.5-2.8-0.37-4.27
			c0.15-1.66,0.04-3.34,0.04-5.01c0-1.56,0-3.12,0-4.68c0-1.67,0-3.34,0-5.14c0.51-0.45,1.1-0.95,1.73-1.5
			c0.58,0.2,0.41,4.09-0.4,6.03c0.22,0.35,0.45,0.7,0.65,1.02c0.24,0.72-0.7,0.84-0.65,1.41c1.39,2.33,0.22,4.95,0.87,7.51
			c1.92-0.31,2.36-1.85,2.41-3.22c0.16-3.89,0.04-7.8,0.06-11.69c0.01-1.16-0.62-1.99-1.31-2.9c-0.16-2.17,0.23-4.28,0.99-6.47
			c0.71-2.04,2.87-3.17,3.12-5.66c1.5-1.45,2.99-3.36,5.58-3.59c0.66-1.07,2-1.2,2.8-2.12c1.18-1.37,2.67-2.11,4.44-1.8
			c1.15-1.06,1.35-2.81,3.1-3.19c0.48-0.1,0.95-0.8,1.28-1.41c0.45-0.84,2.34-2.06,3.19-2.08c1.25-0.04,2.24-0.51,3.34-1.57
			c-0.24-2.61,1.78-4.81,2.12-7.51c2.16-2.3,3.78-5.14,6.42-6.94c1.46-0.99,2.52-2.17,3.6-3.53c1.65-2.07,3.56-3.95,5.53-5.71
			c0.71-0.63,1.81-1.01,2.94-0.95c0.07-0.34,0.14-0.64,0.25-1.13c2.94,0.19,4.57-2.5,7.09-3.48c2.5-0.97,4.31-3.29,7.51-4.34
			c0.88-0.83,2.04-2.3,3.74-3.11c0.28-0.13,0.58-0.55,0.77-0.5c1.54,0.47,2.43-0.71,3.43-1.4c1.4-0.97,2.93-0.45,4.39-0.69
			c2.3-1.15,3.6-3,4.32-5.51c0.83-2.86,3.77-6.25,6.34-7.81c1.57,0.08,3.08-0.26,4.65-1.25c2.37-1.5,5.22-1.66,7.92-1.4
			c0.34-0.34,0.57-0.57,0.92-0.93c0-1.07,0-2.27,0-3.21c1.42-1.89,2.12-3.89,3.3-5.64c1.39-2.05,3.29-3.49,4.83-5.31
			c1.49-1.75,3.46-2.7,5.71-3.09c1.3-0.23,1.95-1.49,3.19-1.96c2.56-0.97,5.16-0.44,7.74-0.61c1.67,1.22,3.58,0.53,5.39,0.65
			c2.58,0.18,5.09-0.12,7.49-1.21c0.67-0.3,1.58-0.38,2.2,0.06c1.62,1.15,3.63,1.54,5.11,3.01c1.41,1.4,3.54,1.88,4.88,3.48
			c0.45,0.54,3.1,3.53,3.54,4.23c2.15,3.39,3.11,7.18,4.06,11.02c0.42,1.71,0.46,3.1,0.05,4.84c-0.52,2.22-0.13,4.65-0.13,6.58
			c-2.04,3.88-4.02,7.39-5.37,11.04c-2.62,1.72-4.52,4.13-7.27,5.72c-0.43,0-1.09,0-1.87,0c0-1.22,0-2.41,0-3.74
			c2.54-2.54,5.22-5.2,7.73-7.71c0.47-1.54-0.52-3.06,0.77-4.3c0.21-0.21,0.2-1.04-0.03-1.26c-1.07-1.04-0.43-2.27-0.6-3.35
			c0.46-0.46,0.85-0.85,1.43-1.43c-0.67-2.62-0.93-5.46-1.3-8.27c-0.48-3.67-2.48-6.22-4.63-8.8c-1.17-1.4-2.95-2.15-4.21-3.53
			c-0.74-0.8-2.4-0.31-2.83-1.8c-0.49,0.48-0.81,0.99-1.78,0.61c0.49-0.8,1.15-1.36,1.74-1.78c1.22-0.36,1.64,0.69,2.38,0.99
			c2.51,1.03,4.13,3.26,6.42,4.59c1.36,0.8,1.72,2.62,2.52,3.94c1.79,2.94,3.08,6.16,2.96,9.79c-0.13,3.98-0.03,7.96-0.03,12.02
			c1.83-0.66,2.62-1.7,2.65-3.49c0.04-2.45-0.25-4.94,0.06-7.35c0.68-5.25-2.22-9.31-4.23-13.64c-0.61-1.31-2.29-1.98-2.77-3.53
			c-2.2-0.91-3.45-3.18-5.67-4.02c-0.69-0.26-0.94-0.97-1.52-1.15c-0.98-0.31-1.76-1.08-2.97-0.95c-1.29,0.14-2.34,0.84-3.56,1.1
			c-0.76,0.16-0.46,1.16-1.05,1.69c-2.85-1.13-5.91-0.68-8.93-0.71c-0.92-0.01-1.73-0.45-2.82-0.16c-0.98,0.26-2.08,0.54-2.98,0.91
			c-1.19,0.49-2.13,1.57-3.36,2.19c-0.66,0.34-1.24,0.25-1.92,0.45c-2.54,3.06-6.63,4.57-8.84,8.43c0,0.49,0,1.24,0,1.95
			c0.66,0.44,1.34,0.17,2.04,0.26c1.58-1.09,3.11-2.43,5.16-2.65c0.68-0.08,1.33-0.51,1.65-0.78c1.78-1.46,4.06-1.53,5.99-2.51
			c1.94-0.99,4.11-1.3,6.15-2.03c1.99-0.7,4.22,0.07,5.94,0.82c2.96,1.29,5.92,2.76,7.99,5.67c1.53,2.15,3.43,4.01,4.4,6.55
			c0.73,1.92,1.56,3.81,2.34,5.71c0.57,1.39,0.02,2.84,0.27,4.2c-0.67,0.67-1.3,1.3-1.93,1.93c-0.23,1.89-1.37,3.26-2.58,4.61
			c-1.38,1.55-2.95,2.89-4.25,4.56c-1.73,2.23-2.48,4.79-3.22,7.36c-0.33,1.15-0.73,2.17-1.52,3.18
			C188.45,93.83,187.15,93.83,185.75,93.83z M85.96,115.25c0.77-0.1,1.13-0.58,1.3-0.98c1.21-2.9,3.05-5.41,4.76-7.99
			c0.57-0.86,1.36-1.68,2.61-1.92c-0.34-1.25,0.35-2.2,1.31-2.69c2.92-1.47,4.69-4.16,6.93-6.34c0.47-0.45,0.57-0.89-0.01-1.47
			c-2.49,0.7-4.11,2.64-5.56,4.58c-1.77,2.36-3.72,4.49-6.13,6.15c-0.74,0.51-1.67,1.1-1.81,1.76c-0.3,1.35-1.67,1.68-1.92,2.84
			C86.96,111.2,86.47,113.18,85.96,115.25z M52.57,227.76c-0.16-0.01-0.31-0.02-0.47-0.03c0,5.94,0,11.89,0,17.73
			c0.34,0.34,0.57,0.58,0.78,0.78c0.55-0.26,1.09-0.52,1.7-0.81c0-4.26,0-8.56,0-12.85c-0.64-0.65-1.27-1.28-2.01-2.02
			C52.57,229.7,52.57,228.73,52.57,227.76z M83.88,124.46c0.27,0.9,0.62,1.7,2.19,1.49c-0.35-0.65,0.17-1.26-0.37-1.84
			C85.1,124.08,84.46,123.73,83.88,124.46z M196.73,75.9c-0.03,0.86-1.07,1.45-0.77,3.06c0.76-1.19,1.95-1.46,1.89-2.59
			C197.62,75.87,197.3,75.9,196.73,75.9z M194.49,79.94c-1.16-0.11-1.56,0.43-1.9,1.04c0.32,0.33,0.61,0.64,0.91,0.94
			C193.8,81.32,194.1,80.73,194.49,79.94z M77.28,123.97c0.06-1.49-0.49-1.5-1.34-1.01c0.06,0.36-0.12,0.72,0.33,1.01
			C76.47,123.97,76.77,123.97,77.28,123.97z"/>
		<path d="M171.86,169.48c1.18,0.47,1.74,1.62,2.68,2.31c0,0.72,0,1.39,0,2.05c0.6,0.45,1.43,0.49,1.97,1.39c0,1.44,0,3.08,0,4.56
			c0.62,0.78,1.19,1.13,2.08,1.07c3.88-0.27,7.44,1.18,11.08,2.16c0.29,0.08,0.58,0.52,0.79,0.46c3.25-0.79,5.23,1.9,7.81,2.9
			c0.9,0.35,1.65,1.36,1.91,2.48c1.44,0.04,1.86,1.43,2.76,2.16c0.82,0.67,1.55,1.44,1.93,2.53c0.34,0.97,0.87,1.87,1.4,2.76
			c0.5,0.85,0.06,1.73,0.22,2.69c-1.54-1.16-2.72-2.42-2.66-4.51c-3.31-3.02-6.65-6.06-10.25-9.33c-0.22,0.86-1.07,0.92-1.08,2.02
			c0.84,0.6,1.3,2.08,2.97,1.67c0.97,0.84,1.68,2,3.02,2.34c0.08,1.71,1.7,1.96,2.71,2.85c-0.48,2.45,1.77,3.64,2.62,5.5
			c0.08,0.63-0.2,1.31,0.24,1.94c0.81,0.05,1.66,0.32,2.42-0.22c0-0.71,0-1.37,0-2.26c0.68-0.14,0.81,0.57,1.24,0.8
			c0,1.01,0,1.98,0,2.9c-1.12,0.99-2.19,1.84-3.83,1.42c-0.05-0.55-0.09-1.07-0.14-1.61c-0.44-0.53-1.04-0.15-1.68-0.31
			c-0.43-0.49-0.95-1.06-1.57-1.76c0.5-1.49-1.23-2.82-0.63-4.5c-0.89-0.63-1.31-1.63-2.65-1.81c-1.48-0.19-2.26-1.49-2.12-3.17
			c-0.87,0-1.61,0-2.49,0c0,0.94,0,1.91,0,2.78c-0.61,0.51-0.85,1.25-1.9,1.12c-0.53-1.37-0.06-2.9-0.27-4.35
			c-0.57-0.79-1.94,0.39-2.17-1.11c-0.23,0.32-0.44,0.48-0.44,0.65c-0.03,1.22-0.03,2.45-0.01,3.67c0.02,1.06,0.09,2.03,0.59,3.1
			c0.91,1.97,0.94,4.19,0.67,6.47c-0.36,0.38-0.81,0.86-1.24,1.31c0,0.7,0,1.36,0,2.01c0.67,0.69,1.51,0.02,2.27,0.47
			c0.46-0.58,0.86-1.1,1.25-1.58c2.25,0.45,4.04-0.59,6.16-1.34c0.2,0.39,0.46,0.88,0.72,1.37c0.38,1.16-0.44,2.13-1.18,3.18
			c-1.22,1.75-3,2.92-4.45,4.42c-1.52,1.56-2.44,3.33-2.84,5.51c-0.27,1.48-0.71,3.01-1.78,4.56c-0.34-2.81-0.22-5.19,1.11-7.6
			c1.4-2.53,2.61-5.06,5.39-6.4c0.62-0.3,1.01-1.06,1.72-1.84c-1.31-0.56-2.14-0.61-3.22-0.02c-1.17,0.64-2.16,1.21-2.52,2.61
			c-0.34,1.32-1.03,2.39-2.64,2.32c0.1-0.73-0.29-1.56,0.24-1.97c-0.6-0.6-1.24-1.25-1.89-1.89c0.12-2.13,0.72-3.76,0.89-5.43
			c0.24-2.32,0.28-4.7-0.47-7.08c-0.36-1.13-1-2.33-0.81-3.69c0.17-1.2,0.04-2.44,0.04-3.67c-0.39-0.38-0.78-0.77-1.28-1.26
			c0-0.87,0-1.84,0-2.61c-0.33-0.56-0.69-0.43-1-0.47c-1.85-0.25-3.48,0.95-5.37,0.72c-1.85-0.22-3.76-0.12-5.64-0.03
			c-3.19,0.16-5.79-0.74-7.39-3.72c-0.1-0.19-0.31-0.32-0.55-0.56c0-1.22,0-2.53,0-4.16c1.03-0.71,1.54-2.09,2.17-3.65
			c1.68,0.54,3.07-1.13,4.83-0.56C172.09,171.23,171.74,170.33,171.86,169.48z M174.58,182.31c-0.21-2.59,0.46-4.83-1-6.76
			c-0.58,0.09-1.31-0.47-1.68,0.3c-0.32,0.86,0.85,1.07,0.62,1.84c-0.72,0.39-0.25,1.74-1.49,1.86c-1.9-0.99-0.73-3.43-2.07-4.63
			c-0.78,0-1.53,0-2.48,0c0.28,2.51-0.57,5.04,1.15,7.35c1.22-0.68,2.03,1.07,3.32,0.59C172.02,182.46,173.07,181.87,174.58,182.31z
			"/>
		<path d="M187.22,287.36c-0.29,1.75,0.9,2.32,1.71,3.08c0.57,0.12,0.85-0.24,1.22-0.65c0.77,0.64-0.16,1.97,1,2.38
			c-2.03,1.01-4.01,1.46-6.15,0.49c-0.55-0.25-1.27-0.21-1.91-0.19c-2.69,0.08-5.19-0.82-7.77-1.32c-0.77-0.15-1.04-0.69-1.46-1.13
			c-0.36-1.27,1.19-2.09,0.61-3.26c2.35-1.39,4.91-1.49,7.27-2.2c2.16-0.66,3.77-2.16,5.76-2.49c1.86-11,1.04-11.96-0.41-14.75
			c-2.38-1.17-4.58,0.98-6.97,0.33c-0.07-0.12-0.17-0.3-0.28-0.47c-2.45-4.03-2.41-4.3-1.38-9.92c0.3-1.65-0.13-3.43,1.29-5.16
			c0,4.66,0,9.05,0,13.43c1.29,0.25,2.36,0.54,3.33-0.77c0-0.71,0.44-1.63-0.36-2.51c-0.5-0.55-0.19-1.27-0.2-1.91
			c-0.04-1.78-0.17-3.58,0.03-5.34c0.2-1.69-0.83-3.08-0.76-4.74c0.06-1.46,0.59-3.08-0.61-4.4c-0.21-3.69-0.96-7.34-0.73-11.08
			c0.05-0.86,0.85-1.22,0.75-2.06c-0.1-0.88-0.15-1.81,0.02-2.66c0.13-0.61,0.66-1.13,1.29-2.12c0,3.66,0.15,6.87-0.06,10.06
			c-0.12,1.8,0.73,3.33,0.77,5.07c0.04,1.69-0.7,3.52,0.6,5.08c0.11,0.13,0.02,0.43,0.01,0.66c-0.02,3.93,1.09,7.79,0.69,11.75
			c-0.18,1.75,0.53,3.27,1.55,4.42c0.92,0.31,1.09-0.53,1.82-0.61c1.63,0.72,3.48,1.39,5.17,2.33c1.09,0.61,2.28,0.61,3.15,0.29
			c2.89-1.07,5.8-0.33,8.44-0.6c0.54,0.44,0.87,0.72,1.22,1.01c-0.12,1.2-1.17,1.59-1.81,2.43c-1.43-0.66-2.56,0.73-4,0.6
			c-1.31-0.12-2.64-0.03-4.1-0.03c-1.28,3.6-0.77,7.43-1.77,11.38c-0.47,1.13-1.57,2.1-2.92,3.05
			C189.99,285.76,188.35,286.09,187.22,287.36z M189.94,283.82c2.19-0.1,1.76-2.53,3.12-2.96c0-3.53,0-6.94,0-10.34
			c-1.12-0.05-1.86-1.41-3.24-0.5c0.24,1.87-0.52,3.94,0.61,5.68C189.39,278.46,189.94,281.13,189.94,283.82z M179.76,287.12
			c-0.73,0-1.16-0.01-1.6,0c-1.93,0.05-2.08,0.35-1.06,2.24c0.1,0.18,0.31,0.29,0.34,0.32c1.09,0,2.04,0,2.92,0
			C180.93,288.58,179.57,288.18,179.76,287.12z"/>
		<path d="M84.62,263.72c0.71-0.1,1.15-1,2-0.67c0.14,1.04,0.07,2.02,0.54,3.12c0.58,1.37,1.1,3,0.82,4.68
			c-0.49,2.95,0.88,5.76,0.74,8.74c-0.06,1.33,0.89,2.7,1.41,4.13c0.44,0.03,0.86,0.05,1.54,0.09c1.73,2.31,4.6,3.63,6.6,5.97
			c0.66,0,1.32,0,2.01,0c0.84,0.87,1.69,1.74,2.38,2.46c3.61,0.79,7.17,0.51,10.43,1.62c0.42,1.1,0.15,1.85-0.89,2.62
			c-2.83,0-5.94,0.28-8.98-0.08c-2.85-0.34-5.71-1.32-7.96-3.13c-0.99-0.8-2.61-0.26-3-1.57c-0.36-1.23-1.36-1.45-2.22-1.85
			c-0.41-0.19-0.72-0.43-1.04-0.69c-0.54,0.66-1.24,0.79-2.16,0.54c-1.12-1.46-2.25-3.09-2.99-5.02c-0.65-0.36-1.63-0.42-1.86-1.44
			c-0.05-0.21-0.1-0.52,0.01-0.65c0.86-1.06-0.56-2.35,0.06-3.07c0.89-1.05,0.58-2.1,0.56-3.12c-0.05-2.07,0.1-4.06,1.06-5.9
			c0.03,0.02,0.12,0.07,0.18,0.15c0.06,0.08,0.12,0.19,0.12,0.28c0.01,4.22,0.01,8.43,0.01,12.56c3.91,3.47,8.39,5.91,12.67,8.99
			c1.81-0.09,3,1.37,4.14,2.52c0.46-0.29,0.91-0.57,1.62-1.01c-2.42-2.22-5.54-2.71-7.5-4.89c-2.02-2.25-4.9-3.44-6.94-5.63
			c0.18-1.33-0.67-2.22-1.32-3.76c0-1.78-0.03-4.1,0.01-6.43c0.05-2.7-0.42-5.26-1.79-7.61C84.45,264.99,84.74,264.35,84.62,263.72z
			"/>
		<path d="M145.25,184.55c0.02,0.33-0.76,0.41-0.9,0.95c-2.35-1.23-4.22-3.53-7.08-2.57c-1.39-0.69-1.92-1.88-2.53-3.09
			c0.29-0.5,0.64-1.13,0.48-2c0.85-0.76,1.76-1.57,2.69-2.4c0-1.31,0.01-2.51,0-3.72c-0.01-1.06,0.29-2.2-0.87-2.89
			c0.36-0.45,0.56-0.7,0.8-1.01c-0.16-0.19-0.34-0.42-0.53-0.64c1.1-1.6,2.89-2.88,2.59-5.2c1.25-1.28,0.87-3.47,2.45-4.61
			c0.9,0.42,1.73,0.89,3.22,0.82c-1.44,1.09-2.05,2.36-3.11,3.26c-1.06,0.89-1.23,2.29-1.89,3.42c-0.86,1.47-1.43,3.27-1.21,4.76
			c0.34,2.21,0.63,4.51,1.57,6.65c0.57,1.29,1.33,2.68,0.8,4.72C142.75,182.04,143.91,183.2,145.25,184.55z"/>
		<path d="M225.14,134.72c0.33,0,0.66,0,1.03,0c0.38,0.86,0.68,1.81,1.62,2.18c0,3.44,0,6.76,0,10.29c0.65,0.54,1.41,1.16,1.81,1.49
			c0.54,1.82-0.2,2.9-0.74,4.05c-0.91,1.94-2.03,3.76-2.65,5.88c-0.44,1.5-0.37,3.07-1,4.55c-0.84,1.98-1.47,4.05-2.6,6
			c-1.39,0.37-2.93,0.62-3.45,2.32c-0.81,0.41-1.61,0.82-2.41,1.22c-0.18-2.2,0.38-2.86,2.93-3.42c1.06-0.64,0.77-2.63,2.54-2.55
			c0.45-0.33,0.05-0.98,0.29-1.2c2.2-2.08,1.94-5.04,2.54-7.61c0.51-2.15,1.4-3.91,2.75-5.6c0-1.05,0-2.16,0-3.25
			c-0.48-0.69-1.29-0.03-1.81-0.48c0.69-1.03,0.45-2.2,0.5-3.45c-0.43-0.48-0.93-1.03-1.38-1.54c0.98-2.38,1.11-4.69,0.24-6.98
			C225.08,135.96,225.26,135.35,225.14,134.72z"/>
		<path d="M212.8,203.59c0.69-0.7,1.01-1.01,1.43-1.43c0.67,0.72,1.46,1.36,1.97,2.18c0.66,1.06,1.26,2.24,0.93,3.59
			c-0.89,3.69-0.55,5.02-0.1,9.46c0.3,2.98,0.72,5.87,1.41,8.77c0.28,1.15,0.14,2.44,0.02,3.65c-0.12,1.14,0.59,2.45-0.56,3.42
			c0.99,1.11-0.55,1.95-0.09,3.03c-0.73,0-1.26,0-1.75,0c-0.43-0.66-0.45-1.52-0.19-1.94c0.85-1.32,0.43-2.73,0.64-4.08
			c0.33-2.11-0.31-4.11-0.81-6.02c-0.33-1.27-0.43-2.49-0.56-3.75c-0.12-1.17,0.13-2.33-0.23-3.55c-0.28-0.94,0.33-2.11,0.26-3.22
			c-0.08-1.22-0.08-2.45,0-3.66C215.32,207.59,215.1,205.29,212.8,203.59z"/>
		<path d="M187.84,212.26c-0.09,0.63,0.25,1.35-0.24,1.9c-2.06,2.29-2.59,5.03-2.42,7.99c0.05,0.83,0.17,1.6,0.48,2.46
			c0.72,1.98,0.89,4.17,1.27,6.28c-0.87,0.59,0.21,0.8,0.23,1.21c0.14,3.1-0.49,6.05-1.99,8.9c0-2.96-0.18-5.93,0.06-8.87
			c0.17-2.12-0.25-4.19-0.85-6.01c-0.87-2.64-0.59-5.22-0.4-7.75c0.11-1.46,0.9-3.17,1.96-4.46c0.43-0.52,0.52-1.14,0.81-1.63
			C187.18,212.26,187.51,212.26,187.84,212.26z"/>
		<path d="M219.91,172.01c1.52,0.34,1.81,1.51,1.84,2.4c0.12,3.89,0.05,7.78,0.05,11.67c-1.3,2.25-0.36,4.72-0.67,6.74
			c-0.38,0.63-0.64,1.06-1.23,2.04C219.91,186.77,219.91,179.46,219.91,172.01z"/>
		<path d="M129.24,137.51c-2.66-0.4-2.45-3.23-4.83-4.09c-0.3,0-1.17,0-2.26,0c-0.28,0.37-0.67,0.89-1.23,1.63
			c-0.2-1.34-0.94-1.95-1.63-2.63c0.91-1.41,2.74-1.33,4.04-2.73c0.67,1.82,3.6,1.27,3.2,4.12c1.22,0.14,1.91,1.1,2.71,1.92
			C129.24,136.29,129.24,136.84,129.24,137.51z"/>
		<path d="M164.2,175.49c-0.31-0.22-0.31-0.44,0-0.66C164.51,175.05,164.51,175.27,164.2,175.49z"/>
		<path d="M219.14,171.48c0.46-0.02,0.68,0.21,0.67,0.67C219.35,172.17,219.13,171.95,219.14,171.48z"/>
		<path d="M84.61,263.72c-0.32,0.06-0.52-0.09-0.59-0.4c-0.01-0.05,0.14-0.21,0.2-0.2C84.52,263.2,84.67,263.4,84.61,263.72z"/>
	</g>
</g>
</svg>
